<?xml version="1.0" encoding="UTF-8"?>
<svg width="1100px" height="192px" viewBox="0 0 1100 192" version="1.1" xmlns="http://www.w3.org/2000/svg" xmlns:xlink="http://www.w3.org/1999/xlink">
    <title>roots_baseline</title>
    <g id="Page-1" stroke="none" stroke-width="1" fill="none" fill-rule="evenodd">
        <g id="board">
            <g id="left" transform="translate(0.517928, 0.000000)" stroke="#979797" fill="#979797">
                <path d="M146.292359,127.605193 L195.888825,127.605193 C198.948063,127.529631 201.64508,128.712734 203.979877,131.154502 C206.314673,133.596269 207.482072,135.916169 207.482072,138.1142 L207.482072,153.646221 C206.637173,156.802423 205.254693,159.232912 203.334634,160.937689 C201.414574,162.642465 198.932638,163.834154 195.888825,164.512754 L146.292359,164.512754 C149.62578,163.946474 151.971869,163.028769 153.330625,161.759641 C154.140018,161.003637 155.493594,159.879669 156.42586,158.105021 C156.8477,157.302013 157.347847,155.815746 157.926301,153.646221 L157.926301,138.1142 C157.381175,136.219056 156.916432,134.90202 156.532072,134.163092 C155.547037,132.269377 154.41845,131.271712 153.149937,130.157236 C151.696016,128.879866 149.410157,128.029185 146.292359,127.605193 Z" id="6"></path>
            </g>
        </g>
    </g>
</svg>
