<?xml version="1.0" encoding="UTF-8" standalone="no"?>
<!-- Created with Inkscape (http://www.inkscape.org/) -->

<svg
   version="1.1"
   id="svg73"
   width="1283.4324"
   height="226.81873"
   viewBox="0 0 1283.4324 226.81873"
   sodipodi:docname="board.svg"
   inkscape:version="1.1 (c4e8f9e, 2021-05-24)"
   xmlns:inkscape="http://www.inkscape.org/namespaces/inkscape"
   xmlns:sodipodi="http://sodipodi.sourceforge.net/DTD/sodipodi-0.dtd"
   xmlns="http://www.w3.org/2000/svg"
   xmlns:svg="http://www.w3.org/2000/svg">
  <defs
     id="defs77" />
  <sodipodi:namedview
     id="namedview75"
     pagecolor="#ffffff"
     bordercolor="#666666"
     borderopacity="1.0"
     inkscape:pageshadow="2"
     inkscape:pageopacity="0.0"
     inkscape:pagecheckerboard="0"
     showgrid="false"
     inkscape:zoom="0.9983453"
     inkscape:cx="626.0359"
     inkscape:cy="92.653313"
     inkscape:window-width="1920"
     inkscape:window-height="1027"
     inkscape:window-x="1920"
     inkscape:window-y="25"
     inkscape:window-maximized="0"
     inkscape:current-layer="layer25"
     inkscape:lockguides="true"
     fit-margin-top="0"
     fit-margin-left="0"
     fit-margin-right="0"
     fit-margin-bottom="0" />
  <g
     inkscape:groupmode="layer"
     id="layer25"
     inkscape:label="Board_Shape"
     style="display:inline"
     transform="translate(-19.210817,-509.14009)">
    <path
       id="path4598-4"
       style="display:inline;opacity:1;mix-blend-mode:overlay;fill:none;stroke:#979797;stroke-width:2.5;stroke-linecap:butt;stroke-linejoin:miter;stroke-miterlimit:4;stroke-dasharray:none;stroke-opacity:1"
       d="m 19.710835,560.5252 c 11.381305,-41.41636 32.59022,-50.49945 94.926405,-49.80152 378.4122,0.13621 756.8246,-0.33778 1135.23656,0.24472 26.6423,2.84868 44.1254,27.36375 52.2694,50.78873 m 0,0 -2.4639,172.46929 -1278.736575,1.23192 -1.23192,-174.93314"
       sodipodi:nodetypes="cccccccc" />
    <path
       style="opacity:1;fill:#d8d8d8;fill-opacity:1;stroke:none;stroke-width:1.71983;stroke-miterlimit:4;stroke-dasharray:1.71983, 1.71983;stroke-dashoffset:0;stroke-opacity:1"
       d="M 3.4910488,212.5685 C 3.0699287,206.01152 2.8860894,165.82019 3.0825171,123.25442 L 3.4396581,45.862108 8.2181895,36.11641 C 13.924951,24.477609 21.190506,16.757549 30.94478,11.96813 40.125754,7.4602048 50.490068,5.3817866 70.512992,4.0332774 88.830626,2.7996166 947.52179,2.6730584 1130.501,3.8770511 l 107.7759,0.7091597 6.8793,3.351808 c 12.641,6.1590862 26.2691,22.0788872 33.546,39.1873962 l 2.488,5.849517 -1.2505,84.728148 c -0.6878,46.60048 -1.4239,84.92389 -1.6358,85.16311 -0.212,0.23924 -286.9593,0.70253 -637.21628,1.02953 L 4.2567215,224.49027 Z"
       id="path35494"
       transform="translate(19.210817,509.14009)" />
    <text
       id="2000-series-6"
       fill="#979797"
       fill-rule="nonzero"
       font-family="Helvetica-Bold, Helvetica"
       font-size="35.4415px"
       font-weight="bold"
       line-spacing="14"
       x="-311.9863"
       y="458.29269"
       transform="scale(1.0051863,0.99484045)"
       style="display:inline;stroke-width:2.53153"><tspan
         x="528.48077"
         y="569.60077"
         id="tspan2634-4"
         style="stroke-width:2.53153">Zlagboard EVO</tspan></text>
  </g>
  <g
     inkscape:groupmode="layer"
     id="layer29"
     inkscape:label="Holds C"
     style="display:inline"
     transform="translate(-19.210817,-509.14009)">
    <g
       inkscape:groupmode="layer"
       id="layer17"
       inkscape:label="C1"
       style="display:inline">
      <rect
         id="6-7-2"
         x="68.203506"
         y="658.23291"
         width="167.44641"
         height="42.854"
         rx="19.699579"
         style="display:inline;fill:#d8d8d8;fill-opacity:1;stroke:#979797;stroke-width:2.49193;stroke-miterlimit:4;stroke-dasharray:none;stroke-opacity:1" />
    </g>
    <g
       inkscape:groupmode="layer"
       id="layer18"
       inkscape:label="C2"
       style="display:inline">
      <rect
         id="6-7-2-9"
         x="279.80542"
         y="658.14978"
         width="123.37402"
         height="50.661453"
         rx="22.155806"
         style="display:inline;fill:#d8d8d8;fill-opacity:1;stroke:#979797;stroke-width:2.3257;stroke-miterlimit:4;stroke-dasharray:none;stroke-opacity:1" />
    </g>
    <g
       inkscape:groupmode="layer"
       id="layer20"
       inkscape:label="C4"
       style="display:inline">
      <rect
         id="6-7-7-56-3"
         x="578.68292"
         y="659.36487"
         width="165.18254"
         height="50.242168"
         rx="22.62603"
         style="display:inline;fill:#d8d8d8;fill-opacity:1;stroke:#979797;stroke-width:2.24;stroke-miterlimit:4;stroke-dasharray:none;stroke-opacity:1" />
    </g>
    <g
       inkscape:groupmode="layer"
       id="layer19"
       inkscape:label="C3"
       style="display:inline">
      <rect
         id="6-7-7-5"
         x="444.51056"
         y="659.51703"
         width="80.020462"
         height="41.492268"
         rx="19.4589"
         style="display:inline;fill:#d8d8d8;fill-opacity:1;stroke:#979797;stroke-width:2.24498;stroke-miterlimit:4;stroke-dasharray:none;stroke-opacity:1" />
    </g>
    <g
       inkscape:groupmode="layer"
       id="layer21"
       inkscape:label="C6"
       style="display:inline">
      <rect
         id="6-7-2-9-1"
         x="-1042.1968"
         y="657.72284"
         width="123.37402"
         height="50.661453"
         rx="22.155806"
         style="display:inline;fill:#d8d8d8;fill-opacity:1;stroke:#979797;stroke-width:2.3257;stroke-miterlimit:4;stroke-dasharray:none;stroke-opacity:1"
         transform="scale(-1,1)" />
    </g>
    <g
       inkscape:groupmode="layer"
       id="layer22"
       inkscape:label="C5"
       style="display:inline">
      <rect
         id="6-7-7-5-3"
         x="-877.49164"
         y="659.09009"
         width="80.020462"
         height="41.492268"
         rx="19.4589"
         style="display:inline;fill:#d8d8d8;fill-opacity:1;stroke:#979797;stroke-width:2.24498;stroke-miterlimit:4;stroke-dasharray:none;stroke-opacity:1"
         transform="scale(-1,1)" />
    </g>
    <g
       inkscape:groupmode="layer"
       id="layer23"
       inkscape:label="C7"
       style="display:inline">
      <rect
         id="6-7-2-1"
         x="-1253.7986"
         y="657.80597"
         width="167.44641"
         height="42.854"
         rx="19.699579"
         style="display:inline;fill:#d8d8d8;fill-opacity:1;stroke:#979797;stroke-width:2.49193;stroke-miterlimit:4;stroke-dasharray:none;stroke-opacity:1"
         transform="scale(-1,1)" />
    </g>
  </g>
  <g
     inkscape:groupmode="layer"
     id="layer28"
     inkscape:label="Holds_B"
     style="display:inline"
     transform="translate(-19.210817,-509.14009)">
    <g
       inkscape:groupmode="layer"
       id="layer10"
       inkscape:label="B1"
       style="display:inline">
      <path
         id="path162-0-0"
         style="display:inline;opacity:0.6;mix-blend-mode:overlay;fill:none;stroke:#000000;stroke-width:1px;stroke-linecap:butt;stroke-linejoin:miter;stroke-opacity:1"
         d="m 84.644531,581.21484 -10.052734,4.82618 -3.621094,3.61914 -2.412109,3.61914 -1.609375,5.22851 -0.802735,6.83789 3.216797,10.05274 3.216797,4.42383 4.021484,3.21875 c 0,0 3.619836,1.20542 5.228516,2.00976 1.60867,0.80434 6.837891,0.80469 6.837891,0.80469 l 132.312501,-0.80469 2.41406,-1.20508 2.41211,-1.60937 2.81445,-1.20703 1.60938,-1.60938 2.41406,-2.41211 1.20508,-3.21679 1.60937,-3.61914 v -2.41407 l 0.40235,-4.42383 -0.80469,-6.0332 -2.41211,-4.82617 -1.60937,-4.42383 -4.82618,-3.61914 -4.42382,-2.41211 -6.43555,-0.80469 z" />
      <rect
         id="6-7"
         x="66.029373"
         y="582.22565"
         width="169.84216"
         height="42.836742"
         rx="19.981434"
         style="display:inline;fill:#d8d8d8;fill-opacity:1;stroke:#979797;stroke-width:2.50919;stroke-miterlimit:4;stroke-dasharray:none;stroke-opacity:1" />
    </g>
    <g
       inkscape:groupmode="layer"
       id="layer13"
       inkscape:label="B4"
       style="display:inline">
      <path
         style="display:inline;opacity:0.6;mix-blend-mode:overlay;fill:none;stroke:#000000;stroke-width:1px;stroke-linecap:butt;stroke-linejoin:miter;stroke-opacity:1"
         d="m 591.78095,582.82346 c 46.11542,-0.13406 92.23085,-0.26811 138.34627,-0.40217 12.16183,2.71027 15.8979,17.61707 14.41763,28.35585 -3.08656,14.34947 -19.92708,15.8508 -31.94626,15.21801 -40.51811,-0.58429 -81.06405,0.40521 -121.58899,-0.45826 -15.10459,-4.25326 -19.73495,-23.4199 -10.89422,-34.40858 2.95053,-3.27842 7.69715,-7.00541 11.66557,-8.30485 z"
         id="path745-1-9"
         sodipodi:nodetypes="ccccccc" />
      <rect
         id="6-7-7-56"
         x="577.34076"
         y="582.01263"
         width="166.66052"
         height="42.470261"
         rx="19.212549"
         style="display:inline;fill:#d8d8d8;fill-opacity:1;stroke:#979797;stroke-width:2.24;stroke-miterlimit:4;stroke-dasharray:none;stroke-opacity:1" />
    </g>
    <g
       inkscape:groupmode="layer"
       id="layer12"
       inkscape:label="B3"
       style="display:inline">
      <path
         style="display:inline;opacity:0.6;mix-blend-mode:overlay;fill:none;stroke:#000000;stroke-width:1px;stroke-linecap:butt;stroke-linejoin:miter;stroke-opacity:1"
         d="m 458.5497,582.00856 c 16.57169,0 33.14338,0 49.71507,0 12.33244,4.21231 19.41901,18.19059 17.60492,30.75318 -0.80305,6.36284 -4.24475,12.19605 -8.87668,16.52719 -6.57414,5.371 -15.59905,5.0556 -23.60107,4.67861 -11.53729,-0.0944 -23.08267,0.75134 -34.6125,0.0349 -8.41103,-1.69381 -13.5993,-9.79029 -15.48332,-17.63163 -2.38222,-9.08891 -1.07933,-19.99621 6.18484,-26.58525 2.68409,-2.94972 5.61105,-5.74733 9.06874,-7.77704 z"
         id="path2905-4-3" />
      <rect
         id="6-7-7"
         x="443.03403"
         y="583.03583"
         width="82.169266"
         height="50.477951"
         rx="21.590122"
         style="display:inline;fill:#d8d8d8;fill-opacity:1;stroke:#979797;stroke-width:2.50919;stroke-miterlimit:4;stroke-dasharray:none;stroke-opacity:1" />
    </g>
    <g
       inkscape:groupmode="layer"
       id="layer11"
       inkscape:label="B2"
       style="display:inline">
      <rect
         id="6-7-2-0"
         x="278.85181"
         y="582.93878"
         width="124.18903"
         height="49.867794"
         rx="22.653862"
         style="display:inline;fill:#d8d8d8;fill-opacity:1;stroke:#979797;stroke-width:2.31502;stroke-miterlimit:4;stroke-dasharray:none;stroke-opacity:1" />
    </g>
    <g
       inkscape:groupmode="layer"
       id="layer14"
       inkscape:label="B5"
       style="display:inline">
      <rect
         id="6-7-7-9"
         x="-878.96814"
         y="582.60889"
         width="82.169266"
         height="50.477951"
         rx="21.590122"
         style="display:inline;fill:#d8d8d8;fill-opacity:1;stroke:#979797;stroke-width:2.50919;stroke-miterlimit:4;stroke-dasharray:none;stroke-opacity:1"
         transform="scale(-1,1)" />
    </g>
    <g
       inkscape:groupmode="layer"
       id="layer15"
       inkscape:label="B6"
       style="display:inline">
      <rect
         id="6-7-2-0-4"
         x="-1043.1504"
         y="582.51184"
         width="124.18903"
         height="49.867794"
         rx="22.653862"
         style="display:inline;fill:#d8d8d8;fill-opacity:1;stroke:#979797;stroke-width:2.31502;stroke-miterlimit:4;stroke-dasharray:none;stroke-opacity:1"
         transform="scale(-1,1)" />
    </g>
    <g
       inkscape:groupmode="layer"
       id="layer16"
       inkscape:label="B7"
       style="display:inline">
      <path
         id="path162-7-3-3"
         style="display:inline;opacity:0.6;mix-blend-mode:overlay;fill:none;stroke:#000000;stroke-width:1px;stroke-linecap:butt;stroke-linejoin:miter;stroke-opacity:1"
         d="m 1106.8086,581.32422 -6.4336,0.80469 -4.4238,2.41211 -4.8262,3.62109 -1.6094,4.42383 -2.4121,4.82617 -0.8047,6.03125 0.4024,4.42383 v 2.41406 l 1.6074,3.61914 1.207,3.2168 2.4141,2.41406 1.6074,1.60742 2.8164,1.20703 2.4121,1.60938 2.4141,1.20508 132.3125,0.80468 c 0,0 5.2293,-3.8e-4 6.8379,-0.80468 1.6087,-0.8043 5.2285,-2.00977 5.2285,-2.00977 l 4.0215,-3.2168 3.2168,-4.42382 3.2168,-10.05469 -0.8047,-6.83789 -1.6074,-5.22852 -2.4141,-3.61914 -3.6191,-3.61914 -10.0547,-4.82617 z" />
      <rect
         id="6-7-8"
         x="-1255.9728"
         y="581.79871"
         width="169.84216"
         height="42.836742"
         rx="19.981434"
         style="display:inline;fill:#d8d8d8;fill-opacity:1;stroke:#979797;stroke-width:2.50919;stroke-miterlimit:4;stroke-dasharray:none;stroke-opacity:1"
         transform="scale(-1,1)" />
    </g>
  </g>
  <g
     inkscape:groupmode="layer"
     id="layer27"
     inkscape:label="Holds_A"
     style="display:inline"
     transform="translate(-19.210817,-509.14009)">
    <g
       inkscape:groupmode="layer"
       id="layer5"
       inkscape:label="A3"
       style="display:inline">
      <path
         style="display:inline;opacity:1;mix-blend-mode:overlay;fill:#d8d8d8;fill-opacity:1;stroke:#979797;stroke-width:2;stroke-linecap:butt;stroke-linejoin:miter;stroke-miterlimit:4;stroke-dasharray:none;stroke-opacity:1"
         d="m 345.4654,512.16237 0.3501,33.6102 131.28982,-0.52516 2.80085,-1.05032 3.32601,-2.27569 2.80085,-2.27569 0.52516,-2.10064 1.05032,-3.50106 -0.35011,-21.88164 z"
         id="path2903-8-8" />
    </g>
    <g
       inkscape:groupmode="layer"
       id="layer4"
       inkscape:label="A2"
       style="display:inline">
      <path
         style="display:inline;opacity:1;mix-blend-mode:overlay;fill:#d8d8d8;fill-opacity:1;stroke:#979797;stroke-width:2;stroke-linecap:butt;stroke-linejoin:miter;stroke-miterlimit:4;stroke-dasharray:none;stroke-opacity:1"
         d="m 185.99203,512.51248 -5.77675,0.17505 -0.17506,41.48759 2.10064,4.72643 2.80085,3.15096 2.45074,2.9759 3.15096,2.45074 3.32601,1.05032 3.67611,1.22537 128.48897,-0.3501 4.90149,-2.10064 2.6258,-1.92559 4.02622,-3.67611 1.92558,-2.80085 1.22537,-3.32601 0.35011,-1.05032 0.17505,-42.5379 z"
         id="path2835-3-4" />
    </g>
    <g
       inkscape:groupmode="layer"
       id="layer6"
       inkscape:label="A4"
       style="display:inline">
      <path
         style="display:inline;opacity:1;mix-blend-mode:overlay;fill:#d8d8d8;fill-opacity:1;stroke:#979797;stroke-width:2;stroke-linecap:butt;stroke-linejoin:miter;stroke-miterlimit:4;stroke-dasharray:none;stroke-opacity:1"
         d="m 783.21358,514.05249 c -6.72008,16.39533 -34.93981,16.77074 -47.83659,17.69546 -52.32057,0.19696 -104.64293,1.13181 -156.96106,1.16521 -11.04831,-0.64083 -22.35738,-2.7183 -32.08019,-8.18494 -3.28958,-2.61704 -8.4792,-7.04714 -10.85851,-10.67573 77.04377,-0.71899 167.43507,0 247.73635,0 z"
         id="path710-8-3"
         sodipodi:nodetypes="cccccc" />
    </g>
    <g
       inkscape:groupmode="layer"
       id="layer7"
       inkscape:label="A5"
       style="display:inline">
      <path
         style="display:inline;opacity:1;mix-blend-mode:overlay;fill:#d8d8d8;fill-opacity:1;stroke:#979797;stroke-width:2;stroke-linecap:butt;stroke-linejoin:miter;stroke-miterlimit:4;stroke-dasharray:none;stroke-opacity:1"
         d="m 976.69433,512.2721 -0.3501,33.6102 -131.28982,-0.5251 -2.80085,-1.0504 -3.32601,-2.2757 -2.80085,-2.2756 -0.52516,-2.1007 -1.05032,-3.501 0.35011,-21.8817 z"
         id="path2903-9-9-9" />
    </g>
    <g
       inkscape:groupmode="layer"
       id="layer2"
       inkscape:label="A1"
       style="display:inline">
      <path
         style="display:inline;opacity:1;mix-blend-mode:overlay;fill:#d8d8d8;fill-opacity:1;stroke:#979797;stroke-width:2;stroke-linecap:butt;stroke-linejoin:miter;stroke-miterlimit:4;stroke-dasharray:none;stroke-opacity:1"
         d="m 47.332959,521.85756 v 31.96502 c 1.807014,8.75072 9.515391,15.66019 18.625531,15.37615 14.34513,1.19986 28.74391,-0.62585 43.11906,0.009 17.71885,-0.0982 35.43804,-0.13228 53.15669,-0.26674 9.38388,-2.31758 15.93605,-11.61254 14.22063,-21.24475 0.17284,-11.92417 -0.0484,-23.84937 0.034,-35.77393 -36.06087,0.4576 -72.17775,-0.33281 -108.20297,0.9353 -7.56727,1.34605 -14.53268,4.89517 -20.952981,8.99977 z"
         id="path2433-1-2"
         sodipodi:nodetypes="cccccccccc" />
    </g>
    <g
       inkscape:groupmode="layer"
       id="layer8"
       inkscape:label="A6"
       style="display:inline">
      <path
         style="display:inline;opacity:1;mix-blend-mode:overlay;fill:#d8d8d8;fill-opacity:1;stroke:#979797;stroke-width:2;stroke-linecap:butt;stroke-linejoin:miter;stroke-miterlimit:4;stroke-dasharray:none;stroke-opacity:1"
         d="m 1136.1677,512.6222 5.7767,0.1751 0.1751,41.4876 -2.1007,4.7264 -2.8008,3.151 -2.4508,2.9759 -3.1509,2.4507 -3.326,1.0503 -3.6761,1.2254 -128.48897,-0.3501 -4.9015,-2.1006 -2.6258,-1.9256 -4.0262,-3.6761 -1.9256,-2.8009 -1.2254,-3.326 -0.3501,-1.0503 -0.175,-42.5379 z"
         id="path2835-9-6-7" />
    </g>
    <g
       inkscape:groupmode="layer"
       id="layer9"
       inkscape:label="A7"
       style="display:inline">
      <path
         style="display:inline;opacity:1;mix-blend-mode:overlay;fill:#d8d8d8;fill-opacity:1;stroke:#979797;stroke-width:2;stroke-linecap:butt;stroke-linejoin:miter;stroke-miterlimit:4;stroke-dasharray:none;stroke-opacity:1"
         d="m 1274.8267,521.9673 v 31.965 c -1.807,8.7507 -9.5154,15.6602 -18.6255,15.3762 -14.3451,1.1998 -28.7439,-0.6259 -43.1191,0.01 -17.7188,-0.098 -35.438,-0.1323 -53.1566,-0.2668 -9.3839,-2.3175 -15.9361,-11.6125 -14.2207,-21.2447 -0.1728,-11.9242 0.048,-23.8494 -0.034,-35.7739 36.0609,0.4576 72.1778,-0.3328 108.203,0.9353 7.5673,1.346 14.5327,4.8951 20.953,8.9997 z"
         id="path2433-3-2-3"
         sodipodi:nodetypes="cccccccccc" />
    </g>
  </g>
</svg>
