<?xml version="1.0" encoding="UTF-8"?>
<svg width="1534px" height="406px" viewBox="0 0 1534 406" version="1.1" xmlns="http://www.w3.org/2000/svg" xmlns:xlink="http://www.w3.org/1999/xlink">
    <title>board</title>
    <g id="Page-1" stroke="none" stroke-width="1" fill="none" fill-rule="evenodd">
        <g id="board" transform="translate(1.640985, 1.000000)" fill="#979797" stroke="#979797">
            <g id="center" transform="translate(522.359015, 155.847656)">
                <path d="M244.589846,0.500557776 C292.664095,0.537370993 366.657704,2.39643724 466.570676,6.07752263 C470.73702,6.23102171 474.469351,8.01880893 477.160096,10.810514 C479.850841,13.6022193 481.5,17.3978426 481.5,21.5670135 L481.5,21.5670135 L481.5,50.5721044 C481.5,54.8523114 479.765104,58.7273116 476.960156,61.53226 C474.155207,64.3372085 470.280207,66.0721053 466,66.0721053 C465.818323,66.0721053 465.63666,66.0689111 465.455095,66.0625242 C366.36433,62.5768155 292.743483,60.8166353 244.592376,60.7817781 L244.592376,60.7817781 L241.687176,60.7817796 C193.440711,60.8167351 118.388868,62.581988 16.5316494,66.0777452 C12.2539612,66.2245561 8.32173448,64.6235927 5.42222704,61.9165046 C2.5227196,59.2094164 0.65593146,55.3962035 0.509120468,51.1185153 C0.503040603,50.9413639 0.5,50.7641213 0.5,50.5868657 L0.5,50.5868657 L0.5,21.5813869 C0.50000008,17.4095153 2.15122318,13.6119412 4.84474112,10.8198724 C7.53825906,8.02780351 11.2740718,6.24123989 15.4432513,6.09138929 C118.114086,2.40114609 193.529732,0.537461457 241.689999,0.500559134 L241.689999,0.500559134 Z" id="6"></path>
            </g>
        </g>
    </g>
</svg>
