<?xml version="1.0" encoding="UTF-8"?>
<svg width="655px" height="173px" viewBox="0 0 655 173" version="1.1" xmlns="http://www.w3.org/2000/svg" xmlns:xlink="http://www.w3.org/1999/xlink">
    <title>metolius_wood_grips_2_compact</title>
    <g id="Page-1" stroke="none" stroke-width="1" fill="none" fill-rule="evenodd">
        <g id="board" transform="translate(0.250000, -0.953670)">
            <g id="background" transform="translate(1.750000, 0.953670)" fill="#D8D8D8" stroke="#979797">
                <path d="M37.0616319,171.942585 C32.4890755,170.758338 29.2901496,169.646103 27.4648542,168.605881 C25.6395588,167.565659 23.9217806,165.875901 22.3115198,163.536607 C8.26367581,78.2978013 0.927868017,32.7287633 0.304096382,26.8294934 C-0.631561071,17.9805885 2.16816689,13.4783293 5.98962383,9.17359346 C6.73424894,8.33479966 11.9712356,2.20767914 22.3115198,1.37201477 C25.6893459,1.09903107 51.7535957,0.959809388 100.504269,0.954349714 L106.587124,0.954349714 C157.175093,0.959807806 230.436346,1.09895043 326.370882,1.37177759 C422.305492,1.09894946 495.566409,0.959807787 546.154202,0.954349714 L552.237057,0.954349714 C600.98773,0.959809388 627.05198,1.09903107 630.429806,1.37201477 C640.770091,2.20767914 646.007077,8.33479966 646.751702,9.17359346 C650.573159,13.4783293 653.372887,17.9805885 652.43723,26.8294934 C651.813458,32.7287633 644.47765,78.2978013 630.429806,163.536607 C628.819545,165.875901 627.101767,167.565659 625.276472,168.605881 C623.451177,169.646103 620.252251,170.758338 615.679694,171.942585 L615.679694,171.942585 L37.0616319,171.942585 Z" id="Combined-Shape"></path>
            </g>
            <g id="middle" transform="translate(208.750000, 1.953670)" stroke="#979797">
                <rect id="11" x="71.0897964" y="126.187075" width="95.4050633" height="21.2993197" rx="10.6496599"></rect>
                <rect id="10" x="71.0897964" y="64.3571429" width="95.4050633" height="21.2993197" rx="10.6496599"></rect>
                <path d="M0.110575677,27.2190259 C2.37439499,25.6372413 3.77473773,24.3254948 4.31160389,23.2837865 C6.13411837,19.7474702 7.36508844,16.6652226 7.36508844,13.636713 C7.36508844,11.6579696 7.35028712,9.28946717 7.34732686,7.05711923 L7.34739995,5.59482964 C7.349008,4.64111238 7.3541245,3.7373752 7.36508844,2.92978882 C7.37868071,1.92860408 8.11694707,0.97014116 9.57988752,0.0544000662 L227.736324,0.0544000662 C229.199264,0.97014116 229.937531,1.92860408 229.951123,2.92978882 C229.962087,3.7373752 229.967203,4.64111238 229.968811,5.59482964 L229.968885,7.05711923 C229.965924,9.28946717 229.951123,11.6579696 229.951123,13.636713 C229.951123,16.6652226 231.182093,19.7474702 233.004607,23.2837865 C233.541474,24.3254948 234.941816,25.6372413 237.205636,27.2190259 L237.205636,27.2190259 L0.110575677,27.2190259 Z" id="9"></path>
            </g>
            <g id="right" transform="translate(522.250000, 75.453670) scale(-1, 1) translate(-522.250000, -75.453670) translate(389.750000, 0.953670)" stroke="#979797">
                <rect id="19" x="222.337121" y="126.187075" width="42.1628788" height="21.2993197" rx="10.6496599"></rect>
                <rect id="18" x="145.045455" y="127.20068" width="61.2348485" height="21.2993197" rx="10.6496599"></rect>
                <path d="M122.432654,145.418618 L20.2151008,145.959184 L14.8058712,114.537415 L117.263094,113.983652 C118.82292,114.100056 119.948604,114.627407 120.640143,115.565705 C121.331683,116.504002 121.929186,117.766902 122.432654,119.354403 L127.42942,141.468959 C127.254928,142.906483 126.884686,143.848937 126.318694,144.296321 C125.752702,144.743705 124.457356,145.117804 122.432654,145.418618 Z" id="17"></path>
                <rect id="16" x="215.310606" y="65.3707483" width="47.1818182" height="21.2993197" rx="10.6496599"></rect>
                <rect id="15" x="134.003788" y="65.3707483" width="61.2348485" height="21.2993197" rx="10.6496599"></rect>
                <path d="M112.338635,84.4627909 L9.98768939,85.1428571 L3.70416486,45.6122449 L107.110992,45.6122449 C108.250598,46.4552175 109.063565,47.2186138 109.549892,47.9024339 C110.03622,48.5862539 110.67609,49.8656767 111.469503,51.7407022 L117.391541,79.4938645 C117.215088,81.3023624 116.840686,82.4880305 116.268336,83.0508686 C115.695985,83.6137068 114.386085,84.0843476 112.338635,84.4627909 Z" id="14"></path>
                <path d="M106.394076,1.06800551 C109.447694,2.62630905 111.350538,3.93048822 112.10261,4.98054299 C112.854681,6.03059777 113.374375,7.57660617 113.661689,9.61856817 L115.066059,22.5519004 C115.813024,24.2694405 116.507885,25.4644979 117.150643,26.1370725 C117.7934,26.8096471 119.010847,27.5081667 120.802981,28.2326314 L208.604096,28.2326314 C210.866942,26.6508467 212.266683,25.3391003 212.803319,24.2973919 C214.62505,20.7610756 215.855491,17.678828 215.855491,14.6503184 C215.855491,11.3524127 215.814394,6.9718432 215.855491,3.94339426 C215.869077,2.94220952 216.607027,1.9837466 218.069338,1.06800551 L106.394076,1.06800551 Z" id="13"></path>
                <path d="M120.802981,28.2326314 C112.822005,28.2326314 72.9056702,28.2326314 1.05397727,28.2326314 C0.771624019,25.8351163 0.771624019,22.9593604 1.05397727,19.6053637 C2.14731498,14.6812151 3.92595058,12.0113893 7.56274481,8.25031216 C8.88392599,7.12923889 12.9782739,2.47839285 23.2630657,1.37924297 C30.0877558,1.10406601 57.7980926,0.966477527 106.394076,0.966477527 C109.593177,2.79802401 111.531663,4.22977125 112.209533,5.26171925 C112.871892,6.12056206 113.312898,8.09254884 113.661689,9.61856817 C113.938738,11.2683836 114.750574,22.323065 115.649185,24.0180279 C117.026913,26.2967923 118.461932,27.6543383 120.802981,28.2326314 Z" id="12"></path>
            </g>
            <g id="left" transform="translate(0.750000, 0.953670)" stroke="#979797">
                <rect id="8" x="222.337121" y="126.187075" width="42.1628788" height="21.2993197" rx="10.6496599"></rect>
                <rect id="7" x="145.045455" y="127.20068" width="61.2348485" height="21.2993197" rx="10.6496599"></rect>
                <path d="M122.432654,145.418618 L20.2151008,145.959184 L14.8058712,114.537415 L117.263094,113.983652 C118.82292,114.100056 119.948604,114.627407 120.640143,115.565705 C121.331683,116.504002 121.929186,117.766902 122.432654,119.354403 L127.42942,141.468959 C127.254928,142.906483 126.884686,143.848937 126.318694,144.296321 C125.752702,144.743705 124.457356,145.117804 122.432654,145.418618 Z" id="6"></path>
                <rect id="5" x="215.310606" y="65.3707483" width="47.1818182" height="21.2993197" rx="10.6496599"></rect>
                <rect id="4" x="134.003788" y="65.3707483" width="61.2348485" height="21.2993197" rx="10.6496599"></rect>
                <path d="M112.338635,84.4627909 L9.98768939,85.1428571 L3.70416486,45.6122449 L107.110992,45.6122449 C108.250598,46.4552175 109.063565,47.2186138 109.549892,47.9024339 C110.03622,48.5862539 110.67609,49.8656767 111.469503,51.7407022 L117.391541,79.4938645 C117.215088,81.3023624 116.840686,82.4880305 116.268336,83.0508686 C115.695985,83.6137068 114.386085,84.0843476 112.338635,84.4627909 Z" id="3"></path>
                <path d="M106.394076,1.06800551 C109.447694,2.62630905 111.350538,3.93048822 112.10261,4.98054299 C112.854681,6.03059777 113.374375,7.57660617 113.661689,9.61856817 L115.066059,22.5519004 C115.813024,24.2694405 116.507885,25.4644979 117.150643,26.1370725 C117.7934,26.8096471 119.010847,27.5081667 120.802981,28.2326314 L208.604096,28.2326314 C210.866942,26.6508467 212.266683,25.3391003 212.803319,24.2973919 C214.62505,20.7610756 215.855491,17.678828 215.855491,14.6503184 C215.855491,11.3524127 215.814394,6.9718432 215.855491,3.94339426 C215.869077,2.94220952 216.607027,1.9837466 218.069338,1.06800551 L106.394076,1.06800551 Z" id="2"></path>
                <path d="M120.802981,28.2326314 C112.822005,28.2326314 72.9056702,28.2326314 1.05397727,28.2326314 C0.771624019,25.8351163 0.771624019,22.9593604 1.05397727,19.6053637 C2.14731498,14.6812151 3.92595058,12.0113893 7.56274481,8.25031216 C8.88392599,7.12923889 12.9782739,2.47839285 23.2630657,1.37924297 C30.0877558,1.10406601 57.7980926,0.966477527 106.394076,0.966477527 C109.593177,2.79802401 111.531663,4.22977125 112.209533,5.26171925 C112.871892,6.12056206 113.312898,8.09254884 113.661689,9.61856817 C113.938738,11.2683836 114.750574,22.323065 115.649185,24.0180279 C117.026913,26.2967923 118.461932,27.6543383 120.802981,28.2326314 Z" id="1"></path>
            </g>
            <g id="logo" transform="translate(236.750000, 37.953670)" stroke="#444444">
                <g id="tree" transform="translate(199.178439, 0.000000)">
                    <path d="M10.9962101,14.4511485 C10.9284853,15.7153515 10.8607605,16.9795546 10.7930357,18.2437576" id="Path-9"></path>
                    <path d="M10.6760538,14.7242806 C8.51465728,19.2398114 10.1612277,17.6615099 5.99871397,19.7166654" id="Path-10"></path>
                    <path d="M11.3695649,14.4511485 C11.0613001,16.1222447 10.6939503,17.220473 10.6939503,17.220473 L11.3695649,14.4511485 Z" id="Path-11"></path>
                    <path d="M10.5128132,17.793341 C12.1027275,18.2519583 13.6687353,18.7184413 15.2586497,19.1770586" id="Path-12"></path>
                    <path d="M10.6939503,16.9762996 C10.1633158,17.3901763 9.63268132,17.804053 9.10204681,18.2179297" id="Path-13"></path>
                    <path d="M10.1127614,15.1759639 C7.89048841,11.5043523 -0.201795961,14.0715501 0.00384974669,10.4587556 C0.20253502,6.96824236 2.1997087,5.11274475 3.56227585,3.4976326 C5.19473554,1.56260466 7.54550509,0.010633751 9.89799858,0.0031028711 C11.9073494,-0.00340563067 14.1267583,-0.0663486112 16.04387,0.892865878 C17.8479466,1.79552392 17.94878,4.56292783 19.1833173,5.96393813 C20.3647239,7.30465339 20.8832804,8.62048765 21.4689662,9.64415643 C22.2423638,10.9959101 22.6980779,11.9426684 20.6559181,12.7967139 C19.254896,13.3826311 17.9278482,12.0553419 16.9227259,12.4135585 C7.16232245,15.8920785 14.2380008,11.9635441 13.2115383,13.3218113 C12.9449104,13.6746268 12.6727864,13.1540552 10.7770939,14.667013 L10.1127614,15.1759639 Z" id="Path-14"></path>
                </g>
                <g id="grips" transform="translate(227.000000, 1.000000)">
                    <path d="M3,16.4907474 C4.21776664,16.5600995 5.07070974,16.5600995 5.55882929,16.4907474 C6.20243697,16.3993035 7.88216935,16.363183 7.97793136,14.4873029 C8.15726475,10.9743445 8.06906365,8.7939788 8.06906365,5.227839 C8.06906365,5.01625585 8.62740593,4.93963718 9.74409049,4.99798299" id="Path-31" stroke-width="1.4" stroke-linecap="round"></path>
                    <line x1="12.5085042" y1="12.7733449" x2="19.4218187" y2="12.7733449" id="Path-32" stroke-width="1.4" stroke-linecap="round"></line>
                    <path d="M15.1766873,12.7733449 C15.1766873,9.38167729 15.1766873,6.85437776 15.1766873,5.1914463 C15.1766873,5.04985917 14.4380398,5.01129009 12.9607447,5.07573906" id="Path-33" stroke-width="1.4" stroke-linecap="round"></path>
                    <path d="M15.3685563,7.72173009 C16.2751129,6.55040514 17.0785973,5.78020829 17.7790095,5.41113954 C18.2331104,5.17185982 18.8125912,4.91926795 19.5085906,4.86917679 C19.8861115,4.84200657 20.4270308,4.80906372 20.7271799,4.86917679 C20.9272793,4.90925217 21.1258696,5.06062109 21.322951,5.32328354" id="Path-34" stroke-width="1.3" stroke-linecap="round"></path>
                    <path d="M15.1766873,7.86617751 C15.6704011,7.19466361 16.2648364,6.63656056 16.9599933,6.19186837 C18.0027287,5.52483008 18.406571,5.23626071 19.1928388,5.13273266 C19.4759821,5.09545113 19.7877638,5.15429041 20.1402331,5.26569625 C20.3402674,5.32892158 20.6644841,5.47438924 21.112883,5.70209924" id="Path-35" stroke-width="1.4" stroke-linecap="round"></path>
                    <line x1="20.7963278" y1="5.30097314" x2="21.0093522" y2="5.42871011" id="Path-36" stroke-width="1.9" stroke-linecap="round"></line>
                    <path d="M26.0491642,5.11710562 C28.1054951,5.04619481 29.1336606,5.07637799 29.1336606,5.20765514 C29.1336606,6.33551232 29.1336606,8.83542846 29.1336606,12.7074035" id="Path-37" stroke-width="1.4" stroke-linecap="round"></path>
                    <line x1="24.9952451" y1="12.8482633" x2="32.9159739" y2="12.8482633" id="Path-38" stroke-width="1.4" stroke-linecap="round"></line>
                    <path d="M28.6466694,0.641035762 C29.1055089,0.501335463 29.2277534,0.552178164 29.315702,0.640126755 C29.4022795,0.72670423 29.4558287,0.846309897 29.4558287,0.978422669 L29.4558287,0.978422669 L29.4558287,1.65549099 C29.4558287,1.78012947 29.405309,1.89296844 29.3236297,1.97464778 C29.2419503,2.05632713 29.1291114,2.10684686 29.0044729,2.10684686 L29.0044729,2.10684686 L28.6407868,2.10684686 C28.6135771,2.10684686 28.588865,2.0959678 28.570814,2.07828779 C28.552763,2.06060778 28.5413733,2.03612682 28.5408084,2.008923 L28.5408084,2.008923 L28.5191891,0.967831051 C28.5165615,0.841297931 28.5654704,0.725678653 28.6466694,0.641035762 Z" id="Rectangle" fill="#444444"></path>
                    <circle id="Oval" stroke-width="1.4" cx="4.36784433" cy="8.86917679" r="3.3"></circle>
                    <path d="M35.9561181,5.13190721 C37.0332018,5.09716984 37.5717437,5.09716984 37.5717437,5.13190721 C37.5717437,7.03440691 37.5717437,10.8678647 37.5717437,16.6322807" id="Path-39" stroke-width="1.4" stroke-linecap="round"></path>
                    <line x1="36.1170993" y1="16.6322807" x2="40.9142173" y2="16.6322807" id="Path-40" stroke-width="1.4" stroke-linecap="round"></line>
                    <circle id="Oval" stroke-width="1.4" cx="41.4678443" cy="8.96917679" r="3.8"></circle>
                    <path d="M55.8767444,6.61658438 C55.2809327,5.88801883 54.7110602,5.3844421 54.167127,5.10585418 C53.3512271,4.68797231 53.2388411,4.80595752 52.3415584,4.80595752 C51.4442757,4.80595752 49.972316,5.390367 49.6318133,6.00962397 C49.2913106,6.62888095 49.1449665,6.79654172 49.245767,7.47290356 C49.3465675,8.14926539 49.9880067,8.66851935 51.4691478,8.82624036 C52.9502889,8.98396137 53.8483521,8.87032538 54.4490682,8.96917679 C55.0497842,9.0680282 55.1734001,9.03409953 55.5859769,9.29182886 C55.8133588,9.43387022 56.1699241,9.82070751 56.3473156,10.3640494 C56.4917951,10.8065834 56.5028304,11.3950924 56.3473156,11.6961055 C56.1710117,12.0373579 55.6895071,12.5265294 55.0398483,12.8022542 C54.4128603,13.0683572 53.6233084,13.126777 53.123407,13.1441104 C52.1055284,13.179404 51.5184904,12.9357351 51.0747507,12.8022542 C50.631011,12.6687734 50.6266959,12.6118802 50.2640815,12.2840001 C49.9014671,11.9561199 49.9111127,11.91945 49.6318133,11.4975336 C49.4456137,11.216256 49.2833314,10.9148908 49.1449665,10.5934379" id="Path-41" stroke-width="1.4" stroke-linecap="round"></path>
                    <line x1="49.3615792" y1="12.92579" x2="49.1449665" y2="10.8690674" id="Path-42" stroke-width="1.6" stroke-linecap="round"></line>
                    <line x1="55.8333004" y1="4.92057409" x2="55.8767444" y2="6.61658438" id="Path-44" stroke-width="1.4" stroke-linecap="round"></line>
                    <line x1="49.5039903" y1="13.147565" x2="50.501995" y2="12.6078424" id="Path-45"></line>
                    <line x1="55.6725943" y1="4.79059072" x2="54.4786491" y2="5.4422252" id="Path-46" stroke-linecap="round"></line>
                </g>
                <g id="wood" transform="translate(150.000000, 3.000000)">
                    <line x1="2.22044605e-14" y1="4.12191339" x2="2.97981123" y2="4.12191339" id="Path-19" stroke-width="1.4" stroke-linecap="round"></line>
                    <line x1="8" y1="4.12191339" x2="10.9798112" y2="4.12191339" id="Path-19" stroke-width="1.4" stroke-linecap="round"></line>
                    <path d="M0.75578555,4.12191339 C2.19604443,8.9117842 3.05749411,11.5442055 3.34013461,12.0191774 C3.62017227,12.4897752 3.42515805,12.7976943 3.80069121,12.0191774 C4.27024075,11.0457554 4.9891613,7.68890113 5.45875425,6.55504623 C5.60572218,6.20018504 5.80655977,6.00859831 6.03333593,6.60265705 C6.24605863,7.15990162 6.9638138,10.7192979 7.29745409,11.8094635 C7.45957132,12.3391795 7.53848059,12.109507 7.63582745,11.8401366 C7.94164552,10.9939015 8.79472858,8.42116045 10.1950766,4.12191339" id="Path-20" stroke-width="1.4"></path>
                    <ellipse id="Oval" stroke-width="1.3" cx="16.9888476" cy="7.92191339" rx="4.35" ry="3.85"></ellipse>
                    <ellipse id="Oval" stroke-width="1.3" cx="27.9888476" cy="7.92191339" rx="4.35" ry="3.85"></ellipse>
                    <g id="letter-d" transform="translate(34.288848, 0.000000)">
                        <circle id="Oval" stroke-width="1.4" cx="4.5" cy="7.92191339" r="3.8"></circle>
                        <line x1="6.9" y1="0.5" x2="8.7" y2="0.5" id="Path-29" stroke-width="1.4" stroke-linecap="round"></line>
                        <line x1="8.6699184" y1="11.8219134" x2="10.2" y2="11.8219134" id="Path-29" stroke-width="1.4" stroke-linecap="round"></line>
                        <line x1="8.7" y1="0.621913385" x2="8.7" y2="11.7985874" id="Path-30" stroke-width="1.5" stroke-linecap="round"></line>
                    </g>
                </g>
                <g id="little-man" transform="translate(124.903346, 3.000000)">
                    <polyline id="Path-2" points="-1.14480465e-13 6.46274508 6.57086918 6.46274508 7.35653588 10.8566668 6.57086918 12.7915596"></polyline>
                    <path d="M6.57086918,6.46274508 C6.57086918,6.46274508 7.11515713,5.66938417 8.20373304,4.08266235 L8.91541575,-5.10702591e-14" id="Path-3"></path>
                    <line x1="7.74314247" y1="4.75308116" x2="11.4088102" y2="4.75308116" id="Path-4"></line>
                    <path d="" id="Path-5"></path>
                    <path d="M8.40312454,2.75053593 C8.45835497,3.55037125 7.44984924,4.12834896 7.50507967,4.92818427" id="Path-6"></path>
                    <path d="M7.06178588,5.98424164 C4.83045932,5.99474722 2.59913316,6.00525278 0.367806602,6.01575836" id="Path-7" stroke-opacity="0.4"></path>
                    <path d="M7.56689765,5.19710151 C7.53420501,6.86376818 7.25662608,8.44995947 7.22393344,10.1166261" id="Path-8" stroke-opacity="0.4"></path>
                </g>
                <g id="metolius" transform="translate(0.000000, 7.000000)">
                    <path d="M0.308748902,5.53619449 C5.26569204,-1.3281784 3.3331204,-1.55865777 8.24748889,5.53619449" id="Path-15" stroke-width="2"></path>
                    <path d="M6.87498903,5.27532073 C15.7114477,-0.653630403 15.8661809,-1.79635901 13.8069648,6.87457594" id="Path-16" stroke-width="2"></path>
                    <polyline id="Path-17" stroke-width="1.75" points="31.4773009 2.11113309 21.2924735 1.96433175 19.6848646 6.27691826 30.9401436 6.63142729"></polyline>
                    <line x1="20.7588045" y1="4.20566072" x2="30.3753941" y2="4.44611422" id="Path-18" stroke-width="1.75"></line>
                    <path d="M35.2538561,1.70596949 C39.6534432,1.64274523 44.0530303,1.57952096 48.4526174,1.5162967" id="Path-21" stroke-width="2"></path>
                    <path d="M41.0681454,1.61113309 C40.5814388,3.0726737 40.5571132,5.53845939 40.0704067,7 L41.0681454,1.61113309 Z" id="Path-22" stroke-width="3"></path>
                    <path d="M58.0504792,0.797168562 C57.1114427,0.958575245 53.5061408,2.20496407 52.7696749,2.83419155 C51.1573919,4.21170653 54.2083887,5.18654426 58.306109,5.04362526 C61.819595,4.921083 64.3345228,4.31590093 64.0418068,3.21573152 C63.8509761,2.49849655 63.5582645,1.66692244 59.0720804,0.828027089 C59.0263845,0.807454738 58.6858507,0.797168562 58.0504792,0.797168562 Z" id="Path-23" stroke-width="2"></path>
                    <path d="M71.7176568,0.0891544227 C71.0499539,1.50741571 69.6632517,1.19793365 69.8521256,5.14324645" id="Path-24" stroke-width="3"></path>
                    <path d="M68.3521256,4.87627699 C71.1697299,4.87821197 73.9873343,4.88014696 76.8049386,4.88208194" id="Path-25" stroke-width="2"></path>
                    <path d="M82.7905445,5.69570571 C83.2216448,4.81148889 84.0833128,3.90766317 84.5144131,3.02344635 C84.951887,2.12615693 84.9587931,1.24847641 85.3962669,0.351186991" id="Path-26" stroke-width="3"></path>
                    <path d="M93.6079752,0.351186991 C92.4891904,2.24108085 92.078673,3.46714868 92.376423,4.02939049 C92.674173,4.5916323 93.9306108,4.96291762 96.1457366,5.14324645 C97.6029956,5.33550797 98.7568747,5.24748564 99.607374,4.87917947 C101.320789,3.69748316 102.483011,2.18815234 103.094041,0.351186991" id="Path-27" stroke-width="2"></path>
                    <path d="M118.23373,1.3 C118.506803,0.455777094 118.506803,0.480179811 118.23373,0.206974969 C117.960657,-0.0662298719 111.225347,0.255918833 110.182027,0.351186991 C109.48648,0.414699096 109.04458,0.69704295 108.856329,1.19821855 C108.487557,1.5909729 108.487557,1.97134581 108.856329,2.33933729 C109.409487,2.8913245 115.265591,2.7856774 116.434418,3.02344635 C117.213636,3.18195898 117.779669,3.64193371 118.132518,4.40337053 C118.483917,4.96256232 117.917884,5.39334071 116.434418,5.69570571 C114.20922,6.14925321 109.913257,5.52478835 108.954077,5.38347328 C108.314624,5.28926323 107.796296,5.13337908 107.399093,4.91582081" id="Path-28" stroke-width="2"></path>
                </g>
            </g>
        </g>
    </g>
</svg>