<?xml version="1.0" encoding="UTF-8"?>
<svg width="948px" height="243px" viewBox="0 0 948 243" version="1.1" xmlns="http://www.w3.org/2000/svg" xmlns:xlink="http://www.w3.org/1999/xlink">
    <title>board</title>
    <g id="Page-1" stroke="none" stroke-width="1" fill="none" fill-rule="evenodd">
        <g id="board" transform="translate(1.686389, 1.000000)">
            <g id="right" transform="translate(699.813611, 137.000000) scale(-1, 1) translate(-699.813611, -137.000000) translate(482.313611, 54.000000)" fill="#979797" stroke="#979797">
                <path d="M303.264159,129.5 C305.752735,129.500005 308.079254,130.734395 309.474499,132.79505 C312.659057,137.49836 314.259628,142.231809 314.259628,147 C314.259628,151.768193 312.659056,156.501643 309.474496,161.204954 C308.079249,163.26561 305.75273,164.5 303.264153,164.5 L303.264153,164.5 L257.191758,164.5 C255.685201,164.500001 254.213564,164.046282 252.968556,163.19795 C247.217624,159.279339 244.340558,153.880582 244.340558,147 C244.340558,140.119414 247.217627,134.720655 252.968565,130.802044 C254.213576,129.953718 255.685211,129.5 257.191766,129.5 L257.191766,129.5 Z" id="16"></path>
            </g>
        </g>
    </g>
</svg>
