<?xml version="1.0" encoding="UTF-8"?>
<svg width="948px" height="243px" viewBox="0 0 948 243" version="1.1" xmlns="http://www.w3.org/2000/svg" xmlns:xlink="http://www.w3.org/1999/xlink">
    <title>board</title>
    <g id="Page-1" stroke="none" stroke-width="1" fill="none" fill-rule="evenodd">
        <g id="board" transform="translate(1.686389, 1.000000)">
            <g id="background" stroke="#979797">
                <path d="M177.784314,240.464844 C160.075317,240.871839 145.952921,240.871839 135.417127,240.464844 C124.881332,240.057848 113.403467,239.068916 100.983533,237.498047 C83.964071,233.876823 72.1294355,230.252474 65.4796265,226.625 C50.1648556,218.270786 39.3273243,207.450425 32.1007203,198.966797 C25.2368194,190.908962 15.86762,179.6291 9.64759528,163.644531 C8.17134478,159.85078 6.49753621,155.17549 4.82923591,148.433594 C4.2318667,146.019519 0.0783830109,132.372225 0,118.58318 C-0.0705556709,104.784243 3.93452422,90.8432895 4.82923591,87.703125 C10.0870858,69.2496794 18.0832514,56.8216519 26.0675172,47.328125 C32.9801074,39.1088518 40.4123457,29.4747597 55.8116578,20.3105469 C60.0133829,17.8100778 66.0734211,12.007599 74.7569703,8.1640625 C78.3038081,6.59415138 81.9470487,4.14891317 92.119275,1.88183594 C95.5443339,1.11849535 102.202283,0 106.737439,0 C111.272595,0 170.660425,0 177.784314,0 C184.908203,0 186.993527,3.12398929 187.546033,4.98242188 C187.91437,6.22137693 187.91437,11.3307519 187.546033,20.3105469 L200.229943,20.3105469 C202.763651,19.8526769 204.54755,19.4184862 205.581639,19.0079748 C206.615728,18.5974633 207.882102,17.8207604 209.380762,16.6778658 C222.456058,7.7183864 229.594154,3.0027969 230.795049,2.53109731 C232.885826,1.70986104 234.543055,1.2992429 235.766736,1.2992429 L472.313611,1.2992429 L708.860486,1.2992429 C710.084167,1.2992429 711.741396,1.70986104 713.832173,2.53109731 C715.033068,3.0027969 722.171164,7.7183864 735.24646,16.6778658 C736.745119,17.8207604 738.011494,18.5974633 739.045583,19.0079748 C740.079672,19.4184862 741.86357,19.8526769 744.397278,20.3105469 L757.081189,20.3105469 C756.712852,11.3307519 756.712852,6.22137693 757.081189,4.98242188 C757.633695,3.12398929 759.719019,0 766.842908,0 C773.966797,0 833.354627,0 837.889783,0 C842.424939,0 849.082888,1.11849535 852.507947,1.88183594 C862.680173,4.14891317 866.323414,6.59415138 869.870252,8.1640625 C878.553801,12.007599 884.613839,17.8100778 888.815564,20.3105469 C904.214876,29.4747597 911.647114,39.1088518 918.559705,47.328125 C926.54397,56.8216519 934.540136,69.2496794 939.797986,87.703125 C940.692698,90.8432895 944.697777,104.784243 944.627222,118.58318 C944.548839,132.372225 940.395355,146.019519 939.797986,148.433594 C938.129686,155.17549 936.455877,159.85078 934.979627,163.644531 C928.759602,179.6291 919.390402,190.908962 912.526502,198.966797 C905.299897,207.450425 894.462366,218.270786 879.147595,226.625 C872.497786,230.252474 860.663151,233.876823 843.643689,237.498047 C831.223755,239.068916 819.74589,240.057848 809.210095,240.464844 C798.6743,240.871839 784.551905,240.871839 766.842908,240.464844 L472.313611,240.464844 L177.784314,240.464844 Z" id="Path" fill="#D8D8D8"></path>
                <path d="M349.681575,1.2132872 L349.681575,55.6513218 C349.300065,57.6970501 348.753087,59.036567 348.040641,59.6698724 C347.328195,60.3031779 345.789503,60.8176495 343.424564,61.2132872 L194.257249,55.6513218 C192.040004,55.5842418 190.525593,55.3168912 189.714016,54.8492702 C188.902439,54.3816491 188.224959,53.3860581 187.681575,51.8624969 L187.681575,20.4925685" id="Path-2"></path>
                <path d="M756.913611,1.21 L756.913611,55.6480346 C756.532101,57.6937629 755.985123,59.0332798 755.272677,59.6665852 C754.560231,60.2998907 753.021538,60.8143623 750.656599,61.21 L601.489284,55.6480346 C599.27204,55.5809546 597.757629,55.313604 596.946052,54.845983 C596.134475,54.3783619 595.456994,53.3827709 594.913611,51.8592097 L594.913611,20.4892813" id="Path-2" transform="translate(675.913611, 31.210000) scale(-1, 1) translate(-675.913611, -31.210000) "></path>
                <path d="M-5.68434189e-14,125.634258 C2.77940982,136.780742 5.4955128,144.805394 8.14830893,149.708213 C10.0639276,153.248602 14.3921727,162.007345 20.397321,166.880994 C26.8662896,172.13107 35.0580139,173.389854 37.7925997,173.782168 C41.3080022,174.286502 46.8770009,174.286502 54.4995958,173.782168 L472.313611,173.782168 L472.313611,173.777911 L890.127626,173.777911 C897.750221,174.282244 903.31922,174.282244 906.834622,173.777911 C909.569208,173.385596 917.760932,172.126812 924.229901,166.876737 C930.235049,162.003088 934.563294,153.244345 936.478913,149.703955 C939.131709,144.801137 941.847812,136.776485 944.627222,125.63" id="Path-3"></path>
            </g>
            <g id="top" transform="translate(42.528455, 0.000000)">
                <path d="M714,31.2132872 C729.239052,18.4094951 739.753094,10.7264202 745.542127,8.1640625 C749.088964,6.59415138 752.732205,4.14891317 762.904431,1.88183594 C766.32949,1.11849535 772.987439,0 777.522595,0 C782.057752,0 841.445581,0 848.56947,0 C855.693359,0 857.778683,3.12398929 858.331189,4.98242188 C858.699526,6.22137693 859.521458,22.2334923 859.153121,31.2132872 L714,31.2132872 Z" id="22" transform="translate(786.622978, 15.606644) scale(-1, 1) translate(-786.622978, -15.606644) "></path>
                <path d="M714.153121,1.2132872 L714.153121,55.6513218 C713.771611,57.6970501 713.224633,59.036567 712.512187,59.6698724 C711.799741,60.3031779 710.261048,60.8176495 707.896109,61.2132872 L558.728794,55.6513218 C556.511549,55.5842418 554.997139,55.3168912 554.185562,54.8492702 C553.373984,54.3816491 552.696504,53.3860581 552.153121,51.8624969 L552.153121,20.4925685 C558.782122,20.6330029 563.305896,20.5095368 565.724443,20.1221702 C568.14299,19.7348036 569.585904,19.3634051 570.053184,19.0079748 C585.068933,9.09975953 593.225668,3.76498366 594.52339,3.00364715 C596.469974,1.86164237 598.761629,1.2992429 600.238281,1.2992429 L714.153121,1.2132872 Z" id="21" transform="translate(633.153121, 31.213287) scale(-1, 1) translate(-633.153121, -31.213287) "></path>
                <polygon id="20" points="307.153121 1.2132872 552.153121 1.21 552.385156 49.0437367 307.153121 49.0437367"></polygon>
                <path d="M307.153121,1.2132872 L307.153121,55.6513218 C306.771611,57.6970501 306.224633,59.036567 305.512187,59.6698724 C304.799741,60.3031779 303.261048,60.8176495 300.896109,61.2132872 L151.728794,55.6513218 C149.511549,55.5842418 147.997139,55.3168912 147.185562,54.8492702 C146.373984,54.3816491 145.696504,53.3860581 145.153121,51.8624969 L145.153121,20.4925685 C151.782122,20.6330029 156.305896,20.5095368 158.724443,20.1221702 C161.14299,19.7348036 162.585904,19.3634051 163.053184,19.0079748 C178.068933,9.09975953 186.225668,3.76498366 187.52339,3.00364715 C189.469974,1.86164237 191.761629,1.2992429 193.238281,1.2992429 L307.153121,1.2132872 Z" id="19"></path>
                <path d="M0,31.2132872 C15.2390515,18.4094951 25.7530937,10.7264202 31.5421265,8.1640625 C35.0889643,6.59415138 38.732205,4.14891317 48.9044312,1.88183594 C52.3294902,1.11849535 58.987439,2.84217094e-14 63.5225953,2.84217094e-14 C68.0577515,2.84217094e-14 127.445581,2.84217094e-14 134.56947,2.84217094e-14 C141.693359,2.84217094e-14 143.778683,3.12398929 144.331189,4.98242188 C144.699526,6.22137693 145.521458,22.2334923 145.153121,31.2132872 L0,31.2132872 Z" id="18"></path>
            </g>
            <g id="right" transform="translate(699.813611, 137.000000) scale(-1, 1) translate(-699.813611, -137.000000) translate(482.313611, 54.000000)" fill="#D8D8D8" stroke="#979797">
                <path d="M208.639067,130.5 C210.35972,130.499997 212.02805,131.091637 213.364265,132.175693 C219.817219,137.410907 223.096217,142.673281 223.096217,148 C223.096217,153.326718 219.817221,158.589089 213.364271,163.824302 C212.028057,164.90836 210.359727,165.5 208.639074,165.5 L208.639074,165.5 L91.3230598,165.5 C90.2527044,165.499996 89.1947474,165.270894 88.2202833,164.828084 C83.8346751,162.835204 80.5390573,160.433019 78.3454776,157.607375 C76.1784341,154.815913 75.0962174,151.613153 75.0962174,148 C75.0962174,144.386845 76.1784352,141.184083 78.3454809,138.39262 C80.539063,135.566975 83.8346842,133.16479 88.2202963,131.17191 C89.1947604,130.729102 90.2527165,130.5 91.323071,130.5 L91.323071,130.5 Z" id="17"></path>
                <path d="M303.264159,129.5 C305.752735,129.500005 308.079254,130.734395 309.474499,132.79505 C312.659057,137.49836 314.259628,142.231809 314.259628,147 C314.259628,151.768193 312.659056,156.501643 309.474496,161.204954 C308.079249,163.26561 305.75273,164.5 303.264153,164.5 L303.264153,164.5 L257.191758,164.5 C255.685201,164.500001 254.213564,164.046282 252.968556,163.19795 C247.217624,159.279339 244.340558,153.880582 244.340558,147 C244.340558,140.119414 247.217627,134.720655 252.968565,130.802044 C254.213576,129.953718 255.685211,129.5 257.191766,129.5 L257.191766,129.5 Z" id="16"></path>
                <path d="M422.698733,130.5 C425.100403,130.499998 427.356814,131.650171 428.767832,133.593634 C432.230659,138.36315 433.972593,143.163241 433.972593,148 C433.972593,152.836758 432.23066,157.636847 428.767834,162.406363 C427.356818,164.349827 425.100407,165.5 422.698737,165.5 L422.698737,165.5 L349.828936,165.5 C348.09532,165.499996 346.415239,164.899423 345.074474,163.800435 C340.333883,159.9147 337.972593,154.644904 337.972593,148 C337.972593,141.355093 340.333886,136.085295 345.074482,132.199559 C346.415246,131.100573 348.095327,130.5 349.828942,130.5 L349.828942,130.5 Z" id="15"></path>
                <path d="M122.991905,59.5 C124.847293,59.5000015 126.636825,60.1877315 128.014687,61.4302925 C133.727291,66.5819379 136.6228,71.7627743 136.6228,77 C136.6228,82.2372265 133.72729,87.4180636 128.014685,92.5697096 C126.636822,93.81227 124.84729,94.5 122.991903,94.5 L122.991903,94.5 L13.1579406,94.5 C11.6128383,94.500005 10.105443,94.0227965 8.8418346,93.1336201 C3.28006841,89.2199149 0.5,83.8417585 0.5,77 C0.5,70.1582459 3.2800648,64.780092 8.84182406,60.8663873 C10.1054323,59.9772091 11.6128285,59.5 13.1579316,59.5 L13.1579316,59.5 Z" id="14"></path>
                <path d="M218.22765,59.5 C220.346676,59.4999955 222.366814,60.396391 223.788657,61.9675794 C228.290967,66.9427963 230.56358,71.9489687 230.56358,77 C230.56358,82.0510302 228.290968,87.0572014 223.78866,92.0324172 C222.366818,93.6036049 220.34668,94.5 218.227655,94.5 L218.227655,94.5 L173.836849,94.5 C172.046925,94.4999943 170.316017,93.8598463 168.956821,92.6951952 C164.433324,88.8191584 162.182099,83.5840005 162.182099,77 C162.182099,70.4159932 164.433328,65.1808316 168.956833,61.3047942 C170.316031,60.140147 172.046938,59.5 173.83686,59.5 L173.83686,59.5 Z" id="13"></path>
                <path d="M339.575665,59.5 C341.612698,59.5000025 343.562105,60.328586 344.975734,61.7952689 C349.984853,66.992384 352.515426,72.2215334 352.515426,77.5 C352.515426,82.7784655 349.984854,88.0076138 344.975736,93.2047286 C343.56211,94.6714157 341.612701,95.5 339.575666,95.5 L339.575666,95.5 L269.341428,95.5 C268.112372,95.5000046 266.902151,95.1979559 265.817234,94.620432 C261.709018,92.4335422 258.622278,89.8691163 256.567571,86.9159777 C254.531724,83.989944 253.515426,80.6842719 253.515426,77 C253.515426,73.2946892 254.543417,70.0435684 256.606394,67.2490221 C258.688123,64.4290732 261.815955,62.0763408 265.97783,60.1769601 C266.955315,59.7308655 268.017238,59.5 269.091704,59.5 L269.091704,59.5 Z" id="12"></path>
                <path d="M131.753808,0.5 C133.713974,0.499996667 135.596245,1.26739457 136.997658,2.63790282 C141.688673,7.22547004 144.065227,11.8391529 144.065227,16.5 C144.065227,21.1608474 141.688673,25.7745306 136.997658,30.3620976 C135.596244,31.7326027 133.713974,32.5 131.753809,32.5 L131.753809,32.5 L26.735107,32.5 C24.8520256,32.4999957 23.0378482,31.7916281 21.652998,30.5156242 C16.707738,25.9590511 14.2016877,21.2950452 14.2016877,16.5 C14.2016877,11.7049527 16.7077402,7.0409448 21.6530042,2.48437008 C23.0378555,1.20836753 24.8520328,0.5 26.7351142,0.5 L26.7351142,0.5 Z" id="11"></path>
                <path d="M418.535558,1.5 C420.58056,1.50000066 422.536882,2.33505967 423.951529,3.81181593 C428.766503,8.83819086 431.199531,13.8952755 431.199531,19 C431.199531,24.1047231 428.766504,29.1618062 423.951532,34.1881804 C422.536888,35.6649404 420.580565,36.5 418.535561,36.5 L418.535561,36.5 L348.775191,36.5 C347.628711,36.5000031 346.497492,36.2371641 345.46846,35.7316841 C341.422377,33.7441707 338.381793,31.3540527 336.358057,28.5487521 C334.353801,25.7704546 333.354074,22.5870069 333.354074,19 C333.354074,15.4129933 334.353801,12.2295456 336.358057,9.45124813 C338.381793,6.64594766 341.422377,4.25582971 345.468459,2.26831673 C346.497491,1.76283897 347.628711,1.5 348.77519,1.5 L348.77519,1.5 Z" id="10"></path>
            </g>
            <g id="middle" transform="translate(398.177150, 113.000000)" fill="#D8D8D8" stroke="#979797">
                <path d="M132.197861,0.5 C134.063195,0.499999661 135.861589,1.19510694 137.242024,2.44964669 C142.721766,7.42963867 145.5,12.4375696 145.5,17.5 C145.5,22.5624284 142.721768,27.5703575 137.24203,32.5503484 C135.861597,33.8048923 134.063201,34.5 132.197866,34.5 L132.197866,34.5 L14.0676313,34.5 C12.2782752,34.4999962 10.5478777,33.8602534 9.18885597,32.6962708 C3.42385273,27.7586281 0.5,22.7031175 0.5,17.5 C0.5,12.2968798 3.42385575,7.2413667 9.18886426,2.30372214 C10.5478878,1.13974261 12.2782847,0.5 14.0676403,0.5 L14.0676403,0.5 L132.197861,0.5 Z" id="6"></path>
            </g>
            <g id="left" transform="translate(24.841018, 54.000000)" fill="#D8D8D8" stroke="#979797">
                <path d="M422.698733,130.5 C425.100403,130.499998 427.356814,131.650171 428.767832,133.593634 C432.230659,138.36315 433.972593,143.163241 433.972593,148 C433.972593,152.836758 432.23066,157.636847 428.767834,162.406363 C427.356818,164.349827 425.100407,165.5 422.698737,165.5 L422.698737,165.5 L349.828936,165.5 C348.09532,165.499996 346.415239,164.899423 345.074474,163.800435 C340.333883,159.9147 337.972593,154.644904 337.972593,148 C337.972593,141.355093 340.333886,136.085295 345.074482,132.199559 C346.415246,131.100573 348.095327,130.5 349.828942,130.5 L349.828942,130.5 Z" id="9"></path>
                <path d="M303.264159,129.5 C305.752735,129.500005 308.079254,130.734395 309.474499,132.79505 C312.659057,137.49836 314.259628,142.231809 314.259628,147 C314.259628,151.768193 312.659056,156.501643 309.474496,161.204954 C308.079249,163.26561 305.75273,164.5 303.264153,164.5 L303.264153,164.5 L257.191758,164.5 C255.685201,164.500001 254.213564,164.046282 252.968556,163.19795 C247.217624,159.279339 244.340558,153.880582 244.340558,147 C244.340558,140.119414 247.217627,134.720655 252.968565,130.802044 C254.213576,129.953718 255.685211,129.5 257.191766,129.5 L257.191766,129.5 Z" id="8"></path>
                <path d="M208.639067,130.5 C210.35972,130.499997 212.02805,131.091637 213.364265,132.175693 C219.817219,137.410907 223.096217,142.673281 223.096217,148 C223.096217,153.326718 219.817221,158.589089 213.364271,163.824302 C212.028057,164.90836 210.359727,165.5 208.639074,165.5 L208.639074,165.5 L91.3230598,165.5 C90.2527044,165.499996 89.1947474,165.270894 88.2202833,164.828084 C83.8346751,162.835204 80.5390573,160.433019 78.3454776,157.607375 C76.1784341,154.815913 75.0962174,151.613153 75.0962174,148 C75.0962174,144.386845 76.1784352,141.184083 78.3454809,138.39262 C80.539063,135.566975 83.8346842,133.16479 88.2202963,131.17191 C89.1947604,130.729102 90.2527165,130.5 91.323071,130.5 L91.323071,130.5 Z" id="7"></path>
                <path d="M339.575665,59.5 C341.612698,59.5000025 343.562105,60.328586 344.975734,61.7952689 C349.984853,66.992384 352.515426,72.2215334 352.515426,77.5 C352.515426,82.7784655 349.984854,88.0076138 344.975736,93.2047286 C343.56211,94.6714157 341.612701,95.5 339.575666,95.5 L339.575666,95.5 L269.341428,95.5 C268.112372,95.5000046 266.902151,95.1979559 265.817234,94.620432 C261.709018,92.4335422 258.622278,89.8691163 256.567571,86.9159777 C254.531724,83.989944 253.515426,80.6842719 253.515426,77 C253.515426,73.2946892 254.543417,70.0435684 256.606394,67.2490221 C258.688123,64.4290732 261.815955,62.0763408 265.97783,60.1769601 C266.955315,59.7308655 268.017238,59.5 269.091704,59.5 L269.091704,59.5 Z" id="5"></path>
                <path d="M218.22765,59.5 C220.346676,59.4999955 222.366814,60.396391 223.788657,61.9675794 C228.290967,66.9427963 230.56358,71.9489687 230.56358,77 C230.56358,82.0510302 228.290968,87.0572014 223.78866,92.0324172 C222.366818,93.6036049 220.34668,94.5 218.227655,94.5 L218.227655,94.5 L173.836849,94.5 C172.046925,94.4999943 170.316017,93.8598463 168.956821,92.6951952 C164.433324,88.8191584 162.182099,83.5840005 162.182099,77 C162.182099,70.4159932 164.433328,65.1808316 168.956833,61.3047942 C170.316031,60.140147 172.046938,59.5 173.83686,59.5 L173.83686,59.5 Z" id="4"></path>
                <path d="M122.991905,59.5 C124.847293,59.5000015 126.636825,60.1877315 128.014687,61.4302925 C133.727291,66.5819379 136.6228,71.7627743 136.6228,77 C136.6228,82.2372265 133.72729,87.4180636 128.014685,92.5697096 C126.636822,93.81227 124.84729,94.5 122.991903,94.5 L122.991903,94.5 L13.1579406,94.5 C11.6128383,94.500005 10.105443,94.0227965 8.8418346,93.1336201 C3.28006841,89.2199149 0.5,83.8417585 0.5,77 C0.5,70.1582459 3.2800648,64.780092 8.84182406,60.8663873 C10.1054323,59.9772091 11.6128285,59.5 13.1579316,59.5 L13.1579316,59.5 Z" id="3"></path>
                <path d="M418.535558,1.5 C420.58056,1.50000066 422.536882,2.33505967 423.951529,3.81181593 C428.766503,8.83819086 431.199531,13.8952755 431.199531,19 C431.199531,24.1047231 428.766504,29.1618062 423.951532,34.1881804 C422.536888,35.6649404 420.580565,36.5 418.535561,36.5 L418.535561,36.5 L348.775191,36.5 C347.628711,36.5000031 346.497492,36.2371641 345.46846,35.7316841 C341.422377,33.7441707 338.381793,31.3540527 336.358057,28.5487521 C334.353801,25.7704546 333.354074,22.5870069 333.354074,19 C333.354074,15.4129933 334.353801,12.2295456 336.358057,9.45124813 C338.381793,6.64594766 341.422377,4.25582971 345.468459,2.26831673 C346.497491,1.76283897 347.628711,1.5 348.77519,1.5 L348.77519,1.5 Z" id="2"></path>
                <path d="M131.753808,0.5 C133.713974,0.499996667 135.596245,1.26739457 136.997658,2.63790282 C141.688673,7.22547004 144.065227,11.8391529 144.065227,16.5 C144.065227,21.1608474 141.688673,25.7745306 136.997658,30.3620976 C135.596244,31.7326027 133.713974,32.5 131.753809,32.5 L131.753809,32.5 L26.735107,32.5 C24.8520256,32.4999957 23.0378482,31.7916281 21.652998,30.5156242 C16.707738,25.9590511 14.2016877,21.2950452 14.2016877,16.5 C14.2016877,11.7049527 16.7077402,7.0409448 21.6530042,2.48437008 C23.0378555,1.20836753 24.8520328,0.5 26.7351142,0.5 L26.7351142,0.5 Z" id="1"></path>
            </g>
            <text id="1000-series" fill="#979797" fill-rule="nonzero" font-family="Helvetica-Bold, Helvetica" font-size="25" font-weight="bold" line-spacing="25">
                <tspan x="599.313611" y="98">1000 series</tspan>
            </text>
            <text id="beastmaker" fill="#979797" fill-rule="nonzero" font-family="Helvetica-Bold, Helvetica" font-size="25" font-weight="bold" line-spacing="25">
                <tspan x="201.813611" y="98">beastmaker</tspan>
            </text>
        </g>
    </g>
</svg>
