<?xml version="1.0" encoding="UTF-8"?>
<svg width="475px" height="119px" viewBox="0 0 475 119" version="1.1" xmlns="http://www.w3.org/2000/svg" xmlns:xlink="http://www.w3.org/1999/xlink">
    <title>crusher_3</title>
    <g id="Page-1" stroke="none" stroke-width="1" fill="none" fill-rule="evenodd">
        <g id="board" transform="translate(0.000000, -0.000000)">
            <g id="background" transform="translate(0.000000, 0.000000)">
                <path d="M141.703796,0.5 L146.483405,4.47495032 L328.582713,4.47495032 L333.298089,0.5 L467,0.5 C469.071068,0.5 470.946068,1.33946609 472.303301,2.69669914 C473.660534,4.05393219 474.5,5.92893219 474.5,8 L474.5,8 L474.5,111 C474.5,113.071068 473.660534,114.946068 472.303301,116.303301 C470.946068,117.660534 469.071068,118.5 467,118.5 L467,118.5 L8,118.5 C5.92893219,118.5 4.05393219,117.660534 2.69669914,116.303301 C1.33946609,114.946068 0.5,113.071068 0.5,111 L0.5,111 L0.5,8 C0.5,5.92893219 1.33946609,4.05393219 2.69669914,2.69669914 C4.05393219,1.33946609 5.92893219,0.5 8,0.5 L8,0.5 L141.703796,0.5 Z" stroke="#979797" fill="#D8D8D8"></path>
                <path d="M90.2174741,18.6475651 C90.4894741,18.6475651 90.7334741,18.6222318 90.9494741,18.5715651 C91.1654741,18.5208985 91.3694741,18.4475651 91.5614741,18.3515651 L91.5614741,18.3515651 L91.4094741,17.8395651 C91.0574741,18.0102318 90.6628074,18.0955651 90.2254741,18.0955651 C89.6121407,18.0955651 89.1348074,17.9022318 88.7934741,17.5155651 C88.4521407,17.1288985 88.2814741,16.5835651 88.2814741,15.8795651 C88.2814741,15.1648985 88.4534741,14.6155651 88.7974741,14.2315651 C89.1414741,13.8475651 89.6201407,13.6555651 90.2334741,13.6555651 C90.6601407,13.6555651 91.0361407,13.7302318 91.3614741,13.8795651 L91.3614741,13.8795651 L91.5134741,13.3675651 C91.3374741,13.2875651 91.1481407,13.2248985 90.9454741,13.1795651 C90.7428074,13.1342318 90.5028074,13.1115651 90.2254741,13.1115651 C89.8148074,13.1115651 89.4521407,13.1795651 89.1374741,13.3155651 C88.8228074,13.4515651 88.5574741,13.6408985 88.3414741,13.8835651 C88.1254741,14.1262318 87.9614741,14.4182318 87.8494741,14.7595651 C87.7374741,15.1008985 87.6814741,15.4742318 87.6814741,15.8795651 C87.6814741,16.2955651 87.7321407,16.6742318 87.8334741,17.0155651 C87.9348074,17.3568985 88.0894741,17.6475651 88.2974741,17.8875651 C88.5054741,18.1275651 88.7681407,18.3142318 89.0854741,18.4475651 C89.4028074,18.5808985 89.7801407,18.6475651 90.2174741,18.6475651 Z M93.0734741,18.5755651 L93.0734741,15.9115651 C93.1801407,15.6875651 93.3201407,15.5142318 93.4934741,15.3915651 C93.6668074,15.2688985 93.8628074,15.2075651 94.0814741,15.2075651 C94.2681407,15.2075651 94.4174741,15.2555651 94.5294741,15.3515651 L94.5294741,15.3515651 L94.6974741,14.7675651 C94.6814741,14.7568985 94.6308074,14.7328985 94.5454741,14.6955651 C94.4601407,14.6582318 94.3374741,14.6395651 94.1774741,14.6395651 C94.0388074,14.6395651 93.9148074,14.6622318 93.8054741,14.7075651 C93.6961407,14.7528985 93.5961407,14.8115651 93.5054741,14.8835651 C93.4148074,14.9555651 93.3334741,15.0368985 93.2614741,15.1275651 C93.1894741,15.2182318 93.1268074,15.3088985 93.0734741,15.3995651 L93.0734741,15.3995651 L92.9534741,14.7115651 L92.4814741,14.7115651 L92.4814741,18.5755651 L93.0734741,18.5755651 Z M96.6734741,18.6475651 C96.8548074,18.6475651 97.0188074,18.6235651 97.1654741,18.5755651 C97.3121407,18.5275651 97.4428074,18.4675651 97.5574741,18.3955651 C97.6721407,18.3235651 97.7708074,18.2422318 97.8534741,18.1515651 C97.9361407,18.0608985 98.0014741,17.9755651 98.0494741,17.8955651 L98.0494741,17.8955651 L98.1694741,18.5755651 L98.6414741,18.5755651 L98.6414741,14.7115651 L98.0494741,14.7115651 L98.0494741,17.3435651 C97.9854741,17.4448985 97.9094741,17.5435651 97.8214741,17.6395651 C97.7334741,17.7355651 97.6361407,17.8195651 97.5294741,17.8915651 C97.4228074,17.9635651 97.3054741,18.0208985 97.1774741,18.0635651 C97.0494741,18.1062318 96.9134741,18.1275651 96.7694741,18.1275651 C96.5294741,18.1275651 96.3401407,18.0408985 96.2014741,17.8675651 C96.0628074,17.6942318 95.9934741,17.4502318 95.9934741,17.1355651 L95.9934741,17.1355651 L95.9934741,14.7115651 L95.4174741,14.7115651 L95.4174741,17.1355651 C95.4174741,17.6635651 95.5348074,18.0475651 95.7694741,18.2875651 C96.0041407,18.5275651 96.3054741,18.6475651 96.6734741,18.6475651 Z M100.857474,18.6475651 C101.358807,18.6475651 101.726807,18.5502318 101.961474,18.3555651 C102.196141,18.1608985 102.313474,17.9008985 102.313474,17.5755651 C102.313474,17.2395651 102.202807,16.9795651 101.981474,16.7955651 C101.760141,16.6115651 101.433474,16.4528985 101.001474,16.3195651 C100.761474,16.2448985 100.569474,16.1595651 100.425474,16.0635651 C100.281474,15.9675651 100.209474,15.8262318 100.209474,15.6395651 C100.209474,15.4795651 100.278807,15.3515651 100.417474,15.2555651 C100.556141,15.1595651 100.769474,15.1115651 101.057474,15.1115651 C101.244141,15.1115651 101.420141,15.1315651 101.585474,15.1715651 C101.750807,15.2115651 101.905474,15.2662318 102.049474,15.3355651 L102.049474,15.3355651 L102.185474,14.8795651 C102.030807,14.8048985 101.852141,14.7462318 101.649474,14.7035651 C101.446807,14.6608985 101.233474,14.6395651 101.009474,14.6395651 C100.593474,14.6395651 100.261474,14.7262318 100.013474,14.8995651 C99.7654741,15.0728985 99.6414741,15.3222318 99.6414741,15.6475651 C99.6414741,15.8182318 99.6694741,15.9648985 99.7254741,16.0875651 C99.7814741,16.2102318 99.8614741,16.3168985 99.9654741,16.4075651 C100.069474,16.4982318 100.192141,16.5755651 100.333474,16.6395651 C100.474807,16.7035651 100.630807,16.7595651 100.801474,16.8075651 C101.062807,16.8822318 101.284141,16.9742318 101.465474,17.0835651 C101.646807,17.1928985 101.737474,17.3542318 101.737474,17.5675651 C101.737474,17.7382318 101.668141,17.8835651 101.529474,18.0035651 C101.390807,18.1235651 101.158807,18.1835651 100.833474,18.1835651 C100.636141,18.1835651 100.444141,18.1622318 100.257474,18.1195651 C100.070807,18.0768985 99.9081407,18.0235651 99.7694741,17.9595651 L99.7694741,17.9595651 L99.6334741,18.3995651 C99.7774741,18.4795651 99.9561407,18.5408985 100.169474,18.5835651 C100.382807,18.6262318 100.612141,18.6475651 100.857474,18.6475651 Z M103.929474,18.5755651 L103.929474,15.8475651 C104.068141,15.6555651 104.248141,15.4942318 104.469474,15.3635651 C104.690807,15.2328985 104.937474,15.1675651 105.209474,15.1675651 C105.465474,15.1675651 105.668141,15.2555651 105.817474,15.4315651 C105.966807,15.6075651 106.041474,15.8475651 106.041474,16.1515651 L106.041474,16.1515651 L106.041474,18.5755651 L106.617474,18.5755651 L106.617474,16.1515651 C106.617474,15.6768985 106.501474,15.3062318 106.269474,15.0395651 C106.037474,14.7728985 105.716141,14.6395651 105.305474,14.6395651 C105.145474,14.6395651 104.993474,14.6608985 104.849474,14.7035651 C104.705474,14.7462318 104.574807,14.7995651 104.457474,14.8635651 C104.340141,14.9275651 104.236141,14.9995651 104.145474,15.0795651 C104.054807,15.1595651 103.982807,15.2368985 103.929474,15.3115651 L103.929474,15.3115651 L103.929474,13.1835651 L103.337474,13.1835651 L103.337474,18.5755651 L103.929474,18.5755651 Z M109.433474,18.6475651 C109.678807,18.6475651 109.901474,18.6248985 110.101474,18.5795651 C110.301474,18.5342318 110.484141,18.4688985 110.649474,18.3835651 L110.649474,18.3835651 L110.505474,17.9435651 C110.361474,18.0182318 110.198807,18.0742318 110.017474,18.1115651 C109.836141,18.1488985 109.657474,18.1675651 109.481474,18.1675651 C109.065474,18.1675651 108.746807,18.0582318 108.525474,17.8395651 C108.304141,17.6208985 108.177474,17.3115651 108.145474,16.9115651 L108.145474,16.9115651 L110.761474,16.9115651 C110.788141,16.8155651 110.809474,16.7115651 110.825474,16.5995651 C110.841474,16.4875651 110.849474,16.3675651 110.849474,16.2395651 C110.849474,15.7435651 110.721474,15.3528985 110.465474,15.0675651 C110.209474,14.7822318 109.830807,14.6395651 109.329474,14.6395651 C109.025474,14.6395651 108.762807,14.6902318 108.541474,14.7915651 C108.320141,14.8928985 108.138807,15.0328985 107.997474,15.2115651 C107.856141,15.3902318 107.750807,15.6022318 107.681474,15.8475651 C107.612141,16.0928985 107.577474,16.3568985 107.577474,16.6395651 C107.577474,16.9435651 107.616141,17.2195651 107.693474,17.4675651 C107.770807,17.7155651 107.885474,17.9262318 108.037474,18.0995651 C108.189474,18.2728985 108.381474,18.4075651 108.613474,18.5035651 C108.845474,18.5995651 109.118807,18.6475651 109.433474,18.6475651 Z M110.289474,16.4715651 L108.145474,16.4715651 C108.156141,16.2742318 108.185474,16.0915651 108.233474,15.9235651 C108.281474,15.7555651 108.353474,15.6102318 108.449474,15.4875651 C108.545474,15.3648985 108.665474,15.2688985 108.809474,15.1995651 C108.953474,15.1302318 109.126807,15.0955651 109.329474,15.0955651 C109.676141,15.0955651 109.924141,15.1942318 110.073474,15.3915651 C110.222807,15.5888985 110.297474,15.8715651 110.297474,16.2395651 L110.297474,16.2395651 L110.297474,16.3595651 C110.297474,16.4235651 110.294807,16.4608985 110.289474,16.4715651 L110.289474,16.4715651 Z M112.417474,18.5755651 L112.417474,15.9115651 C112.524141,15.6875651 112.664141,15.5142318 112.837474,15.3915651 C113.010807,15.2688985 113.206807,15.2075651 113.425474,15.2075651 C113.612141,15.2075651 113.761474,15.2555651 113.873474,15.3515651 L113.873474,15.3515651 L114.041474,14.7675651 C114.025474,14.7568985 113.974807,14.7328985 113.889474,14.6955651 C113.804141,14.6582318 113.681474,14.6395651 113.521474,14.6395651 C113.382807,14.6395651 113.258807,14.6622318 113.149474,14.7075651 C113.040141,14.7528985 112.940141,14.8115651 112.849474,14.8835651 C112.758807,14.9555651 112.677474,15.0368985 112.605474,15.1275651 C112.533474,15.2182318 112.470807,15.3088985 112.417474,15.3995651 L112.417474,15.3995651 L112.297474,14.7115651 L111.825474,14.7115651 L111.825474,18.5755651 L112.417474,18.5755651 Z M117.497474,18.5755651 L117.497474,16.0795651 L120.225474,16.0795651 L120.225474,18.5755651 L120.833474,18.5755651 L120.833474,13.1835651 L120.225474,13.1835651 L120.225474,15.5115651 L117.497474,15.5115651 L117.497474,13.1835651 L116.889474,13.1835651 L116.889474,18.5755651 L117.497474,18.5755651 Z M123.641474,18.6475651 C123.950807,18.6475651 124.217474,18.5968985 124.441474,18.4955651 C124.665474,18.3942318 124.852141,18.2528985 125.001474,18.0715651 C125.150807,17.8902318 125.261474,17.6768985 125.333474,17.4315651 C125.405474,17.1862318 125.441474,16.9222318 125.441474,16.6395651 C125.441474,16.3568985 125.405474,16.0942318 125.333474,15.8515651 C125.261474,15.6088985 125.150807,15.3968985 125.001474,15.2155651 C124.852141,15.0342318 124.665474,14.8928985 124.441474,14.7915651 C124.217474,14.6902318 123.950807,14.6395651 123.641474,14.6395651 C123.332141,14.6395651 123.064141,14.6902318 122.837474,14.7915651 C122.610807,14.8928985 122.424141,15.0342318 122.277474,15.2155651 C122.130807,15.3968985 122.021474,15.6088985 121.949474,15.8515651 C121.877474,16.0942318 121.841474,16.3568985 121.841474,16.6395651 C121.841474,16.9222318 121.877474,17.1862318 121.949474,17.4315651 C122.021474,17.6768985 122.130807,17.8902318 122.277474,18.0715651 C122.424141,18.2528985 122.610807,18.3942318 122.837474,18.4955651 C123.064141,18.5968985 123.332141,18.6475651 123.641474,18.6475651 Z M123.641474,18.1755651 C123.428141,18.1755651 123.245474,18.1368985 123.093474,18.0595651 C122.941474,17.9822318 122.816141,17.8755651 122.717474,17.7395651 C122.618807,17.6035651 122.545474,17.4408985 122.497474,17.2515651 C122.449474,17.0622318 122.425474,16.8582318 122.425474,16.6395651 C122.425474,16.4208985 122.449474,16.2195651 122.497474,16.0355651 C122.545474,15.8515651 122.618807,15.6915651 122.717474,15.5555651 C122.816141,15.4195651 122.941474,15.3128985 123.093474,15.2355651 C123.245474,15.1582318 123.428141,15.1195651 123.641474,15.1195651 C123.854807,15.1195651 124.037474,15.1582318 124.189474,15.2355651 C124.341474,15.3128985 124.466807,15.4195651 124.565474,15.5555651 C124.664141,15.6915651 124.737474,15.8515651 124.785474,16.0355651 C124.833474,16.2195651 124.857474,16.4208985 124.857474,16.6395651 C124.857474,16.8582318 124.833474,17.0622318 124.785474,17.2515651 C124.737474,17.4408985 124.664141,17.6035651 124.565474,17.7395651 C124.466807,17.8755651 124.341474,17.9822318 124.189474,18.0595651 C124.037474,18.1368985 123.854807,18.1755651 123.641474,18.1755651 Z M127.025474,18.5755651 L127.025474,13.1835651 L126.433474,13.1835651 L126.433474,18.5755651 L127.025474,18.5755651 Z M129.641474,18.6475651 C129.929474,18.6475651 130.184141,18.5742318 130.405474,18.4275651 C130.626807,18.2808985 130.790807,18.1035651 130.897474,17.8955651 L130.897474,17.8955651 L131.017474,18.5755651 L131.489474,18.5755651 L131.489474,13.1835651 L130.897474,13.1835651 L130.897474,15.3195651 C130.849474,15.2395651 130.788141,15.1595651 130.713474,15.0795651 C130.638807,14.9995651 130.550807,14.9262318 130.449474,14.8595651 C130.348141,14.7928985 130.233474,14.7395651 130.105474,14.6995651 C129.977474,14.6595651 129.838807,14.6395651 129.689474,14.6395651 C129.433474,14.6395651 129.202807,14.6902318 128.997474,14.7915651 C128.792141,14.8928985 128.617474,15.0342318 128.473474,15.2155651 C128.329474,15.3968985 128.220141,15.6088985 128.145474,15.8515651 C128.070807,16.0942318 128.033474,16.3595651 128.033474,16.6475651 C128.033474,16.9782318 128.073474,17.2675651 128.153474,17.5155651 C128.233474,17.7635651 128.344141,17.9715651 128.485474,18.1395651 C128.626807,18.3075651 128.796141,18.4342318 128.993474,18.5195651 C129.190807,18.6048985 129.406807,18.6475651 129.641474,18.6475651 Z M129.721474,18.1195651 C129.577474,18.1195651 129.438807,18.0928985 129.305474,18.0395651 C129.172141,17.9862318 129.053474,17.9008985 128.949474,17.7835651 C128.845474,17.6662318 128.762807,17.5142318 128.701474,17.3275651 C128.640141,17.1408985 128.609474,16.9115651 128.609474,16.6395651 C128.609474,16.1435651 128.721474,15.7755651 128.945474,15.5355651 C129.169474,15.2955651 129.449474,15.1755651 129.785474,15.1755651 C130.004141,15.1755651 130.209474,15.2355651 130.401474,15.3555651 C130.593474,15.4755651 130.758807,15.6422318 130.897474,15.8555651 L130.897474,15.8555651 L130.897474,16.7355651 C130.897474,16.9328985 130.866807,17.1155651 130.805474,17.2835651 C130.744141,17.4515651 130.660141,17.5982318 130.553474,17.7235651 C130.446807,17.8488985 130.322807,17.9462318 130.181474,18.0155651 C130.040141,18.0848985 129.886807,18.1195651 129.721474,18.1195651 Z M133.721474,18.6475651 C134.222807,18.6475651 134.590807,18.5502318 134.825474,18.3555651 C135.060141,18.1608985 135.177474,17.9008985 135.177474,17.5755651 C135.177474,17.2395651 135.066807,16.9795651 134.845474,16.7955651 C134.624141,16.6115651 134.297474,16.4528985 133.865474,16.3195651 C133.625474,16.2448985 133.433474,16.1595651 133.289474,16.0635651 C133.145474,15.9675651 133.073474,15.8262318 133.073474,15.6395651 C133.073474,15.4795651 133.142807,15.3515651 133.281474,15.2555651 C133.420141,15.1595651 133.633474,15.1115651 133.921474,15.1115651 C134.108141,15.1115651 134.284141,15.1315651 134.449474,15.1715651 C134.614807,15.2115651 134.769474,15.2662318 134.913474,15.3355651 L134.913474,15.3355651 L135.049474,14.8795651 C134.894807,14.8048985 134.716141,14.7462318 134.513474,14.7035651 C134.310807,14.6608985 134.097474,14.6395651 133.873474,14.6395651 C133.457474,14.6395651 133.125474,14.7262318 132.877474,14.8995651 C132.629474,15.0728985 132.505474,15.3222318 132.505474,15.6475651 C132.505474,15.8182318 132.533474,15.9648985 132.589474,16.0875651 C132.645474,16.2102318 132.725474,16.3168985 132.829474,16.4075651 C132.933474,16.4982318 133.056141,16.5755651 133.197474,16.6395651 C133.338807,16.7035651 133.494807,16.7595651 133.665474,16.8075651 C133.926807,16.8822318 134.148141,16.9742318 134.329474,17.0835651 C134.510807,17.1928985 134.601474,17.3542318 134.601474,17.5675651 C134.601474,17.7382318 134.532141,17.8835651 134.393474,18.0035651 C134.254807,18.1235651 134.022807,18.1835651 133.697474,18.1835651 C133.500141,18.1835651 133.308141,18.1622318 133.121474,18.1195651 C132.934807,18.0768985 132.772141,18.0235651 132.633474,17.9595651 L132.633474,17.9595651 L132.497474,18.3995651 C132.641474,18.4795651 132.820141,18.5408985 133.033474,18.5835651 C133.246807,18.6262318 133.476141,18.6475651 133.721474,18.6475651 Z" id="CrusherHolds" fill="#666666" fill-rule="nonzero"></path>
            </g>
            <g id="middle" transform="translate(143.445474, 4.575565)" fill="#D8D8D8" stroke="#979797">
                <rect id="25" x="77.5545259" y="58.9244349" width="33" height="17" rx="8"></rect>
                <rect id="24" x="77.5545259" y="30.9244349" width="33" height="17" rx="8"></rect>
                <path d="M-3.55271368e-14,11.3906844 L-3.55271368e-14,4.09954235 L2.82105189,8.8817842e-15 L185.233474,2.41298359e-09 L188.054526,4.09954235 L188.054526,11.3906844 L-3.55271368e-14,11.3906844 Z" id="23"></path>
            </g>
            <g id="right" transform="translate(362.500000, 54.000000) scale(-1, 1) translate(-362.500000, -54.000000) translate(250.000000, -0.000000)" fill="#D8D8D8" stroke="#979797">
                <circle id="22" cx="216" cy="99.0000003" r="8.5"></circle>
                <rect id="21" x="165.5" y="90.5000003" width="31" height="17" rx="8"></rect>
                <circle id="20" cx="146" cy="99.0000003" r="8.5"></circle>
                <rect id="19" x="95.5" y="90.5000003" width="31" height="17" rx="8"></rect>
                <rect id="18" x="13.5" y="90.5000003" width="68" height="17" rx="8"></rect>
                <rect id="17" x="139.5" y="62.5000003" width="68" height="17" rx="8"></rect>
                <rect id="16" x="48.5" y="62.5000003" width="46" height="17" rx="8"></rect>
                <rect id="15" x="139.5" y="35.5000003" width="68" height="17" rx="8"></rect>
                <rect id="14" transform="translate(100.204099, 43.273093) rotate(33.000000) translate(-100.204099, -43.273093) " x="68.2040991" y="34.7730926" width="64" height="17" rx="8"></rect>
                <rect id="13" transform="translate(33.728247, 53.675512) rotate(-53.000000) translate(-33.728247, -53.675512) " x="1.72824684" y="45.175512" width="64" height="17" rx="8"></rect>
                <path d="M141.700493,0.5 L146.471283,4.56266035 L143.454738,8.65113077 L0.5,8.65113077 L0.5,8 C0.5,5.92893219 1.33946609,4.05393219 2.69669914,2.69669914 C4.05393219,1.33946609 5.92893219,0.5 8,0.5 L8,0.5 L141.700493,0.5 Z" id="12"></path>
            </g>
            <g id="left" transform="translate(0.000000, -0.000000)" fill="#D8D8D8" stroke="#979797">
                <circle id="11" cx="216" cy="99.0000003" r="8.5"></circle>
                <rect id="10" x="165.5" y="90.5000003" width="31" height="17" rx="8"></rect>
                <circle id="9" cx="146" cy="99.0000003" r="8.5"></circle>
                <rect id="8" x="95.5" y="90.5000003" width="31" height="17" rx="8"></rect>
                <rect id="7" x="13.5" y="90.5000003" width="68" height="17" rx="8"></rect>
                <rect id="6" x="139.5" y="62.5000003" width="68" height="17" rx="8"></rect>
                <rect id="5" x="48.5" y="62.5000003" width="46" height="17" rx="8"></rect>
                <rect id="4" x="139.5" y="35.5000003" width="68" height="17" rx="8"></rect>
                <rect id="3" transform="translate(100.204099, 43.273093) rotate(33.000000) translate(-100.204099, -43.273093) " x="68.2040991" y="34.7730926" width="64" height="17" rx="8"></rect>
                <rect id="2" transform="translate(33.728247, 53.675512) rotate(-53.000000) translate(-33.728247, -53.675512) " x="1.72824684" y="45.175512" width="64" height="17" rx="8"></rect>
                <path d="M141.700493,0.5 L146.471283,4.56266035 L143.454738,8.65113077 L0.5,8.65113077 L0.5,8 C0.5,5.92893219 1.33946609,4.05393219 2.69669914,2.69669914 C4.05393219,1.33946609 5.92893219,0.5 8,0.5 L8,0.5 L141.700493,0.5 Z" id="1"></path>
            </g>
        </g>
    </g>
</svg>