<?xml version="1.0" encoding="UTF-8"?>
<svg width="791px" height="274px" viewBox="0 0 791 274" version="1.1" xmlns="http://www.w3.org/2000/svg" xmlns:xlink="http://www.w3.org/1999/xlink">
    <title>metolius_simulator_3d</title>
    <g id="Page-1" stroke="none" stroke-width="1" fill="none" fill-rule="evenodd">
        <g id="board" transform="translate(0.778166, 0.826178)" stroke="#979797">
            <g id="background" transform="translate(0.000000, -0.000000)" fill="#D8D8D8">
                <path d="M422.664295,6.39557933 C426.253504,9.22167489 432.101294,12.6025547 437.302979,20.250191 C439.540027,23.5391512 442.746997,30.094485 446.923889,39.9161924 C489.454504,42.0047308 525.490761,45.3694268 555.032661,50.0102804 C559.757971,50.752598 561.778855,51.3164188 563.589041,51.9400018 L563.889215,52.0445265 C566.381536,52.9208579 568.734662,53.9380048 577.629747,55.734307 C589.012677,58.0330127 604.298512,58.6567506 634.487427,64.7360108 C643.103809,66.4711255 659.585213,70.6086803 683.931641,77.1486753 C697.530819,68.7900064 707.96384,63.2159652 715.230705,60.4265515 C722.497569,57.6371379 728.524875,56.8928198 733.312622,58.1935971 C742.421181,60.3165705 749.497659,62.4973751 754.542057,64.7360108 C762.108655,68.0939644 770.364026,71.2489366 776.02478,77.1486753 C781.685535,83.0484139 785.708582,92.6244925 787.089655,101.774213 C788.470728,110.923934 790.950548,121.103613 784.186218,131.218866 C764.610285,167.696146 751.27896,179.10454 733.312622,201.980927 C727.204067,209.758899 722.583267,216.349867 717.897606,222.774034 L717.069736,223.906186 C708.225193,235.968442 698.82723,247.652315 678.520447,265.762201 C672.394331,271.22556 665.359975,271.731119 658.941219,271.745547 L658.158429,271.745162 C657.119088,271.742187 656.097814,271.73098 655.101239,271.73098 C650.20141,271.73098 643.330139,269.741387 634.487427,265.762201 L437.302979,242.848077 C428.519522,248.100446 421.580687,251.431239 416.486474,252.840456 C411.452224,254.233086 404.072891,254.896169 394.348477,254.829705 C384.621898,254.89619 377.242409,254.233108 372.208077,252.840456 C367.113864,251.431239 360.175029,248.100446 351.391573,242.848077 L351.391573,242.848077 L154.207125,265.762201 C145.364412,269.741387 138.493141,271.73098 133.593312,271.73098 C132.596737,271.73098 131.575463,271.742187 130.536122,271.745162 L129.753332,271.745547 C123.334576,271.731119 116.30022,271.22556 110.174105,265.762201 C89.8673215,247.652315 80.469358,235.968442 71.6248155,223.906186 L70.796945,222.774034 L70.796945,222.774034 L69.970421,221.638418 C65.5625132,215.570352 61.1311575,209.301371 55.3819293,201.980927 C49.2733743,194.202956 43.7006268,187.750684 38.2360742,181.188067 L37.2727775,180.02852 C27.0077358,167.641569 17.0369301,154.564325 4.50833309,131.218866 C-2.25599705,121.103613 0.223823697,110.923934 1.60489664,101.774213 C2.98596958,92.6244925 7.00901666,83.0484139 12.6697711,77.1486753 C18.3305255,71.2489366 26.5858965,68.0939644 34.152494,64.7360108 C39.1968923,62.4973751 46.2733707,60.3165705 55.3819293,58.1935971 C60.1696765,56.8928198 66.1969823,57.6371379 73.4638467,60.4265515 C80.7307112,63.2159652 91.1637325,68.7900064 104.762911,77.1486753 C129.109338,70.6086803 145.590743,66.4711255 154.207125,64.7360108 C184.396039,58.6567506 199.681874,58.0330127 211.064804,55.734307 C219.959889,53.9380048 222.313015,52.9208579 224.805336,52.0445265 L225.105511,51.9400018 C226.915696,51.3164188 228.93658,50.752598 233.66189,50.0102804 C263.20379,45.3694268 299.240047,42.0047308 341.770662,39.9161924 C345.947554,30.094485 349.154524,23.5391512 351.391573,20.250191 C356.593257,12.6025547 362.441048,9.22167489 366.030257,6.39557933 C371.934841,1.74638797 381.489606,-0.368047058 394.694551,0.0522742577 L394.347,0.042 L394.679759,0.0327939843 C407.533335,-0.29438201 416.861514,1.82654644 422.664295,6.39557933 Z" id="Combined-Shape"></path>
            </g>
            <g id="middle" transform="translate(341.770662, -0.000000)">
                <path d="M2.48689958e-14,39.9161924 C4.17689201,30.094485 7.38386223,23.5391512 9.62091064,20.250191 C14.822595,12.6025547 20.6703857,9.22167489 24.2595945,6.39557933 C30.1641786,1.74638797 39.7189435,-0.368047058 52.9238892,0.0522742577 L52.562,0.041 L52.8809311,0.0327939843 C65.7345071,-0.29438201 75.0626856,1.82654644 80.8654665,6.39557933 C84.4546754,9.22167489 90.302466,12.6025547 95.5041504,20.250191 C97.7411988,23.5391512 100.948169,30.094485 105.125061,39.9161924 Z" id="27"></path>
                <rect id="28" x="13.9511719" y="51.6738218" width="77" height="26" rx="11.5"></rect>
                <rect id="29" x="19.9511719" y="104.673822" width="65" height="26" rx="11.5"></rect>
                <rect id="30" x="19.9511719" y="157.673822" width="65" height="26" rx="13"></rect>
                <rect id="31" x="25.9511719" y="210.673822" width="53" height="26" rx="13"></rect>
            </g>
            <g id="right" transform="translate(615.965788, 143.937658) scale(-1, 1) translate(-615.965788, -143.937658) translate(443.141834, 39.916192)">
                <rect id="26" transform="translate(322.864422, 172.197715) rotate(-4.000000) translate(-322.864422, -172.197715) " x="301.364422" y="160.697715" width="43" height="23" rx="11.5"></rect>
                <rect id="25" transform="translate(258.121548, 179.078442) rotate(-8.000000) translate(-258.121548, -179.078442) " x="236.621548" y="167.578442" width="43" height="23" rx="11.5"></rect>
                <rect id="24" transform="translate(173.282870, 191.235125) rotate(-8.000000) translate(-173.282870, -191.235125) " x="131.28287" y="180.735125" width="84" height="21" rx="10"></rect>
                <rect id="23" transform="translate(301.331530, 129.930990) rotate(-6.000000) translate(-301.331530, -129.930990) " x="266.33153" y="119.43099" width="70" height="21" rx="10"></rect>
                <rect id="22" transform="translate(210.270596, 138.985212) rotate(-7.000000) translate(-210.270596, -138.985212) " x="175.270596" y="128.485212" width="70" height="21" rx="10"></rect>
                <rect id="21" transform="translate(115.263142, 155.863343) rotate(-10.000000) translate(-115.263142, -155.863343) " x="79.263142" y="145.363343" width="72" height="21" rx="10"></rect>
                <rect id="20" transform="translate(287.722676, 79.185786) rotate(-5.000000) translate(-287.722676, -79.185786) " x="244.722676" y="66.1857864" width="86" height="26" rx="7"></rect>
                <rect id="19" transform="translate(189.591942, 89.691494) rotate(-8.000000) translate(-189.591942, -89.691494) " x="146.591942" y="78.1914944" width="86" height="23" rx="10"></rect>
                <rect id="18" transform="translate(91.435508, 106.703806) rotate(-12.000000) translate(-91.435508, -106.703806) " x="48.4355077" y="96.203806" width="86" height="21" rx="10.5"></rect>
                <path d="M341.626357,1.42108547e-14 L337.786871,34.8505281 L233.517585,39.7969188 L223.066383,12.7654146 C227.490386,11.4648833 230.97412,10.5744412 233.517585,10.094088 C245.48574,7.83380857 257.604818,6.5499987 267.14622,5.63256361 C276.398525,4.74292603 290.622414,3.23130015 313.11431,1.61973212 C318.512147,1.2329714 328.016163,0.693060691 341.626357,1.42108547e-14 Z" id="17"></path>
                <path d="M114.473415,61.9458832 L217.717331,39.7969188 L223.083207,12.6923122 C219.685466,13.8248803 215.63123,14.8668145 210.920499,15.8181147 C199.537569,18.1168203 184.251734,18.7405583 154.062819,24.8198184 C145.446437,26.5549331 128.965033,30.6924879 104.618605,37.2324829 L114.473415,61.9458832 Z" id="16"></path>
                <path d="M39.4056733,83.6053171 L74.9531652,75.8920537 C80.923086,74.5966719 84.7125486,68.7069806 83.4171669,62.7370598 C83.4111817,62.7094762 83.4050909,62.6819156 83.3988947,62.6543785 L82.9597621,60.7027999 C81.8685981,55.853485 77.0528884,52.8069017 72.2035735,53.8980657 C72.1565831,53.9086392 72.1096784,53.9195897 72.0628638,53.9309163 L34.8711134,62.9292581 C29.8163603,64.1522281 26.5427292,69.0454668 27.3413099,74.1843823 L27.5397941,75.4616402 C28.3782471,80.857136 33.4318611,84.5513492 38.827357,83.7128962 C39.0211535,83.6827805 39.2140109,83.6469049 39.4056733,83.6053171 Z" id="15"></path>
                <path d="M104.840439,37.4063047 C104.840439,37.3190977 84.4416722,24.8683014 73.5413755,20.6841809 C66.274511,17.8947673 60.2472052,17.1504492 55.459458,18.4512265 C46.3508995,20.5741999 39.274421,22.7550045 34.2300227,24.9936402 C26.6634253,28.3515938 18.4080543,31.506566 12.7472998,37.4063047 C7.08654542,43.3060433 3.06349835,52.8821219 1.6824254,62.0318425 C0.30135246,71.1815631 -2.38942088,81.1726969 4.58586186,91.4764951 C4.58586186,84.4500307 8.75628102,72.1322332 16.2730539,62.0318425 C25.9285015,49.0576851 47.4539864,40.2991945 55.8871168,38.8228023 C62.8689632,37.5547648 91.9935606,33.5380244 104.840439,37.4063047 Z" id="14"></path>
            </g>
            <g id="left" transform="translate(0.144305, 39.916192)">
                <rect id="13" transform="translate(322.864422, 172.197715) rotate(-4.000000) translate(-322.864422, -172.197715) " x="301.364422" y="160.697715" width="43" height="23" rx="11.5"></rect>
                <rect id="12" transform="translate(258.121548, 179.078442) rotate(-8.000000) translate(-258.121548, -179.078442) " x="236.621548" y="167.578442" width="43" height="23" rx="11.5"></rect>
                <rect id="11" transform="translate(173.282870, 191.235125) rotate(-8.000000) translate(-173.282870, -191.235125) " x="131.28287" y="180.735125" width="84" height="21" rx="10"></rect>
                <rect id="10" transform="translate(301.331530, 129.930990) rotate(-6.000000) translate(-301.331530, -129.930990) " x="266.33153" y="119.43099" width="70" height="21" rx="10"></rect>
                <rect id="9" transform="translate(210.270596, 138.985212) rotate(-7.000000) translate(-210.270596, -138.985212) " x="175.270596" y="128.485212" width="70" height="21" rx="10"></rect>
                <rect id="8" transform="translate(115.263142, 155.863343) rotate(-10.000000) translate(-115.263142, -155.863343) " x="79.263142" y="145.363343" width="72" height="21" rx="10"></rect>
                <rect id="7" transform="translate(287.722676, 79.185786) rotate(-5.000000) translate(-287.722676, -79.185786) " x="244.722676" y="66.1857864" width="86" height="26" rx="7"></rect>
                <rect id="6" transform="translate(189.591942, 89.691494) rotate(-8.000000) translate(-189.591942, -89.691494) " x="146.591942" y="78.1914944" width="86" height="23" rx="10"></rect>
                <rect id="5" transform="translate(91.435508, 106.703806) rotate(-12.000000) translate(-91.435508, -106.703806) " x="48.4355077" y="96.203806" width="86" height="21" rx="10.5"></rect>
                <path d="M341.626357,1.42108547e-14 L337.786871,34.8505281 L233.517585,39.7969188 L223.066383,12.7654146 C227.490386,11.4648833 230.97412,10.5744412 233.517585,10.094088 C245.48574,7.83380857 257.604818,6.5499987 267.14622,5.63256361 C276.398525,4.74292603 290.622414,3.23130015 313.11431,1.61973212 C318.512147,1.2329714 328.016163,0.693060691 341.626357,1.42108547e-14 Z" id="4"></path>
                <path d="M114.473415,61.9458832 L217.717331,39.7969188 L223.083207,12.6923122 C219.685466,13.8248803 215.63123,14.8668145 210.920499,15.8181147 C199.537569,18.1168203 184.251734,18.7405583 154.062819,24.8198184 C145.446437,26.5549331 128.965033,30.6924879 104.618605,37.2324829 L114.473415,61.9458832 Z" id="3"></path>
                <path d="M39.4056733,83.6053171 L74.9531652,75.8920537 C80.923086,74.5966719 84.7125486,68.7069806 83.4171669,62.7370598 C83.4111817,62.7094762 83.4050909,62.6819156 83.3988947,62.6543785 L82.9597621,60.7027999 C81.8685981,55.853485 77.0528884,52.8069017 72.2035735,53.8980657 C72.1565831,53.9086392 72.1096784,53.9195897 72.0628638,53.9309163 L34.8711134,62.9292581 C29.8163603,64.1522281 26.5427292,69.0454668 27.3413099,74.1843823 L27.5397941,75.4616402 C28.3782471,80.857136 33.4318611,84.5513492 38.827357,83.7128962 C39.0211535,83.6827805 39.2140109,83.6469049 39.4056733,83.6053171 Z" id="2"></path>
                <path d="M104.840439,37.4063047 C104.840439,37.3190977 84.4416722,24.8683014 73.5413755,20.6841809 C66.274511,17.8947673 60.2472052,17.1504492 55.459458,18.4512265 C46.3508995,20.5741999 39.274421,22.7550045 34.2300227,24.9936402 C26.6634253,28.3515938 18.4080543,31.506566 12.7472998,37.4063047 C7.08654542,43.3060433 3.06349835,52.8821219 1.6824254,62.0318425 C0.30135246,71.1815631 -2.38942088,81.1726969 4.58586186,91.4764951 C4.58586186,84.4500307 8.75628102,72.1322332 16.2730539,62.0318425 C25.9285015,49.0576851 47.4539864,40.2991945 55.8871168,38.8228023 C62.8689632,37.5547648 91.9935606,33.5380244 104.840439,37.4063047 Z" id="1"></path>
            </g>
        </g>
    </g>
</svg>
