<?xml version="1.0" encoding="UTF-8"?>
<svg width="958px" height="409px" viewBox="0 0 958 409" version="1.1" xmlns="http://www.w3.org/2000/svg" xmlns:xlink="http://www.w3.org/1999/xlink">
    <title>board</title>
    <g id="Page-1" stroke="none" stroke-width="1" fill="none" fill-rule="evenodd">
        <g id="board" transform="translate(1.992188, 1.000000)">
            <g id="holds" transform="translate(0.007812, 0.000000)">
                <g id="right" transform="translate(536.640625, -0.000000)" fill="#979797">
                    <path d="M218.359375,101.336511 C219.630144,89.596313 220.894466,81.3762609 222.152344,76.6763543 C224.874887,66.5038984 229.469316,58.7128346 232.171875,53.6626824 C242.642431,34.0968214 259.691037,21.8011547 271.541016,15.5806512 C283.310802,9.40224392 302.730861,0.615146764 329.724609,0.324791784 C336.876446,0.247863915 349.658752,-0.797492735 363.46875,1.32479178 C368.173188,2.04775758 379.113863,2.16889125 397.167969,9.74023438 C401.096098,11.3875725 407.845447,15.5653069 417.416016,22.2734375 L218.359375,101.336511 Z" id="11" transform="translate(317.887695, 50.668255) scale(-1, 1) translate(-317.887695, -50.668255) "></path>
                </g>
            </g>
        </g>
    </g>
</svg>
