<?xml version="1.0" encoding="UTF-8"?>
<svg width="1008px" height="325px" viewBox="0 0 1008 325" version="1.1" xmlns="http://www.w3.org/2000/svg" xmlns:xlink="http://www.w3.org/1999/xlink">
    <title>board</title>
    <g id="Page-1" stroke="none" stroke-width="1" fill="none" fill-rule="evenodd">
        <g id="board" transform="translate(0.000000, 1.000000)">
            <path d="M11.9748206,323 L11.9748206,1.76683723 C124.03939,1.08520414 288.21445,1.08520414 504.5,1.76683723 C720.78555,1.08520414 884.96061,1.08520414 997.025179,1.76683723 L997.025179,323 L504.5,323 L11.9748206,323 Z" id="background" stroke="#979797" fill="#D8D8D8"></path>
            <g id="hold_outlines" fill="#D8D8D8" stroke="#979797">
                <path d="M4.87369792,322.759863 C3.40009697,321.992892 2.41572197,321.23374 1.92057292,320.482408 C1.42542386,319.731076 0.951899553,318.278033 0.5,316.123278 L0.5,271.878268 C0.5,267.772051 0.982101273,264.97768 1.92057292,263.495155 C2.85904456,262.01263 4.94259491,260.767533 8.17122396,259.759863 L999.827474,259.759863 C1003.0561,260.767533 1005.13965,262.01263 1006.07812,263.495155 C1007.0166,264.97768 1007.4987,267.772051 1007.4987,271.878268 L1007.4987,316.123278 C1007.0468,318.278033 1006.57327,319.731076 1006.07812,320.482408 C1005.58298,321.23374 1004.5986,321.992892 1003.125,322.759863 L503.999349,322.759863 L4.87369792,322.759863 Z" id="7-8"></path>
                <path d="M8.75153196,216.25 C6.78264854,216.025806 5.38399403,215.522691 4.55556842,214.740656 C3.72714281,213.95862 3.04224698,212.49486 2.5,210.349373 L2.5,183.787825 C3.15795499,181.503445 3.84285082,179.988524 4.55556842,179.243062 C5.26828602,178.4976 6.66694053,177.833246 8.75153196,177.25 L12.0551144,177.25 L997.1042,177.25 L1000.40778,177.25 C1002.49237,177.833246 1003.89103,178.4976 1004.60375,179.243062 C1005.31646,179.988524 1006.00136,181.503445 1006.65843,183.787825 L1006.65843,210.349373 C1006.11707,212.49486 1005.43217,213.95862 1004.60375,214.740656 C1003.77532,215.522691 1002.37667,216.025806 1000.40778,216.25 L8.75153196,216.25 Z" id="5-6"></path>
                <path d="M8.75153196,143.25 C6.78264854,143.020057 5.38399403,142.504042 4.55556842,141.701955 C3.72714281,140.899867 3.04224698,139.398574 2.5,137.198075 L2.5,109.955461 C3.15795499,107.612507 3.84285082,106.058742 4.55556842,105.294166 C5.26828602,104.52959 6.66694053,103.848201 8.75153196,103.25 L12.0551144,103.25 L997.1042,103.25 L1000.40778,103.25 C1002.49237,103.848201 1003.89103,104.52959 1004.60375,105.294166 C1005.31646,106.058742 1006.00136,107.612507 1006.65843,109.955461 L1006.65843,137.198075 C1006.11707,139.398574 1005.43217,140.899867 1004.60375,141.701955 C1003.77532,142.504042 1002.37667,143.020057 1000.40778,143.25 L8.75153196,143.25 Z" id="3-4"></path>
                <path d="M12.2166684,64.2104736 C8.88212398,63.5565972 6.68175449,62.4349664 5.6155599,60.8455811 C4.5493653,59.2561957 4.01084533,56.2949408 4,51.9618164 C4,35.7184302 4,25.1766089 4,20.3363525 C4,5.69099121 6.33398437,1.91228027 12.2166684,0.637426758 C16.1384577,-0.212475586 180.313305,-0.212475586 504.741211,0.637426758 C829.169117,-0.212475586 993.343964,-0.212475586 997.265754,0.637426758 C1003.14844,1.91228027 1005.48242,5.69099121 1005.48242,20.3363525 C1005.48242,25.1766089 1005.48242,35.7184302 1005.48242,51.9618164 C1005.47158,56.2949408 1004.93306,59.2561957 1003.86686,60.8455811 C1002.80067,62.4349664 1000.6003,63.5565972 997.265754,64.2104736 L12.2166684,64.2104736 Z" id="1-2"></path>
            </g>
            <g id="hold_overlays">
                <path d="M504.5,258.759863 L999.827474,258.759863 C1003.0561,259.783528 1005.13965,261.048388 1006.07812,262.554445 C1007.0166,264.060502 1007.49012,266.899228 1007.4987,271.070624 L1007.4987,316.017935 C1007.0468,318.206893 1006.57327,319.683 1006.07812,320.446258 C1005.58298,321.209516 1004.5986,321.980718 1003.125,322.759863 L504.5,322.759863 L504.5,258.759863 Z" id="8-right"></path>
                <path d="M4.87369792,322.759863 C3.40009697,321.980718 2.41572197,321.209516 1.92057292,320.446258 C1.42542386,319.683 0.951899553,318.206893 0.5,316.017935 L0.5,271.070624 C0.508576968,266.899228 0.982101273,264.060502 1.92057292,262.554445 C2.85904456,261.048388 4.94259491,259.783528 8.17122396,258.759863 L505,258.759863 L505,322.759863 L4.87369792,322.759863 Z" id="7-left"></path>
                <path d="M504.5,177.25 L997.1042,177.25 L1000.40778,177.25 C1002.49237,177.833246 1003.89103,178.4976 1004.60375,179.243062 C1005.31646,179.988524 1006.00136,181.503445 1006.65843,183.787825 L1006.65843,210.349373 C1006.11707,212.49486 1005.43217,213.95862 1004.60375,214.740656 C1003.77532,215.522691 1002.37667,216.025806 1000.40778,216.25 L504.5,216.25 L504.5,177.25 Z" id="6-right"></path>
                <path d="M8.75153196,216.25 C6.78264854,216.025806 5.38399403,215.522691 4.55556842,214.740656 C3.72714281,213.95862 3.04224698,212.49486 2.5,210.349373 L2.5,183.787825 C3.15795499,181.503445 3.84285082,179.988524 4.55556842,179.243062 C5.26828602,178.4976 6.66694053,177.833246 8.75153196,177.25 L12.0551144,177.25 L505,177.25 L505,216.25 L8.75153196,216.25 Z" id="5-left"></path>
                <path d="M504.5,103.25 L997.1042,103.25 L1000.40778,103.25 C1002.49237,103.848201 1003.89103,104.52959 1004.60375,105.294166 C1005.31646,106.058742 1006.00136,107.612507 1006.65843,109.955461 L1006.65843,137.198075 C1006.11707,139.398574 1005.43217,140.899867 1004.60375,141.701955 C1003.77532,142.504042 1002.37667,143.020057 1000.40778,143.25 L504.5,143.25 L504.5,103.25 Z" id="4-right"></path>
                <path d="M8.75153196,143.25 C6.78264854,143.020057 5.38399403,142.504042 4.55556842,141.701955 C3.72714281,140.899867 3.04224698,139.398574 2.5,137.198075 L2.5,109.955461 C3.15795499,107.612507 3.84285082,106.058742 4.55556842,105.294166 C5.26828602,104.52959 6.66694053,103.848201 8.75153196,103.25 L12.0551144,103.25 L505,103.25 L505,143.25 L8.75153196,143.25 Z" id="3-left"></path>
                <path d="M504.5,0.637426758 C830.395976,0.0708251953 994.651227,0.0708251953 997.265754,0.637426758 C1003.14844,1.91228027 1005.48242,5.69099121 1005.48242,20.3363525 C1005.48242,25.1766089 1005.48242,35.7184302 1005.48242,51.9618164 C1005.47158,56.2949408 1004.93306,59.2561957 1003.86686,60.8455811 C1002.80067,62.4349664 1000.6003,63.5565972 997.265754,64.2104736 L504.5,64.2104736 L504.5,0.637426758 Z" id="2-right"></path>
                <path d="M12.2166684,64.2104736 C8.88212398,63.5565972 6.68175449,62.4349664 5.6155599,60.8455811 C4.5493653,59.2561957 4.01084533,56.2949408 4,51.9618164 C4,35.7184302 4,25.1766089 4,20.3363525 C4,5.69099121 6.33398437,1.91228027 12.2166684,0.637426758 C14.8311946,0.0708251953 179.092305,0.0708251953 505,0.637426758 L505,64.2104736 L12.2166684,64.2104736 Z" id="1-left"></path>
            </g>
            <g id="Redge-LogoWhite" transform="translate(442.000000, 4.000000)" fill-rule="nonzero">
                <polygon id="Path" points="0 0 0 56 124 56 124 0"></polygon>
                <path d="M30.9474378,3 L30.9474378,22.184466 C30.9474378,22.9507379 31.1008354,23.9033204 30.8835222,24.6440129 C30.5796094,25.6798511 29.5538257,26.7058511 28.9422405,27.5954693 L28.9422405,27.5954693 L30.9474378,27.5954693 L30.9474378,41 L21.9240498,41 L21.9240498,32.2686084 L19.542878,32.2686084 L19.542878,41 L3,41 L3,3 L30.9474378,3 Z M22.0382775,4 L4,4 L4,40 L13.3301435,40 L13.3301435,11.1262799 L8.85167464,11.1262799 L8.85167464,27.9590444 L7.98086124,27.9590444 L7.98086124,10.1433447 L12.3349282,10.1433447 L12.3349282,8.54607509 L30,8.54607509 L30,4 L29.0047847,4 L29.0047847,6.33447099 L22.0382775,6.33447099 L22.0382775,4 Z M22.2386781,24.8167539 L19.5189718,24.8167539 L19.5189718,27.8324607 L22.8567931,27.8324607 C22.7219204,26.8141571 22.3734272,25.8339267 22.2386781,24.8167539 Z M12.5968992,11.7984791 L12.5968992,17.1520913 L9,17.1520913 L9,11.7984791 L12.5968992,11.7984791 Z M12.3488372,12 L10,12 L10,16.1465969 L12.3488372,16.1465969 L12.3488372,12 Z M28.2583732,4 L22.784689,4 L22.784689,5.72013652 L28.2583732,5.72013652 L28.2583732,4 Z" id="Combined-Shape" fill="#333333"></path>
                <path d="M64.5658915,9 L64.5658915,41 L31.9457364,41 L31.9457364,27.8593156 L51.0465116,27.8593156 L51.0465116,9 L64.5658915,9 Z M92.7209302,9 L92.7209302,41 L66.0542636,41 L66.0542636,30.2927757 L76.1007752,30.2927757 L76.1007752,32.6045627 L79.6976744,32.6045627 L79.6976744,28.8326996 L66.0542636,28.8326996 L66.0542636,9 L92.7209302,9 Z M51.4137087,32.9842932 L47.0869033,32.9842932 L47.0869033,36 L51.2900857,36 L51.4137087,32.9842932 Z M49.5581395,9 L49.5581395,18.4904943 L40.379845,18.4904943 L40.379845,20.1939163 L49.5581395,20.1939163 L49.5581395,26.7642586 L31.9457364,26.7642586 L31.9457364,9 L49.5581395,9 Z M79.5997552,22.1780105 L76.0146879,22.1780105 L76.0146879,24.8167539 L79.5997552,24.8167539 L79.5997552,22.1780105 Z M111,22.052356 L111,24.8167539 L107.414933,24.8167539 L107.414933,22.052356 L111,22.052356 Z M44.119951,13.0052356 L40.6585067,13.0052356 L40.6585067,15.7696335 L44.119951,15.7696335 L44.119951,13.0052356 Z M94.2093023,9 L94.2093023,41 L121,41 L121,30.2927757 L110.953488,30.2927757 L110.953488,32.6045627 L107.356589,32.6045627 L107.356589,28.8326996 L121,28.8326996 L121,9 L94.2093023,9" id="Shape" fill="#333333"></path>
                <path d="M21.492413,48.9816505 C21.0290209,48.9816505 20.3425231,48.8511725 19.93191,49.1147173 C19.6173373,49.3165181 19.4314366,49.7061398 19.1386182,49.9449611 C18.5435876,50.4303702 17.6071621,50.5790996 16.9191812,50.2169197 C15.7794268,49.6170834 15.6831391,48.3450526 15.6830155,47.1694564 C15.6828919,45.7156884 15.7357945,43.945563 17.4134744,43.540926 C18.6495164,43.2426906 19.061242,44.277324 19.93191,44.8358681 C20.3425231,45.0994129 21.0290209,44.9689349 21.492413,44.9689349 C21.1986058,41.9654821 17.1897508,41.1923224 15.2101059,42.8884067 C13.6882909,44.1922803 14.0011332,46.7538167 14.0809815,48.5933232 C14.149829,50.1780869 15.3045395,51.5707581 16.7954534,51.908344 C18.7160154,52.3430117 21.2744988,51.2093548 21.492413,48.9816505 M120.993795,46.5222442 L117.162065,46.5222442 L117.162065,47.946111 L119.386941,47.946111 C119.306722,49.8727322 117.264162,51.3446222 115.705142,49.837265 C115.034219,49.1884995 115.060794,48.3053137 115.060794,47.4283412 C115.060794,45.8609228 115.007273,43.6694623 117.038461,43.4985983 C118.111222,43.4083769 118.451751,44.3209461 119.213153,44.8358681 C119.631801,45.1190882 120.391101,44.9689349 120.870191,44.9689349 C120.572676,41.9271671 116.406102,41.1599618 114.454268,42.958435 C113.00884,44.2903977 113.374214,47.0296585 113.458883,48.852208 C113.598309,51.8515187 117.583061,52.7675829 119.634026,51.2290301 C121.170797,50.0762157 120.993795,48.2733415 120.993795,46.5222442 M29.4030819,42.1212013 L29.4030819,51.8293841 L36.3249172,51.8293841 L36.3249172,50.4055173 L31.0099366,50.4055173 L31.0099366,42.1212013 L29.4030819,42.1212013 M43.8647735,42.1212013 L43.8647735,51.8293841 L45.4716282,51.8293841 L45.4716282,42.1212013 L43.8647735,42.1212013 M61.58838,42.2542682 C61.964384,42.0031498 62.5966195,42.1212013 63.0234248,42.1212013 L63.0234248,42.1212013 L63.0234248,51.8293841 L61.5401744,51.8293841 L61.5401744,47.8166686 C61.5401744,47.0477805 61.6257085,46.2277626 61.4165702,45.4867047 C61.0063279,46.9781404 60.1245355,48.5270486 59.4065187,49.8852881 C59.1403988,50.3886898 58.6708265,50.7130725 58.1055844,50.4569059 C57.6461476,50.248633 57.4572804,49.5400652 57.2410967,49.1110929 C56.656696,47.9511592 56.1144444,46.7481212 55.4835685,45.6161471 L55.4835685,45.6161471 L55.4835685,51.8293841 L54.0003181,51.8293841 L54.0003181,42.1212013 C54.4271234,42.1212013 55.0593589,42.0031498 55.4353629,42.2542682 C55.9297797,42.5846053 56.1888541,43.5329006 56.4418719,44.0628379 C57.1231782,45.4896819 57.8060915,46.9571708 58.5736736,48.3344383 C58.9983776,46.7907078 59.9607599,45.3654171 60.6444148,43.9333955 C60.8830945,43.4334888 61.1207853,42.5666128 61.58838,42.2542682 Z M73,47.088863 C73.9582131,47.088863 75.4939746,46.7655923 76.3574563,47.2766641 C77.2171117,47.7854159 77.2131694,49.1813574 76.3516588,49.6770906 C75.4297381,50.2076258 74.009927,49.9245706 73,49.9245706 L73,49.9245706 Z M73,43.0930931 C73.937458,43.0930931 75.3956488,42.7886412 76.2444048,43.2808943 C77.0689273,43.7590977 77.0853922,45.027948 76.2445208,45.5011245 C75.3972721,45.9777812 73.9317765,45.6710091 73,45.6710091 L73,45.6710091 Z M71.5521147,42.1212013 L71.5521147,51.8293983 L75.2602408,51.8293983 C76.1704621,51.8293983 77.1775892,51.83961 77.9790388,51.3122615 C79.6287841,50.2268867 79.3930709,47.2959216 77.3615122,46.9105715 C77.8241628,46.6735624 78.2996681,46.4554519 78.5981723,45.9924363 C79.3431348,44.837292 78.8997665,43.1344767 77.7318304,42.5093992 C76.9209869,42.0753787 76.0187998,42.1212013 75.1366366,42.1212013 L71.5521147,42.1212013 M87.1262442,42.1212013 L87.1262442,51.8293841 L88.7330988,51.8293841 L88.7330988,42.1212013 L87.1262442,42.1212013 M97.2617887,42.1212013 L97.2617887,51.8293841 L98.8686433,51.8293841 L98.8686433,45.0983774 C100.01841,46.6155722 101.080541,48.2086202 102.190259,49.7583051 C102.614839,50.3511515 103.081816,51.3275358 103.710714,51.6963173 C104.117619,51.9350091 104.722168,51.8293841 105.172458,51.8293841 L105.172458,42.1212013 L103.565603,42.1212013 L103.565603,48.9816505 C102.423253,47.4731283 101.357167,45.882928 100.280698,44.3217228 C99.8453637,43.6903026 99.3626893,42.6542453 98.7079579,42.2542682 C98.3116828,42.0122108 97.7035501,42.1212013 97.2617887,42.1212013 Z" id="Shape" fill="#333333"></path>
            </g>
        </g>
    </g>
</svg>
