<?xml version="1.0" encoding="UTF-8"?>
<svg width="924px" height="263px" viewBox="0 0 924 263" version="1.1" xmlns="http://www.w3.org/2000/svg" xmlns:xlink="http://www.w3.org/1999/xlink">
    <title>monster</title>
    <g id="Page-1" stroke="none" stroke-width="1" fill="none" fill-rule="evenodd">
        <rect id="bottom-background" stroke="#979797" fill="#D8D8D8" x="14.5" y="140.5" width="893" height="122" rx="8"></rect>
        <rect id="middle-background" stroke="#979797" fill="#D8D8D8" x="8.5" y="68.5" width="906" height="128" rx="8"></rect>
        <rect id="top-background" stroke="#979797" fill="#D8D8D8" x="0.5" y="0.5" width="923" height="122" rx="8"></rect>
        <text id="mönster" fill="#979797" fill-rule="nonzero" font-family="Helvetica" font-size="55" font-weight="normal" line-spacing="61">
            <tspan x="358" y="53">mönster</tspan>
        </text>
        <g id="bottom" transform="translate(33.000000, 216.000000)" stroke="#979797">
            <rect id="25" x="750.5" y="0.5" width="102" height="31" rx="15"></rect>
            <rect id="24" x="622.5" y="0.5" width="108" height="31" rx="15"></rect>
            <rect id="23" x="500.5" y="0.5" width="102" height="31" rx="15"></rect>
            <rect id="22" x="372.5" y="0.5" width="108" height="31" rx="15"></rect>
            <rect id="21" x="250.5" y="0.5" width="102" height="31" rx="15"></rect>
            <rect id="20" x="122.5" y="0.5" width="108" height="31" rx="15"></rect>
            <rect id="19" x="0.5" y="0.5" width="102" height="31" rx="15"></rect>
        </g>
        <g id="middle" transform="translate(33.000000, 146.000000)" stroke="#979797">
            <rect id="18" x="752.5" y="0.5" width="102" height="31" rx="15"></rect>
            <rect id="17" x="626.5" y="0.5" width="102" height="31" rx="15"></rect>
            <rect id="16" x="501.5" y="0.5" width="102" height="31" rx="15"></rect>
            <rect id="15" x="378.5" y="0.5" width="102" height="31" rx="15"></rect>
            <rect id="14" x="251.5" y="0.5" width="102" height="31" rx="15"></rect>
            <rect id="13" x="125.5" y="0.5" width="102" height="31" rx="15"></rect>
            <rect id="12" x="0.5" y="0.5" width="102" height="31" rx="15"></rect>
        </g>
        <g id="top" transform="translate(28.000000, 20.000000)" stroke="#979797">
            <rect id="11" x="757.5" y="55.5" width="102" height="31" rx="15"></rect>
            <rect id="10" x="635.5" y="55.5" width="102" height="31" rx="15"></rect>
            <rect id="9" x="510.5" y="55.5" width="102" height="31" rx="15"></rect>
            <rect id="8" x="383.5" y="55.5" width="102" height="31" rx="15"></rect>
            <rect id="7" x="255.5" y="55.5" width="102" height="31" rx="15"></rect>
            <rect id="6" x="130.5" y="55.5" width="102" height="31" rx="15"></rect>
            <rect id="5" x="0.5" y="55.5" width="104" height="31" rx="15"></rect>
            <rect id="4" x="695.5" y="0.5" width="102" height="31" rx="15"></rect>
            <rect id="3" x="568.5" y="0.5" width="104" height="31" rx="15"></rect>
            <rect id="2" x="195.5" y="0.5" width="104" height="31" rx="15"></rect>
            <rect id="1" x="68.5" y="0.5" width="104" height="31" rx="15"></rect>
        </g>
    </g>
</svg>