<?xml version="1.0" encoding="UTF-8"?>
<svg width="948px" height="243px" viewBox="0 0 948 243" version="1.1" xmlns="http://www.w3.org/2000/svg" xmlns:xlink="http://www.w3.org/1999/xlink">
    <title>board</title>
    <g id="Page-1" stroke="none" stroke-width="1" fill="none" fill-rule="evenodd">
        <g id="board" transform="translate(1.686389, 1.000000)">
            <g id="right" transform="translate(699.813611, 137.000000) scale(-1, 1) translate(-699.813611, -137.000000) translate(482.313611, 54.000000)" fill="#979797" stroke="#979797">
                <path d="M131.753808,0.5 C133.713974,0.499996667 135.596245,1.26739457 136.997658,2.63790282 C141.688673,7.22547004 144.065227,11.8391529 144.065227,16.5 C144.065227,21.1608474 141.688673,25.7745306 136.997658,30.3620976 C135.596244,31.7326027 133.713974,32.5 131.753809,32.5 L131.753809,32.5 L26.735107,32.5 C24.8520256,32.4999957 23.0378482,31.7916281 21.652998,30.5156242 C16.707738,25.9590511 14.2016877,21.2950452 14.2016877,16.5 C14.2016877,11.7049527 16.7077402,7.0409448 21.6530042,2.48437008 C23.0378555,1.20836753 24.8520328,0.5 26.7351142,0.5 L26.7351142,0.5 Z" id="11"></path>
            </g>
        </g>
    </g>
</svg>
