<?xml version="1.0" encoding="UTF-8"?>
<svg width="948px" height="243px" viewBox="0 0 948 243" version="1.1" xmlns="http://www.w3.org/2000/svg" xmlns:xlink="http://www.w3.org/1999/xlink">
    <title>board</title>
    <g id="Page-1" stroke="none" stroke-width="1" fill="none" fill-rule="evenodd">
        <g id="board" transform="translate(1.686389, 1.000000)" fill="#979797" stroke="#979797" >
            <g id="top" transform="translate(42.528455, 0.000000)">
                <path d="M714.153121,1.2132872 L714.153121,55.6513218 C713.771611,57.6970501 713.224633,59.036567 712.512187,59.6698724 C711.799741,60.3031779 710.261048,60.8176495 707.896109,61.2132872 L558.728794,55.6513218 C556.511549,55.5842418 554.997139,55.3168912 554.185562,54.8492702 C553.373984,54.3816491 552.696504,53.3860581 552.153121,51.8624969 L552.153121,20.4925685 C558.782122,20.6330029 563.305896,20.5095368 565.724443,20.1221702 C568.14299,19.7348036 569.585904,19.3634051 570.053184,19.0079748 C585.068933,9.09975953 593.225668,3.76498366 594.52339,3.00364715 C596.469974,1.86164237 598.761629,1.2992429 600.238281,1.2992429 L714.153121,1.2132872 Z" id="21" transform="translate(633.153121, 31.213287) scale(-1, 1) translate(-633.153121, -31.213287) "></path>
            </g>
        </g>
    </g>
</svg>
