<?xml version="1.0" encoding="UTF-8"?>
<svg width="948px" height="243px" viewBox="0 0 948 243" version="1.1" xmlns="http://www.w3.org/2000/svg" xmlns:xlink="http://www.w3.org/1999/xlink">
    <title>board</title>
    <g id="Page-1" stroke="none" stroke-width="1" fill="none" fill-rule="evenodd">
        <g id="board" transform="translate(1.686389, 1.000000)">
            <g id="left" transform="translate(24.841018, 54.000000)" fill="#979797" stroke="#979797">
                <path d="M218.22765,59.5 C220.346676,59.4999955 222.366814,60.396391 223.788657,61.9675794 C228.290967,66.9427963 230.56358,71.9489687 230.56358,77 C230.56358,82.0510302 228.290968,87.0572014 223.78866,92.0324172 C222.366818,93.6036049 220.34668,94.5 218.227655,94.5 L218.227655,94.5 L173.836849,94.5 C172.046925,94.4999943 170.316017,93.8598463 168.956821,92.6951952 C164.433324,88.8191584 162.182099,83.5840005 162.182099,77 C162.182099,70.4159932 164.433328,65.1808316 168.956833,61.3047942 C170.316031,60.140147 172.046938,59.5 173.83686,59.5 L173.83686,59.5 Z" id="4"></path>
            </g>
        </g>
    </g>
</svg>
