<?xml version="1.0" encoding="UTF-8"?>
<svg width="948px" height="243px" viewBox="0 0 948 243" version="1.1" xmlns="http://www.w3.org/2000/svg" xmlns:xlink="http://www.w3.org/1999/xlink">
    <title>board</title>
    <g id="Page-1" stroke="none" stroke-width="1" fill="none" fill-rule="evenodd">
        <g id="board" transform="translate(1.686389, 1.000000)">
            <g id="left" transform="translate(24.841018, 54.000000)" fill="#979797" stroke="#979797">
                <path d="M339.575665,59.5 C341.612698,59.5000025 343.562105,60.328586 344.975734,61.7952689 C349.984853,66.992384 352.515426,72.2215334 352.515426,77.5 C352.515426,82.7784655 349.984854,88.0076138 344.975736,93.2047286 C343.56211,94.6714157 341.612701,95.5 339.575666,95.5 L339.575666,95.5 L269.341428,95.5 C268.112372,95.5000046 266.902151,95.1979559 265.817234,94.620432 C261.709018,92.4335422 258.622278,89.8691163 256.567571,86.9159777 C254.531724,83.989944 253.515426,80.6842719 253.515426,77 C253.515426,73.2946892 254.543417,70.0435684 256.606394,67.2490221 C258.688123,64.4290732 261.815955,62.0763408 265.97783,60.1769601 C266.955315,59.7308655 268.017238,59.5 269.091704,59.5 L269.091704,59.5 Z" id="5"></path>
            </g>
        </g>
    </g>
</svg>
