<?xml version="1.0" encoding="UTF-8"?>
<svg width="948px" height="243px" viewBox="0 0 948 243" version="1.1" xmlns="http://www.w3.org/2000/svg" xmlns:xlink="http://www.w3.org/1999/xlink">
    <title>board</title>
    <g id="Page-1" stroke="none" stroke-width="1" fill="none" fill-rule="evenodd">
        <g id="board" transform="translate(1.686389, 1.000000)">
            <g id="middle" transform="translate(398.177150, 113.000000)" fill="#979797" stroke="#979797">
                <path d="M132.197861,0.5 C134.063195,0.499999661 135.861589,1.19510694 137.242024,2.44964669 C142.721766,7.42963867 145.5,12.4375696 145.5,17.5 C145.5,22.5624284 142.721768,27.5703575 137.24203,32.5503484 C135.861597,33.8048923 134.063201,34.5 132.197866,34.5 L132.197866,34.5 L14.0676313,34.5 C12.2782752,34.4999962 10.5478777,33.8602534 9.18885597,32.6962708 C3.42385273,27.7586281 0.5,22.7031175 0.5,17.5 C0.5,12.2968798 3.42385575,7.2413667 9.18886426,2.30372214 C10.5478878,1.13974261 12.2782847,0.5 14.0676403,0.5 L14.0676403,0.5 L132.197861,0.5 Z" id="6"></path>
            </g>
        </g>
    </g>
</svg>
