<?xml version="1.0" encoding="UTF-8"?>
<svg width="791px" height="274px" viewBox="0 0 791 274" version="1.1" xmlns="http://www.w3.org/2000/svg" xmlns:xlink="http://www.w3.org/1999/xlink">
    <title>metolius_simulator_3d</title>
    <g id="Page-1" stroke="none" stroke-width="1" fill="none" fill-rule="evenodd">
        <g id="board" transform="translate(0.778166, 0.826178)" stroke="#979797">
            <g id="left" transform="translate(0.144305, 39.916192)" fill="#979797">
                <path d="M104.840439,37.4063047 C104.840439,37.3190977 84.4416722,24.8683014 73.5413755,20.6841809 C66.274511,17.8947673 60.2472052,17.1504492 55.459458,18.4512265 C46.3508995,20.5741999 39.274421,22.7550045 34.2300227,24.9936402 C26.6634253,28.3515938 18.4080543,31.506566 12.7472998,37.4063047 C7.08654542,43.3060433 3.06349835,52.8821219 1.6824254,62.0318425 C0.30135246,71.1815631 -2.38942088,81.1726969 4.58586186,91.4764951 C4.58586186,84.4500307 8.75628102,72.1322332 16.2730539,62.0318425 C25.9285015,49.0576851 47.4539864,40.2991945 55.8871168,38.8228023 C62.8689632,37.5547648 91.9935606,33.5380244 104.840439,37.4063047 Z" id="1"></path>
            </g>
        </g>
    </g>
</svg>
