<?xml version="1.0" encoding="UTF-8"?>
<svg width="1532px" height="407px" viewBox="0 0 1532 407" version="1.1" xmlns="http://www.w3.org/2000/svg" xmlns:xlink="http://www.w3.org/1999/xlink">
    <title>board</title>
    <g id="Page-1" stroke="none" stroke-width="1" fill="none" fill-rule="evenodd">
        <g id="board" transform="translate(0.640985, 0.000000)">
            <path d="M765.359015,395.101199 L191.433234,405.704715 C180.450443,404.452892 172.702396,402.585705 168.189093,400.103153 C163.67579,397.6206 158.319019,392.279455 152.118781,384.079715 C100.429018,304.218963 63.3424296,243.307505 40.8590152,201.34534 C18.3756009,159.383175 4.93354359,125.989946 0.532843352,101.165653 C-1.21349024,80.9452342 1.33273372,65.302005 8.17151523,54.235965 C18.8160465,40.985965 24.8277652,29.6636994 50.2164371,20.7711213 C67.1422184,14.8427359 93.6747704,9.39677234 129.814093,4.43323067 C156.681404,1.18892311 177.221117,1.18892311 191.433234,4.43323067 C205.64535,7.67753823 221.947434,16.0876945 240.339484,29.6636994 L278.675421,64.5855744 C378.018049,57.3140467 455.797997,52.6675623 512.015265,50.6461213 C568.232533,48.6246803 652.68045,47.4378313 765.359015,47.0855744 C878.037581,47.4378313 962.485497,48.6246803 1018.70277,50.6461213 C1074.92003,52.6675623 1152.69998,57.3140467 1252.04261,64.5855744 L1290.37855,29.6636994 C1308.7706,16.0876945 1325.07268,7.67753823 1339.2848,4.43323067 C1353.49691,1.18892311 1374.03663,1.18892311 1400.90394,4.43323067 C1437.04326,9.39677234 1463.57581,14.8427359 1480.50159,20.7711213 C1505.89027,29.6636994 1511.90198,40.985965 1522.54652,54.235965 C1529.3853,65.302005 1531.93152,80.9452342 1530.18519,101.165653 C1525.78449,125.989946 1512.34243,159.383175 1489.85902,201.34534 C1467.3756,243.307505 1430.28901,304.218963 1378.59925,384.079715 C1372.39901,392.279455 1367.04224,397.6206 1362.52894,400.103153 C1358.01563,402.585705 1350.26759,404.452892 1339.2848,405.704715 L765.359015,395.101199" id="background" stroke="#979797" fill="#D8D8D8"></path>
            <g id="top" transform="translate(0.000000, -0.000000)">
                <path d="M1252.04261,63.5855744 L1290.37855,28.6636994 C1308.7706,15.0876945 1325.07268,6.67753823 1339.2848,3.43323067 C1353.49691,0.188923109 1374.03663,0.188923109 1400.90394,3.43323067 C1437.04326,8.39677234 1463.57581,13.8427359 1480.50159,19.7711213 C1505.89027,28.6636994 1511.90198,39.985965 1522.54652,53.235965 C1527.1057,60.613325 1529.65193,76.2565542 1530.18519,100.165653 C1495.72946,90.1485508 1457.84593,81.2885248 1416.53459,73.5855744 C1375.22326,65.882624 1320.39259,62.5492907 1252.04261,63.5855744 Z" id="17"></path>
                <path d="M1018.69495,64.5699494 L990.359015,149.848523 L1262.37855,131.209258 L1280.15003,50 C1216.01936,52.2996288 1167.66259,54.4389517 1135.07972,56.4179688 C1102.49684,58.3969858 1063.70192,61.1143127 1018.69495,64.5699494 Z" id="16" stroke="#979797" transform="translate(1135.254523, 99.924261) scale(-1, 1) translate(-1135.254523, -99.924261) "></path>
                <path d="M540.1305,50.015625 L522.359015,131.224883 L1008.29335,131.224883 L990.359015,50.015625 C887.724963,47.9406174 810.686486,46.9031136 759.243586,46.9031136 C707.800685,46.9031136 634.762989,47.9406174 540.1305,50.015625 Z" id="15"></path>
                <path d="M278.675421,64.5855744 L250.339484,149.864148 L522.359015,131.224883 L540.1305,50.015625 C475.999832,52.3152538 427.643061,54.4545767 395.060187,56.4335938 C362.477313,58.4126108 323.682391,61.1299377 278.675421,64.5855744 Z" id="14" stroke="#979797"></path>
                <path d="M0.532843352,99.1656525 C1.0661036,75.2565542 3.61232756,59.613325 8.17151523,52.235965 C18.8160465,38.985965 24.8277652,27.6636994 50.2164371,18.7711213 C67.1422184,12.8427359 93.6747704,7.39677234 129.814093,2.43323067 C156.681404,-0.811076891 177.221117,-0.811076891 191.433234,2.43323067 C205.64535,5.67753823 221.947434,14.0876945 240.339484,27.6636994 L278.675421,62.5855744 C205.196065,66.4733746 151.772112,70.6115164 118.403563,75 C85.0350134,79.3884836 45.7447737,87.4437011 0.532843352,99.1656525 Z" id="13"></path>
            </g>
            <g id="right" transform="translate(1053.359015, 79.000000)" fill="#D8D8D8" stroke="#979797">
                <rect id="12" transform="translate(221.000000, 240.500000) scale(-1, 1) rotate(-3.000000) translate(-221.000000, -240.500000) " x="144.5" y="215.5" width="153" height="50" rx="22"></rect>
                <rect id="11" transform="translate(49.500000, 227.500000) scale(-1, 1) translate(-49.500000, -227.500000) " x="1.5" y="202.5" width="96" height="50" rx="22"></rect>
                <rect id="10" transform="translate(253.500000, 120.500000) scale(-1, 1) rotate(-3.000000) translate(-253.500000, -120.500000) " x="145.5" y="95.5" width="216" height="50" rx="22"></rect>
                <rect id="9" transform="translate(48.500000, 111.500000) scale(-1, 1) translate(-48.500000, -111.500000) " x="0.5" y="86.5" width="96" height="50" rx="22"></rect>
                <rect id="8" transform="translate(348.500000, 35.500000) scale(-1, 1) rotate(-7.000000) translate(-348.500000, -35.500000) " x="266.5" y="10.5" width="164" height="50" rx="22"></rect>
            </g>
            <g id="center" transform="translate(522.359015, 155.847656)" fill="#D8D8D8" stroke="#979797">
                <path d="M244.589846,111.652902 C292.664095,111.689715 366.657704,113.548781 466.570676,117.229866 C470.73702,117.383365 474.469351,119.171153 477.160096,121.962858 C479.850841,124.754563 481.5,128.550186 481.5,132.719357 L481.5,132.719357 L481.5,161.724448 C481.5,166.004655 479.765104,169.879655 476.960156,172.684604 C474.155207,175.489552 470.280207,177.224449 466,177.224449 C465.818323,177.224449 465.63666,177.221255 465.455095,177.214868 C365.363301,173.693946 291.258597,171.933594 243.140985,171.933594 C194.954175,171.933594 119.417729,173.699021 16.5316494,177.230089 C12.2539612,177.3769 8.32173442,175.775936 5.42222697,173.068848 C2.52271957,170.36176 0.655931459,166.548547 0.509120468,162.270859 C0.503040603,162.093708 0.5,161.916465 0.5,161.739209 L0.5,161.739209 L0.5,132.733731 C0.50000008,128.561859 2.15122318,124.764285 4.84474112,121.972216 C7.53825906,119.180147 11.2740718,117.393584 15.4432513,117.243733 C118.114086,113.55349 193.529732,111.689805 241.689999,111.652903 L241.689999,111.652903 Z" id="7"></path>
                <path d="M244.589846,0.500557776 C292.664095,0.537370993 366.657704,2.39643724 466.570676,6.07752263 C470.73702,6.23102171 474.469351,8.01880893 477.160096,10.810514 C479.850841,13.6022193 481.5,17.3978426 481.5,21.5670135 L481.5,21.5670135 L481.5,50.5721044 C481.5,54.8523114 479.765104,58.7273116 476.960156,61.53226 C474.155207,64.3372085 470.280207,66.0721053 466,66.0721053 C465.818323,66.0721053 465.63666,66.0689111 465.455095,66.0625242 C366.36433,62.5768155 292.743483,60.8166353 244.592376,60.7817781 L244.592376,60.7817781 L241.687176,60.7817796 C193.440711,60.8167351 118.388868,62.581988 16.5316494,66.0777452 C12.2539612,66.2245561 8.32173448,64.6235927 5.42222704,61.9165046 C2.5227196,59.2094164 0.65593146,55.3962035 0.509120468,51.1185153 C0.503040603,50.9413639 0.5,50.7641213 0.5,50.5868657 L0.5,50.5868657 L0.5,21.5813869 C0.50000008,17.4095153 2.15122318,13.6119412 4.84474112,10.8198724 C7.53825906,8.02780351 11.2740718,6.24123989 15.4432513,6.09138929 C118.114086,2.40114609 193.529732,0.537461457 241.689999,0.500559134 L241.689999,0.500559134 Z" id="6"></path>
            </g>
            <g id="left" transform="translate(48.394647, 78.360735)" fill="#D8D8D8" stroke="#979797">
                <rect id="5" x="325.464368" y="203.139265" width="96" height="50" rx="22"></rect>
                <rect id="4" transform="translate(201.944837, 233.256453) rotate(-3.000000) translate(-201.944837, -233.256453) " x="125.444837" y="208.256453" width="153" height="50" rx="22"></rect>
                <rect id="3" x="326.464368" y="87.1392651" width="96" height="50" rx="22"></rect>
                <rect id="2" transform="translate(169.421198, 121.490683) rotate(-3.000000) translate(-169.421198, -121.490683) " x="61.4211982" y="96.4906825" width="216" height="50" rx="22"></rect>
                <rect id="1" transform="translate(85.500000, 36.143413) rotate(-7.000000) translate(-85.500000, -36.143413) " x="3.5" y="11.1434128" width="164" height="50" rx="22"></rect>
            </g>
        </g>
    </g>
</svg>