<?xml version="1.0" encoding="UTF-8"?>
<svg width="443px" height="180px" viewBox="0 0 443 180" version="1.1" xmlns="http://www.w3.org/2000/svg" xmlns:xlink="http://www.w3.org/1999/xlink">
    <title>cliffboard_mini_front</title>
    <g id="Page-1" stroke="none" stroke-width="1" fill="none" fill-rule="evenodd">
        <g id="board">
            <g id="background" fill="#D8D8D8" stroke="#979797">
                <rect id="Rectangle" x="3.5" y="0.5" width="436" height="179"></rect>
                <rect id="Rectangle" x="0.5" y="0.5" width="442" height="45" rx="4"></rect>
                <rect id="Rectangle" x="0.5" y="85.5" width="442" height="23" rx="4"></rect>
                <rect id="Rectangle" x="0.5" y="159.5" width="442" height="20" rx="4"></rect>
            </g>
            <g id="middle" transform="translate(155.000000, 48.000000)" stroke="#979797">
                <rect id="9" x="0.5" y="0.5" width="130" height="34" rx="12"></rect>
            </g>
            <g id="right" transform="translate(331.750000, 90.000000) scale(-1, 1) translate(-331.750000, -90.000000) translate(221.000000, 0.000000)">
                <path d="M4,159 L221.5,159 L221.5,159 L221.5,180 L4,180 C1.790861,180 2.705415e-16,178.209139 0,176 L0,163 C-1.15871992e-15,160.790861 1.790861,159 4,159 Z" id="8"></path>
                <rect id="7" stroke="#979797" x="29.5" y="111.5" width="130" height="34" rx="12"></rect>
                <path d="M4,85 L221.5,85 L221.5,85 L221.5,109 L4,109 C1.790861,109 2.705415e-16,107.209139 0,105 L0,89 C-1.15871992e-15,86.790861 1.790861,85 4,85 Z" id="6"></path>
                <path d="M4,0 L221.5,0 L221.5,0 L221.5,46 L4,46 C1.790861,46 2.705415e-16,44.209139 0,42 L0,4 C-7.1463071e-16,1.790861 1.790861,4.05812251e-16 4,0 Z" id="5"></path>
            </g>
            <g id="left">
                <path d="M4,159 L221.5,159 L221.5,159 L221.5,180 L4,180 C1.790861,180 2.705415e-16,178.209139 0,176 L0,163 C-1.15871992e-15,160.790861 1.790861,159 4,159 Z" id="4"></path>
                <rect id="3" stroke="#979797" x="29.5" y="111.5" width="130" height="34" rx="12"></rect>
                <path d="M4,85 L221.5,85 L221.5,85 L221.5,109 L4,109 C1.790861,109 2.705415e-16,107.209139 0,105 L0,89 C-1.15871992e-15,86.790861 1.790861,85 4,85 Z" id="2"></path>
                <path d="M4,0 L221.5,0 L221.5,0 L221.5,46 L4,46 C1.790861,46 2.705415e-16,44.209139 0,42 L0,4 C-7.1463071e-16,1.790861 1.790861,4.05812251e-16 4,0 Z" id="1"></path>
            </g>
        </g>
    </g>
</svg>