<?xml version="1.0" encoding="UTF-8"?>
<svg width="1304px" height="414px" viewBox="0 0 1304 414" version="1.1" xmlns="http://www.w3.org/2000/svg" xmlns:xlink="http://www.w3.org/1999/xlink">
    <title>mountain_rocks</title>
    <g id="Page-1" stroke="none" stroke-width="1" fill="none" fill-rule="evenodd">
        <g id="board" transform="translate(1.000000, 1.000000)">
            <g id="background" stroke="#979797">
                <path d="M35.0508908,411.776047 C31.1872299,411.776047 27.0035614,410.050805 23.8566685,406.773704 C23.7227581,406.634253 23.5890489,406.495072 23.4557488,406.355857 L23.0572841,405.937807 C20.2134003,402.936702 17.6548495,399.779488 17.449832,393.445628 C17.449832,388.290565 18.4709098,358.300565 20.5130654,303.475629 C17.4652324,301.975765 15.2698487,300.580996 13.9269144,299.29132 C12.5839801,298.001645 11.4398008,295.86918 10.4943765,292.893926 L10.4943765,292.893926 L12.9269144,198.190639 C9.83107969,195.775939 7.02023372,193.362174 4.49437649,190.949342 C1.96851926,188.536511 0.470393761,184.564444 0,179.033141 L0,179.033141 L0.984253796,89.9255533 C0.994607142,88.9882324 1.2244322,88.0663756 1.65530286,87.2338925 L1.65530286,87.2338925 L40.988461,11.2384859 C41.8362964,9.60038731 43.5171322,8.56211082 45.3614673,8.53721695 L45.3614673,8.53721695 L651,0.362627194 L1256.63853,8.53721695 C1258.48287,8.56211082 1260.1637,9.60038731 1261.01154,11.2384859 L1300.3447,87.2338925 C1300.77557,88.0663756 1301.00539,88.9882324 1301.01575,89.9255533 L1302,179.033141 C1301.52961,184.564444 1300.03148,188.536511 1297.50562,190.949342 C1294.97977,193.362174 1292.16892,195.775939 1289.07309,198.190639 L1291.50562,292.893926 C1290.5602,295.86918 1289.41602,298.001645 1288.07309,299.29132 C1286.73015,300.580996 1284.53477,301.975765 1281.48693,303.475629 C1283.52909,358.300565 1284.55017,388.290565 1284.55017,393.445628 C1284.34515,399.779488 1281.7866,402.936702 1278.94272,405.937807 L1278.54425,406.355857 C1278.41095,406.495072 1278.27724,406.634253 1278.14333,406.773704 C1274.99644,410.050805 1270.81277,411.776047 1266.94911,411.776047 Z" id="Combined-Shape" fill="#D8D8D8"></path>
                <g id="chrome-right" transform="translate(969.963457, 257.842849) scale(-1, 1) translate(-969.963457, -257.842849) translate(650.926914, 103.908566)">
                    <path d="M0,94.2820732 C2.60116305,95.423387 4.7328448,96.1882734 6.39504526,96.5767326 C8.05724572,96.9651918 10.6854554,97.3127004 14.2796742,97.6192584 L353.024152,97.6192584 C358.301841,95.8250107 361.533215,93.5195885 362.718275,90.7029919 C363.903336,87.8863952 364.570002,82.001522 364.718275,73.0483725 L365.333086,15.5001044 C364.344981,8.38206149 365.539197,3.94878435 368.915732,2.20027296 C372.292268,0.451761555 379.507903,-0.254620467 390.562639,0.0811268902 L638.073086,0.0811268902" id="Path-2"></path>
                    <path d="M7.586151,199.567063 C9.5096871,201.02316 11.5754418,202.087677 13.7834151,202.760613 C15.9913884,203.433549 18.7838512,203.849699 22.1608035,204.009061 C135.345634,205.75756 246.907267,205.75756 356.8457,204.009061 C363.023274,203.91081 362.837562,201.959824 364.255024,199.567063 C365.199999,197.971889 365.558741,194.677848 365.331251,189.68494 L365.073086,10.3895169" id="Path-3"></path>
                    <path d="M360.577276,307.868566 C366.292396,306.258891 370.039262,304.472781 371.817876,302.510238 C373.59649,300.547694 374.97838,296.674672 375.963546,290.891171 L375.963546,26.1138903 C375.306899,20.3821932 375.640232,17.0527271 376.963546,16.1254921 C378.28686,15.1982571 381.753771,14.8649238 387.364279,15.1254921 L638.073086,15.1254921" id="Path-4"></path>
                </g>
                <g id="chrome-left" transform="translate(12.926914, 103.908566)">
                    <path d="M0,94.2820732 C2.60116305,95.423387 4.7328448,96.1882734 6.39504526,96.5767326 C8.05724572,96.9651918 10.6854554,97.3127004 14.2796742,97.6192584 L353.024152,97.6192584 C358.301841,95.8250107 361.533215,93.5195885 362.718275,90.7029919 C363.903336,87.8863952 364.570002,82.001522 364.718275,73.0483725 L365.333086,15.5001044 C364.344981,8.38206149 365.539197,3.94878435 368.915732,2.20027296 C372.292268,0.451761555 379.507903,-0.254620467 390.562639,0.0811268902 L638.073086,0.0811268902" id="Path-2"></path>
                    <path d="M7.586151,199.567063 C9.5096871,201.02316 11.5754418,202.087677 13.7834151,202.760613 C15.9913884,203.433549 18.7838512,203.849699 22.1608035,204.009061 C135.345634,205.75756 246.907267,205.75756 356.8457,204.009061 C363.023274,203.91081 362.837562,201.959824 364.255024,199.567063 C365.199999,197.971889 365.558741,194.677848 365.331251,189.68494 L365.073086,10.3895169" id="Path-3"></path>
                    <path d="M360.577276,307.868566 C366.292396,306.258891 370.039262,304.472781 371.817876,302.510238 C373.59649,300.547694 374.97838,296.674672 375.963546,290.891171 L375.963546,26.1138903 C375.306899,20.3821932 375.640232,17.0527271 376.963546,16.1254921 C378.28686,15.1982571 381.753771,14.8649238 387.364279,15.1254921 L638.073086,15.1254921" id="Path-4"></path>
                </g>
                <path d="M452.029057,23.5445027 C448.634895,23.5445027 446.60448,24.2902381 445.937813,25.781709 L445.937813,25.781709 L443,30.5892721 L449.508609,2.75135345 L650.499,0.001 L650.5,0 L650.55,0.001 L650.600712,0 L650.6,0.001 L851.592103,2.75135345 L858.100712,30.5892721 L855.162899,25.781709 C854.496232,24.2902381 852.465818,23.5445027 849.071655,23.5445027 Z" id="Combined-Shape"></path>
                <g id="logo" transform="translate(588.024351, 37.000000)">
                    <path d="M36.6460757,6.6167798 L34.2050069,6.6167798 L28.2360696,15.9384207 C28.2360696,17.226744 29.2804621,18.2711365 30.5687855,18.2711365 L32.4410727,18.2711365 L32.4410727,18.2711365 L38.1215396,9.0614043 L36.6460757,6.6167798 Z" id="Path" fill="#979797"></path>
                    <path d="M32.4410727,18.2711365 L32.4410727,32.4380323 L27.8197852,41.4397004 C28.0204927,43.2664069 29.6640365,44.5845395 31.490743,44.383832 C31.6400947,44.3674221 31.7881633,44.3409152 31.9339324,44.3044932 L32.0062626,44.2864207 L32.0062626,44.2864207 L36.2218372,35.1516452 L36.6493402,26.2554368 L43.9215484,29.5796153 L44.3662129,35.1516452 C45.0859779,36.266665 46.5733648,36.5870823 47.6883846,35.8673173 C47.8443558,35.7666351 47.9881346,35.648218 48.116844,35.5144353 L48.4658765,35.1516452 L48.4658765,35.1516452 L47.885315,27.9690454 L46.4248994,25.4385872 L41.2378299,22.5343223 L41.2378299,20.4945608 L43.9215484,16.2957254 L45.4699733,16.2957254 L46.8510075,18.2711365 L49.0121749,19.1754124 L52.5265395,20.4945608 L54.2254673,19.9047933 L54.6485816,17.5250996 L53.1091036,17.0257364 L51.82787,17.0257364 L50.5649038,16.2957254 L49.5864596,15.6775019 L49.0121749,15.6775019 L48.4658765,14.729469 L47.4552614,14.729469 L46.8510075,13.6443459 L46.0124009,12.8863684 L45.4699733,12.4439582 L45.4699733,11.2440224 L44.3662129,10.5656889 L43.9215484,9.94249512 L43.9215484,9.26150023 L42.8142312,9.26150023 L42.2956054,8.55232588 L41.2378299,8.55232588 L40.189868,8.55232588 L38.96656,8.55232588 L38.1215396,8.55232588 L32.4410727,18.2711365 Z" id="Path-5" fill="#979797"></path>
                    <circle id="Oval" fill="#979797" cx="44.4756491" cy="3.5" r="3"></circle>
                    <polyline id="Path-6" fill="#979797" points="66.5287374 1.1078041 67.2043051 1.34501342 68.3547201 1.74895394 68.3547201 44.3312299 39.0330888 44.3312299 39.0330888 41.5107674 42.3130608 41.5107674 42.3130608 40.2162878 46.6877218 40.2162878 46.6877218 39.5370663 49.5166729 39.5370663 49.5166729 38.4826384 50.41866 38.4826384 50.41866 35.6727667 51.5141609 35.6727667 53.6939045 35.6727667 54.6485816 35.6727667 54.6485816 34.2127198 56.7858523 34.2127198 57.8162392 34.2127198 57.8162392 33.3627752 58.9405585 33.3627752 59.413847 33.3627752 59.413847 32.1259671 59.413847 31.3934728 60.4893869 31.3934728 60.4893869 30.4755597 60.4893869 29.1118961 59.413847 29.1118961 59.413847 28.0507182 58.9405585 28.0507182 58.4142063 27.4305183 58.4142063 26.3988063 57.8162392 25.4380218 57.3718039 24.7258373 56.7858523 24.7258373 56.7858523 23.2890444 56.7858523 22.7186365 56.7858523 21.4817027 57.3718039 20.9931706 57.3718039 20.3916865 57.3718039 19.1866259 58.4142063 19.1866259 58.4142063 17.8186334 58.4142063 16.1651473 59.413847 16.1651473 59.413847 14.4345766 60.4893869 14.4345766 60.4893869 13.5012754 61.2801206 13.5012754 61.2801206 12.4439582 62.2469229 12.4439582 62.2469229 11.2765134 63.5408445 11.2765134 63.5408445 7.50433785 64.6343279 7.50433785 64.6343279 4.284852 65.393907 3.5 65.393907 1.74895394 65.393907 -1.0658141e-14 66.5287374 -1.0658141e-14"></polyline>
                    <polyline id="Path-7" points="-1.99840144e-15 57.5158742 1.40132259 57.5158742 2.873673 57.5158742"></polyline>
                    <polyline id="Path-8" points="1.40132259 57.5158742 1.40132259 49.2501564 4.36185499 56.4813633 5.51546301 56.4813633 8.43861824 49.7163688 8.43861824 57.5158742 7.1803602 57.5158742 9.6355507 57.5158742"></polyline>
                    <ellipse id="Oval" cx="14.4756491" cy="55" rx="2" ry="2.5"></ellipse>
                    <ellipse id="Oval" cx="73.4756491" cy="55.5" rx="2" ry="2.5"></ellipse>
                    <path d="M19.3088768,52.4020664 C19.3088768,52.4020664 19.7300238,52.4020664 20.5723179,52.4020664 C20.5723179,55.8112716 20.5723179,57.5158742 20.5723179,57.5158742 C20.5723179,57.5158742 21.562013,57.5158742 23.5414033,57.5158742 L23.5414033,52.5381919 L23.5414033,52" id="Path-9"></path>
                    <line x1="22.1333179" y1="52.507128" x2="24.8168545" y2="52.507128" id="Path-10"></line>
                    <polyline id="Path-12" points="36.3639474 50.5 36.3639474 57.5158742 37.5186813 58"></polyline>
                    <line x1="35.1269723" y1="52.507128" x2="37.5186813" y2="52.507128" id="Path-13"></line>
                    <path d="M40.5113107,53.3830153 L41.2341834,52.507128 L42.5083839,52.507128 L43.5277661,53.3830153 L43.5277661,57.8 L42.5083839,58.0158742 L40.5113107,58.0158742 C40.5113107,57.0363855 40.5113107,56.5466412 40.5113107,56.5466412 C40.5113107,56.5466412 40.7522683,56.1182612 41.2341834,55.2615011 L42.5083839,55 L43.1101814,55" id="Path-14"></path>
                    <line x1="47.9229263" y1="53.3830153" x2="47.9229263" y2="58.0158742" id="Path-15"></line>
                    <line x1="47.9229263" y1="50.5" x2="47.9229263" y2="49.2501564" id="Path-16"></line>
                    <path d="M27.8197852,57.8 C27.8197852,57.8 27.8197852,56.0357093 27.8197852,52.507128 L27.0999772,52.507128 L31.1669384,52.507128 L31.8097118,53.3830153 L31.8097118,57.7" id="Path-11"></path>
                    <path d="M51.8197852,57.8 C51.8197852,57.8 51.8197852,56.0357093 51.8197852,52.507128 L51.0999772,52.507128 L55.1669384,52.507128 L55.8097118,53.3830153 L55.8097118,57.7" id="Path-11"></path>
                    <polyline id="Path-17" points="62.9025635 58.0158742 64.0439409 58.0158742 65.2909387 58.0158742"></polyline>
                    <polyline id="Path-18" points="63.6211448 58.0158742 63.6211448 50.5 67.6169347 50.5 67.9944972 52.9613683 67.1714111 54.25 64.0967511 54.2579371"></polyline>
                    <polyline id="Path-19" points="67.3527201 54.2579371 67.9944972 58.0158742 69.1634602 58.0158742"></polyline>
                    <path d="M82.9076932,54.011934 L81.8663755,53.1449493 L80.5071197,52.7 L79.4749219,53.1449493 L78.5378577,54.019871 L78.5378577,55.4613787 C78.5378577,56.1630778 78.5378577,56.5139273 78.5378577,56.5139273 C78.5378577,56.5139273 78.7478464,56.9936823 79.1113842,57.2778081 C79.3537427,57.4672253 79.8189878,57.633892 80.5071197,57.7778081 L81.3777897,57.7778081 L82.2586866,57.7778081 L82.9076932,57.561934" id="Path-20"></path>
                    <g id="k" transform="translate(85.537130, 49.500000)">
                        <path d="M0.5,8.64079596 C0.5,8.64079596 0.5,7.55166397 0.5,5.6018919 C0.5,4.66748921 0.5,2.80019191 0.5,0" id="Path-21"></path>
                        <polyline id="Path-22" points="1 5.6018919 2.79611559 5.6018919 4.61759356 2.63204978"></polyline>
                        <line x1="2.80879678" y1="5.82436652" x2="4.61759356" y2="8.64079596" id="Path-23"></line>
                    </g>
                </g>
                <path d="M684.641756,89.3830153 L683.820339,88.938066 C683.539582,88.938066 683.26254,88.938066 682.989214,88.938066 C682.715888,88.938066 682.299192,89.0863825 681.739125,89.3830153 L680.847933,90.2579371 L680.847933,91.2615011 L681.739125,92.1369056 C682.246692,92.1369056 682.581932,92.1369056 682.744845,92.1369056 C682.907758,92.1369056 683.266256,92.1369056 683.820339,92.1369056 L684.641756,93.1076595 L684.641756,93.5158742 L684.193013,94 L683.361352,94.5158742 L682.744845,94.5158742 L682.226885,94.5158742 L681.739125,94.5158742 L680.847933,94.5158742" id="Path-24"></path>
            </g>
            <g id="right" transform="translate(975.500000, 201.678686) scale(-1, 1) translate(-975.500000, -201.678686) translate(651.000000, 0.360000)">
                <circle id="26" stroke="#979797" cx="513" cy="297.637373" r="104.5"></circle>
                <path d="M441.399288,30.5892721 L444.337101,25.781709 C445.003768,24.2902381 447.034182,23.5445027 450.428345,23.5445027 C505.241823,23.5445027 571.432375,23.5445027 649,23.5445027 L649,0 L447.907897,2.75135345 L441.399288,30.5892721 Z" id="25"></path>
                <circle id="24" stroke="#979797" cx="330" cy="358.637373" r="23.5"></circle>
                <rect id="23" stroke="#979797" x="188.5" y="335.137373" width="91" height="47" rx="23.5"></rect>
                <rect id="22" stroke="#979797" x="26.5" y="335.137373" width="148" height="47" rx="23.5"></rect>
                <circle id="21" stroke="#979797" cx="330" cy="254.637373" r="23.5"></circle>
                <rect id="20" stroke="#979797" x="188.5" y="231.137373" width="91" height="47" rx="23.5"></rect>
                <rect id="19" stroke="#979797" x="26.5" y="231.137373" width="148" height="47" rx="23.5"></rect>
                <circle id="18" stroke="#979797" cx="330" cy="150.637373" r="23.5"></circle>
                <rect id="17" stroke="#979797" x="188.5" y="127.137373" width="91" height="47" rx="23.5"></rect>
                <rect id="16" stroke="#979797" x="19.5" y="127.137373" width="148" height="47" rx="23.5"></rect>
                <polygon id="15" stroke="#979797" points="226.063601 38.74411 439.431227 38.74411 447.907897 2.75135345 241.828954 5.43737281"></polygon>
                <path d="M241.828954,5.43737281 L202.709219,87.1373728 L2.84217094e-14,87.1373728 L38.9942986,10.896246 C39.83792,9.24680881 41.5244303,8.19904916 43.3769118,8.17350828 L241.828954,5.43737281 L241.828954,5.43737281 Z" id="14" stroke="#979797"></path>
            </g>
            <g id="left" transform="translate(2.000000, 0.362627)">
                <circle id="13" stroke="#979797" cx="513" cy="297.637373" r="104.5"></circle>
                <path d="M441.399288,30.5892721 L444.337101,25.781709 C445.003768,24.2902381 447.034182,23.5445027 450.428345,23.5445027 C505.241823,23.5445027 571.432375,23.5445027 649,23.5445027 L649,0 L447.907897,2.75135345 L441.399288,30.5892721 Z" id="12"></path>
                <circle id="11" stroke="#979797" cx="330" cy="358.637373" r="23.5"></circle>
                <rect id="10" stroke="#979797" x="188.5" y="335.137373" width="91" height="47" rx="23.5"></rect>
                <rect id="9" stroke="#979797" x="26.5" y="335.137373" width="148" height="47" rx="23.5"></rect>
                <circle id="8" stroke="#979797" cx="330" cy="254.637373" r="23.5"></circle>
                <rect id="7" stroke="#979797" x="188.5" y="231.137373" width="91" height="47" rx="23.5"></rect>
                <rect id="6" stroke="#979797" x="26.5" y="231.137373" width="148" height="47" rx="23.5"></rect>
                <circle id="5" stroke="#979797" cx="330" cy="150.637373" r="23.5"></circle>
                <rect id="4" stroke="#979797" x="188.5" y="127.137373" width="91" height="47" rx="23.5"></rect>
                <rect id="3" stroke="#979797" x="19.5" y="127.137373" width="148" height="47" rx="23.5"></rect>
                <polygon id="2" stroke="#979797" points="226.063601 38.74411 439.431227 38.74411 447.907897 2.75135345 241.828954 5.43737281"></polygon>
                <path d="M241.828954,5.43737281 L202.709219,87.1373728 L2.84217094e-14,87.1373728 L38.9942986,10.896246 C39.83792,9.24680881 41.5244303,8.19904916 43.3769118,8.17350828 L241.828954,5.43737281 L241.828954,5.43737281 Z" id="1" stroke="#979797"></path>
            </g>
        </g>
    </g>
</svg>
