<?xml version="1.0" encoding="UTF-8"?>
<svg width="1010px" height="201px" viewBox="0 0 1010 201" version="1.1" xmlns="http://www.w3.org/2000/svg" xmlns:xlink="http://www.w3.org/1999/xlink">
    <title>board</title>
    <g id="Page-1" stroke="none" stroke-width="1" fill="none" fill-rule="evenodd">
        <g id="board" transform="translate(0.500000, 1.000000)">
            <path d="M5.37434896,199.266439 C3.90074802,198.815005 2.91637302,198.368173 2.42122396,197.925944 C1.9260749,197.483715 1.4525506,196.628463 1.00065104,195.360189 L1.00065104,169.317871 C1.00065104,166.900979 1.48275232,165.256231 2.42122396,164.383626 C3.3596956,163.511022 5.44324595,162.778166 8.671875,162.185059 L8.671875,129.423991 C6.70299158,129.22333 5.30433707,128.773026 4.47591146,128.073079 C3.64748585,127.373133 2.96259002,126.06302 2.42122396,124.142741 L2.42122396,100.369303 C3.07829802,98.3247102 3.76319386,96.9688074 4.47591146,96.3015951 C5.18862906,95.6343827 6.58728357,95.0397646 8.671875,94.5177409 L11.9754574,94.5177409 L14.1419271,86.7664388 L14.1419271,50.5411784 L11.9754574,48.5633138 C8.64091304,48.0789609 6.44054355,47.2481232 5.37434896,46.0708008 C4.30815436,44.8934783 3.7696344,42.6999562 3.75878906,39.4902344 C3.75878906,27.4580964 3.75878906,19.6493399 3.75878906,16.0639648 C3.75878906,5.21554905 6.09277344,2.41650391 11.9754574,1.47216797 C15.8972467,0.842610677 180.072094,0.842610677 504.5,1.47216797 C828.927906,0.842610677 993.102753,0.842610677 997.024543,1.47216797 C1002.90723,2.41650391 1005.24121,5.21554905 1005.24121,16.0639648 C1005.24121,19.6493399 1005.24121,27.4580964 1005.24121,39.4902344 C1005.23037,42.6999562 1004.69185,44.8934783 1003.62565,46.0708008 C1002.55946,47.2481232 1000.35909,48.0789609 997.024543,48.5633138 L994.858073,50.5411784 L994.858073,86.7664388 L997.024543,94.5177409 L1000.32812,94.5177409 C1002.41272,95.0397646 1003.81137,95.6343827 1004.52409,96.3015951 C1005.23681,96.9688074 1005.9217,98.3247102 1006.57878,100.369303 L1006.57878,124.142741 C1006.03741,126.06302 1005.35251,127.373133 1004.52409,128.073079 C1003.69566,128.773026 1002.29701,129.22333 1000.32812,129.423991 L1000.32812,162.185059 C1003.55675,162.778166 1005.6403,163.511022 1006.57878,164.383626 C1007.51725,165.256231 1007.99935,166.900979 1007.99935,169.317871 L1007.99935,195.360189 C1007.54745,196.628463 1007.07393,197.483715 1006.57878,197.925944 C1006.08363,198.368173 1005.09925,198.815005 1003.62565,199.266439 L504.5,199.266439 L5.37434896,199.266439 Z" id="background" stroke="#979797" fill="#D8D8D8"></path>
            <g id="hold_outlines" stroke="#979797">
                <path d="M4.87369792,199.08138 C3.40009697,198.629946 2.41572197,198.183114 1.92057292,197.740885 C1.42542386,197.298656 0.951899553,196.443405 0.5,195.17513 L0.5,169.132812 C0.5,166.71592 0.982101273,165.071172 1.92057292,164.198568 C2.85904456,163.325964 4.94259491,162.593108 8.17122396,162 L999.827474,162 C1003.0561,162.593108 1005.13965,163.325964 1006.07812,164.198568 C1007.0166,165.071172 1007.4987,166.71592 1007.4987,169.132812 L1007.4987,195.17513 C1007.0468,196.443405 1006.57327,197.298656 1006.07812,197.740885 C1005.58298,198.183114 1004.5986,198.629946 1003.125,199.08138 L503.999349,199.08138 L4.87369792,199.08138 Z" id="5-6"></path>
                <path d="M8.75153196,129.90625 C6.78264854,129.705589 5.38399403,129.255285 4.55556842,128.555339 C3.72714281,127.855392 3.04224698,126.545279 2.5,124.625 L2.5,100.851563 C3.15795499,98.8069693 3.84285082,97.4510665 4.55556842,96.7838542 C5.26828602,96.1166418 6.66694053,95.5220238 8.75153196,95 L12.0551144,95 L997.1042,95 L1000.40778,95 C1002.49237,95.5220238 1003.89103,96.1166418 1004.60375,96.7838542 C1005.31646,97.4510665 1006.00136,98.8069693 1006.65843,100.851563 L1006.65843,124.625 C1006.11707,126.545279 1005.43217,127.855392 1004.60375,128.555339 C1003.77532,129.255285 1002.37667,129.705589 1000.40778,129.90625 L8.75153196,129.90625 Z" id="3-4"></path>
                <path d="M12.2166684,47.5633138 C8.88212398,47.0789609 6.68175449,46.2481232 5.6155599,45.0708008 C4.5493653,43.8934783 4.01084533,41.6999562 4,38.4902344 C4,26.4580964 4,18.6493399 4,15.0639648 C4,4.21554905 6.33398438,1.41650391 12.2166684,0.472167969 C16.1384577,-0.157389323 180.313305,-0.157389323 504.741211,0.472167969 C829.169117,-0.157389323 993.343964,-0.157389323 997.265754,0.472167969 C1003.14844,1.41650391 1005.48242,4.21554905 1005.48242,15.0639648 C1005.48242,18.6493399 1005.48242,26.4580964 1005.48242,38.4902344 C1005.47158,41.6999562 1004.93306,43.8934783 1003.86686,45.0708008 C1002.80067,46.2481232 1000.6003,47.0789609 997.265754,47.5633138 L12.2166684,47.5633138 Z" id="1-2"></path>
            </g>
        </g>
    </g>
</svg>
