<?xml version="1.0" encoding="UTF-8"?>
<svg width="500px" height="129px" viewBox="0 0 500 129" version="1.1" xmlns="http://www.w3.org/2000/svg" xmlns:xlink="http://www.w3.org/1999/xlink">
    <title>board</title>
    <g id="Page-1" stroke="none" stroke-width="1" fill="none" fill-rule="evenodd">
        <g id="board" transform="translate(0.000145, 0.031250)">
            <path d="M484.272859,5.46875 C492.666269,19.3205477 497.424421,33.8324378 498.543748,49.0055353 C498.840846,53.0328586 498.946337,58.6002233 498.953336,64.8973038 L498.953336,64.8973038 L498.953355,66.2602547 C498.94835,71.067617 498.891308,76.2539408 498.821241,81.4773966 C498.797687,83.3503047 498.781154,85.0663337 498.426955,86.560962 C497.765021,88.1808009 497.677683,88.6511003 497.669021,89.6799105 L497.669021,89.6799105 L497.668344,107.96875 C497.668344,110.211562 497.322079,115.426518 493.145275,120.44783 C490.44803,123.690431 486.749837,125.984968 482.063002,127.342155 L482.063002,127.342155 L249.724849,126.470755 L17.839085,127.468462 C12.9367722,126.128046 9.0900706,123.792311 6.30808031,120.44783 C2.21662121,115.529119 1.80072907,110.424611 1.78548472,108.11335 L1.78548472,108.11335 L1.78501097,89.8574219 C1.78501097,88.6977344 1.72611202,88.273011 1.02591659,86.559505 C0.672673451,85.0671665 0.655749303,83.3565743 0.636050135,81.7843397 C0.562048626,76.2540318 0.505004925,71.0676608 0.5,66.2607824 L0.5,66.2607824 L0.500019086,64.8978523 C0.507017671,58.6002233 0.612509383,53.0328586 0.909607007,49.0055353 C2.02893387,33.8324378 6.78708637,19.3205477 15.1804959,5.46875 L15.1804959,5.46875 Z" id="Combined-Shape" stroke="#979797" fill="#D8D8D8"></path>
            <path d="" id="Path" stroke="#979797"></path>
            <line x1="0.548713793" y1="83.7138267" x2="497.904641" y2="83.7138267" id="Path-2" stroke="#979797"></line>
            <polyline id="Path-3" stroke="#979797" points="176.455135 5.43554688 174.554572 22.8502315 88.4875354 22.8502315 78.5461189 38.96875 1.54871379 38.96875"></polyline>
            <polyline id="Path-3" stroke="#979797" transform="translate(410.932854, 22.684409) scale(-1, 1) translate(-410.932854, -22.684409) " points="498.000127 5.5000682 496.042632 23.7502315 410.388046 23.7502315 400.494271 39.86875 323.865854 39.86875"></polyline>
            <g id="left" transform="translate(8.999855, 20.968750)" fill="#D8D8D8" stroke="#979797">
                <g id="bottom" transform="translate(0.000000, 69.000000)">
                    <rect id="9" x="154.5" y="0.5" width="37" height="17" rx="8"></rect>
                    <rect id="8" x="106.5" y="2.5" width="37" height="17" rx="8"></rect>
                    <circle id="7" cx="88" cy="11" r="8.5"></circle>
                    <rect id="6" x="0.5" y="2.5" width="68" height="17" rx="8"></rect>
                </g>
                <g id="top">
                    <rect id="5" x="156.5" y="29.5" width="37" height="17" rx="8"></rect>
                    <rect id="4" x="106.5" y="29.5" width="37" height="17" rx="8"></rect>
                    <circle id="3" cx="88" cy="35" r="8.5"></circle>
                    <rect id="2" x="0.5" y="29.5" width="68" height="17" rx="8"></rect>
                    <rect id="1" x="182.5" y="0.5" width="50" height="17" rx="8"></rect>
                    <rect id="21" x="126.5" y="29.5" width="17" height="17" rx="8"></rect>
                </g>
            </g>
            <g id="center" transform="translate(207.999855, 49.968750)" fill="#D8D8D8" stroke="#979797">
                <rect id="11" x="0.5" y="42.5" width="85" height="17" rx="8"></rect>
                <rect id="10" x="8.5" y="0.5" width="71" height="17" rx="8"></rect>
            </g>
            <g id="right" transform="translate(375.499855, 65.468750) scale(-1, 1) translate(-375.499855, -65.468750) translate(258.999855, 20.968750)" fill="#D8D8D8" stroke="#979797">
                <g id="bottom" transform="translate(0.000000, 69.000000)">
                    <rect id="20" x="0.5" y="2.5" width="68" height="17" rx="8"></rect>
                    <circle id="19" cx="88" cy="11" r="8.5"></circle>
                    <rect id="18" x="106.5" y="2.5" width="37" height="17" rx="8"></rect>
                    <rect id="17" x="154.5" y="0.5" width="37" height="17" rx="8"></rect>
                </g>
                <g id="top">
                    <rect id="16" x="0.5" y="29.5" width="68" height="17" rx="8"></rect>
                    <circle id="15" cx="88" cy="35" r="8.5"></circle>
                    <rect id="14" x="106.5" y="29.5" width="37" height="17" rx="8"></rect>
                    <rect id="13" x="156.5" y="29.5" width="37" height="17" rx="8"></rect>
                    <rect id="12" x="182.5" y="0.5" width="50" height="17" rx="8"></rect>
                    <rect id="22" x="126.5" y="29.5" width="17" height="17" rx="8"></rect>
                </g>
            </g>
            <g id="top" transform="translate(2.246681, 5.435547)">
                <path d="M481.57285,34.4332038 L491.466625,18.3146846 L495.153071,0 L418.7636,0 C414.400474,8.06838021 411.481933,14.0123385 410.007978,17.8318749 C408.278238,22.0933706 406.790423,27.6271469 405.544535,34.4332038 L481.57285,34.4332038 Z" id="27" transform="translate(450.348803, 17.216602) scale(-1, 1) translate(-450.348803, -17.216602) "></path>
                <polygon id="26" points="405.544535 0 321.619173 0.0645213248 323.576396 18.3146846 409.230981 18.3146846"></polygon>
                <polygon id="25" points="321.753174 0.0692569367 174.207543 0.0692569367 173.020663 10.9435573 322.891958 10.9435573"></polygon>
                <polygon id="24" points="174.207543 0.0692569367 89.2045158 0 86.3836286 17.4146846 172.307891 17.4146846"></polygon>
                <path d="M76.299438,33.5332031 L86.3930664,17.0332031 L89.2045158,0 L12.9404297,0 C9.22607118,6.53593235 6.63191428,11.7136667 5.15795898,15.5332031 C3.68400369,19.3527395 1.96468403,25.3527395 0,33.5332031 L76.299438,33.5332031 Z" id="23"></path>
            </g>
            <text id="beastmaker" fill="#979797" fill-rule="nonzero" font-family="Helvetica-Bold, Helvetica" font-size="14" font-weight="bold" line-spacing="14">
                <tspan x="94.9998547" y="43.96875">beastmaker</tspan>
            </text>
            <text id="2000-series" fill="#979797" fill-rule="nonzero" font-family="Helvetica-Bold, Helvetica" font-size="14" font-weight="bold" line-spacing="14">
                <tspan x="331.999855" y="43.96875">2000 series</tspan>
            </text>
        </g>
    </g>
</svg>
