<?xml version="1.0" encoding="UTF-8"?>
<svg width="1100px" height="192px" viewBox="0 0 1100 192" version="1.1" xmlns="http://www.w3.org/2000/svg" xmlns:xlink="http://www.w3.org/1999/xlink">
    <title>roots_baseline</title>
    <g id="Page-1" stroke="none" stroke-width="1" fill="none" fill-rule="evenodd">
        <g id="board">
            <rect id="background" stroke="#979797" fill="#D8D8D8" x="0.5" y="0.5" width="1099" height="191" rx="13"></rect>
            <path d="M315.216797,66 C315.522786,66 315.732747,65.9495443 315.84668,65.8486328 C315.960612,65.7477214 316.017578,65.5638021 316.017578,65.296875 C316.017578,65.0625 315.957357,64.8916016 315.836914,64.7841797 C315.716471,64.6767578 315.529297,64.6230469 315.275391,64.6230469 L315.275391,64.6230469 L312.033203,64.6230469 L312.033203,60.5800781 C312.716797,59.7988281 313.340169,59.2275391 313.90332,58.8662109 C314.466471,58.5048828 315.001953,58.3242188 315.509766,58.3242188 C315.789714,58.3242188 316.107096,58.4235026 316.461914,58.6220703 C316.816732,58.820638 317.06901,58.9199219 317.21875,58.9199219 C317.433594,58.9199219 317.630534,58.8271484 317.80957,58.6416016 C317.988607,58.4560547 318.078125,58.2428385 318.078125,58.0019531 C318.078125,57.6308594 317.899089,57.328125 317.541016,57.09375 C317.182943,56.859375 316.714193,56.7421875 316.134766,56.7421875 C315.360026,56.7421875 314.63737,56.9309896 313.966797,57.3085938 C313.296224,57.6861979 312.651693,58.2623698 312.033203,59.0371094 L312.033203,59.0371094 L312.033203,57.3769531 C312.033203,57.2467448 311.98763,57.1474609 311.896484,57.0791016 C311.805339,57.0107422 311.671875,56.9765625 311.496094,56.9765625 L311.496094,56.9765625 L309.269531,56.9765625 C309.009115,56.9765625 308.81543,57.0335286 308.688477,57.1474609 C308.561523,57.2613932 308.498047,57.4322917 308.498047,57.6601562 C308.498047,57.9270833 308.576172,58.1110026 308.732422,58.2119141 C308.888672,58.3128255 309.282552,58.3632812 309.914062,58.3632812 L309.914062,58.3632812 L310.578125,58.3632812 L310.578125,64.6230469 L308.878906,64.6230469 C308.598958,64.6230469 308.392253,64.6783854 308.258789,64.7890625 C308.125326,64.8997396 308.058594,65.0690104 308.058594,65.296875 C308.058594,65.53125 308.123698,65.7070312 308.253906,65.8242188 C308.384115,65.9414062 308.576172,66 308.830078,66 L308.830078,66 L315.216797,66 Z M324.992188,66.2441406 C326.509115,66.2441406 327.742839,65.8014323 328.693359,64.9160156 C329.64388,64.030599 330.119141,62.891276 330.119141,61.4980469 C330.119141,60.1113281 329.642253,58.9752604 328.688477,58.0898438 C327.734701,57.2044271 326.502604,56.7617188 324.992188,56.7617188 C323.481771,56.7617188 322.251302,57.2027995 321.300781,58.0849609 C320.35026,58.9671224 319.875,60.1048177 319.875,61.4980469 C319.875,62.891276 320.35026,64.030599 321.300781,64.9160156 C322.251302,65.8014323 323.481771,66.2441406 324.992188,66.2441406 Z M324.992188,64.8769531 C323.989583,64.8769531 323.169271,64.5611979 322.53125,63.9296875 C321.893229,63.2981771 321.574219,62.4876302 321.574219,61.4980469 C321.574219,60.514974 321.894857,59.7027995 322.536133,59.0615234 C323.177409,58.4202474 323.996094,58.0996094 324.992188,58.0996094 C325.988281,58.0996094 326.808594,58.4202474 327.453125,59.0615234 C328.097656,59.7027995 328.419922,60.514974 328.419922,61.4980469 C328.419922,62.4811198 328.099284,63.2900391 327.458008,63.9248047 C326.816732,64.5595703 325.994792,64.8769531 324.992188,64.8769531 Z M336.994141,66.2441406 C338.511068,66.2441406 339.744792,65.8014323 340.695312,64.9160156 C341.645833,64.030599 342.121094,62.891276 342.121094,61.4980469 C342.121094,60.1113281 341.644206,58.9752604 340.69043,58.0898438 C339.736654,57.2044271 338.504557,56.7617188 336.994141,56.7617188 C335.483724,56.7617188 334.253255,57.2027995 333.302734,58.0849609 C332.352214,58.9671224 331.876953,60.1048177 331.876953,61.4980469 C331.876953,62.891276 332.352214,64.030599 333.302734,64.9160156 C334.253255,65.8014323 335.483724,66.2441406 336.994141,66.2441406 Z M336.994141,64.8769531 C335.991536,64.8769531 335.171224,64.5611979 334.533203,63.9296875 C333.895182,63.2981771 333.576172,62.4876302 333.576172,61.4980469 C333.576172,60.514974 333.89681,59.7027995 334.538086,59.0615234 C335.179362,58.4202474 335.998047,58.0996094 336.994141,58.0996094 C337.990234,58.0996094 338.810547,58.4202474 339.455078,59.0615234 C340.099609,59.7027995 340.421875,60.514974 340.421875,61.4980469 C340.421875,62.4811198 340.101237,63.2900391 339.459961,63.9248047 C338.818685,64.5595703 337.996745,64.8769531 336.994141,64.8769531 Z M349.738281,66.1757812 C350.1875,66.1757812 350.667643,66.1171875 351.178711,66 C351.689779,65.8828125 352.264323,65.6972656 352.902344,65.4433594 C353.286458,65.2936198 353.558268,65.1389974 353.717773,64.9794922 C353.877279,64.819987 353.957031,64.6328125 353.957031,64.4179688 C353.957031,64.2291667 353.893555,64.0696615 353.766602,63.9394531 C353.639648,63.8092448 353.485026,63.7441406 353.302734,63.7441406 C353.107422,63.7441406 352.596354,63.9166667 351.769531,64.2617188 C350.942708,64.6067708 350.233073,64.7792969 349.640625,64.7792969 C348.970052,64.7792969 348.496419,64.610026 348.219727,64.2714844 C347.943034,63.9329427 347.804688,63.2298177 347.804688,62.1621094 L347.804688,62.1621094 L347.804688,58.9003906 L351.759766,58.9003906 C352.033203,58.9003906 352.238281,58.8434245 352.375,58.7294922 C352.511719,58.6155599 352.580078,58.4446615 352.580078,58.2167969 C352.580078,57.9759115 352.506836,57.8001302 352.360352,57.6894531 C352.213867,57.578776 351.98112,57.5234375 351.662109,57.5234375 L351.662109,57.5234375 L347.804688,57.5234375 L347.804688,55.5410156 C347.804688,54.9615885 347.749349,54.5904948 347.638672,54.4277344 C347.527995,54.264974 347.329427,54.1835938 347.042969,54.1835938 C346.789062,54.1835938 346.601888,54.2503255 346.481445,54.3837891 C346.361003,54.5172526 346.300781,54.7239583 346.300781,55.0039062 L346.300781,55.0039062 L346.300781,57.5234375 L345.197266,57.5234375 C344.64388,57.5234375 344.282552,57.5722656 344.113281,57.6699219 C343.94401,57.7675781 343.859375,57.9498698 343.859375,58.2167969 C343.859375,58.4576823 343.921224,58.6318359 344.044922,58.7392578 C344.16862,58.8466797 344.367188,58.9003906 344.640625,58.9003906 L344.640625,58.9003906 L346.300781,58.9003906 L346.300781,62.4648438 C346.300781,63.1158854 346.328451,63.5976562 346.383789,63.9101562 C346.439128,64.2226562 346.531901,64.4928385 346.662109,64.7207031 C346.916016,65.202474 347.301758,65.5654297 347.819336,65.8095703 C348.336914,66.0537109 348.976562,66.1757812 349.738281,66.1757812 Z M361.398438,66.2246094 C362.570312,66.2246094 363.501302,65.9609375 364.191406,65.4335938 C364.88151,64.90625 365.226562,64.203125 365.226562,63.3242188 C365.226562,62.40625 364.914062,61.7275391 364.289062,61.2880859 C363.664062,60.8486328 362.674479,60.6126302 361.320312,60.5800781 C360.050781,60.5540365 359.223958,60.453125 358.839844,60.2773438 C358.455729,60.1015625 358.263672,59.8085938 358.263672,59.3984375 C358.263672,58.9817708 358.450846,58.6383464 358.825195,58.3681641 C359.199544,58.0979818 359.692708,57.9628906 360.304688,57.9628906 C360.832031,57.9628906 361.291016,58.0328776 361.681641,58.1728516 C362.072266,58.3128255 362.440104,58.5423177 362.785156,58.8613281 C362.915365,58.9785156 363.08138,59.1510417 363.283203,59.3789062 C363.569661,59.7109375 363.810547,59.8769531 364.005859,59.8769531 C364.233724,59.8769531 364.39974,59.8004557 364.503906,59.6474609 C364.608073,59.4944661 364.660156,59.2454427 364.660156,58.9003906 L364.660156,58.9003906 L364.660156,57.7578125 C364.660156,57.4322917 364.606445,57.188151 364.499023,57.0253906 C364.391602,56.8626302 364.227214,56.78125 364.005859,56.78125 C363.810547,56.78125 363.611979,56.8447266 363.410156,56.9716797 C363.208333,57.0986328 363.071615,57.1621094 363,57.1621094 C362.973958,57.1621094 362.700521,57.0921224 362.179688,56.9521484 C361.658854,56.8121745 361.147786,56.7421875 360.646484,56.7421875 C359.416016,56.7421875 358.460612,56.9798177 357.780273,57.4550781 C357.099935,57.9303385 356.759766,58.5976562 356.759766,59.4570312 C356.759766,60.3359375 357.108073,61.0065104 357.804688,61.46875 C358.501302,61.9309896 359.513672,62.1621094 360.841797,62.1621094 L360.841797,62.1621094 L361.378906,62.1621094 C362.192708,62.1621094 362.767253,62.2597656 363.102539,62.4550781 C363.437826,62.6503906 363.605469,62.9791667 363.605469,63.4414062 C363.605469,63.8971354 363.397135,64.264974 362.980469,64.5449219 C362.563802,64.8248698 362.010417,64.9648438 361.320312,64.9648438 C360.675781,64.9648438 360.086589,64.8590495 359.552734,64.6474609 C359.01888,64.4358724 358.615234,64.1542969 358.341797,63.8027344 C358.257161,63.6920573 358.16276,63.5260417 358.058594,63.3046875 C357.902344,62.9401042 357.690755,62.7578125 357.423828,62.7578125 C357.182943,62.7578125 357.008789,62.8196615 356.901367,62.9433594 C356.793945,63.0670573 356.740234,63.2721354 356.740234,63.5585938 L356.740234,63.5585938 L356.740234,65.296875 C356.740234,65.5963542 356.800456,65.8258464 356.920898,65.9853516 C357.041341,66.1448568 357.215495,66.2246094 357.443359,66.2246094 C357.554036,66.2246094 357.690755,66.1871745 357.853516,66.1123047 C358.016276,66.0374349 358.211589,65.9251302 358.439453,65.7753906 C359.129557,65.938151 359.702474,66.0537109 360.158203,66.1220703 C360.613932,66.1904297 361.027344,66.2246094 361.398438,66.2246094 Z M373,66.1367188 C373.572917,66.1367188 374.036784,65.9772135 374.391602,65.6582031 C374.746419,65.3391927 374.923828,64.9192708 374.923828,64.3984375 C374.923828,63.8776042 374.748047,63.4576823 374.396484,63.1386719 C374.044922,62.8196615 373.579427,62.6601562 373,62.6601562 C372.433594,62.6601562 371.972982,62.8229167 371.618164,63.1484375 C371.263346,63.4739583 371.085938,63.890625 371.085938,64.3984375 C371.085938,64.9192708 371.261719,65.3391927 371.613281,65.6582031 C371.964844,65.9772135 372.427083,66.1367188 373,66.1367188 Z" id="roots." stroke="#666666" fill="#666666" fill-rule="nonzero"></path>
            <path d="M722.652344,66.1757812 C723.941406,66.1757812 725.033529,65.7298177 725.928711,64.8378906 C726.823893,63.9459635 727.271484,62.858724 727.271484,61.5761719 C727.271484,60.2740885 726.835286,59.1819661 725.962891,58.2998047 C725.090495,57.4176432 724,56.9765625 722.691406,56.9765625 C722.001302,56.9765625 721.382812,57.0970052 720.835938,57.3378906 C720.289062,57.578776 719.833333,57.9270833 719.46875,58.3828125 L719.46875,58.3828125 L719.46875,53.6171875 C719.46875,53.4804688 719.424805,53.3795573 719.336914,53.3144531 C719.249023,53.249349 719.107422,53.2167969 718.912109,53.2167969 L718.912109,53.2167969 L717.427734,53.2167969 C717.173828,53.2167969 716.981771,53.2753906 716.851562,53.3925781 C716.721354,53.5097656 716.65625,53.6855469 716.65625,53.9199219 C716.65625,54.1803385 716.73763,54.3626302 716.900391,54.4667969 C717.063151,54.5709635 717.365885,54.6230469 717.808594,54.6230469 L717.808594,54.6230469 L717.994141,54.6230469 L717.994141,64.6230469 L717.789062,64.6230469 C717.346354,64.6230469 717.05013,64.6702474 716.900391,64.7646484 C716.750651,64.8590495 716.675781,65.0364583 716.675781,65.296875 C716.675781,65.53125 716.73763,65.7070312 716.861328,65.8242188 C716.985026,65.9414062 717.173828,66 717.427734,66 L717.427734,66 L719.214844,66 C719.358073,66 719.460612,65.9609375 719.522461,65.8828125 C719.58431,65.8046875 719.615234,65.6777344 719.615234,65.5019531 L719.615234,65.5019531 L719.615234,64.7207031 C719.940755,65.2089844 720.357422,65.5735677 720.865234,65.8144531 C721.373047,66.0553385 721.96875,66.1757812 722.652344,66.1757812 Z M722.515625,64.6425781 C721.610677,64.6425781 720.870117,64.3496094 720.293945,63.7636719 C719.717773,63.1777344 719.429688,62.4290365 719.429688,61.5175781 C719.429688,60.6061198 719.717773,59.8590495 720.293945,59.2763672 C720.870117,58.6936849 721.610677,58.4023438 722.515625,58.4023438 C723.414062,58.4023438 724.154622,58.6953125 724.737305,59.28125 C725.319987,59.8671875 725.611328,60.6126302 725.611328,61.5175781 C725.611328,62.4420573 725.32487,63.1940104 724.751953,63.7734375 C724.179036,64.3528646 723.433594,64.6425781 722.515625,64.6425781 Z M732.554688,66.2441406 C733.21875,66.2441406 733.864909,66.1171875 734.493164,65.8632812 C735.121419,65.609375 735.702474,65.2415365 736.236328,64.7597656 L736.236328,64.7597656 L736.314453,65.3554688 C736.353516,65.5638021 736.431641,65.7233073 736.548828,65.8339844 C736.666016,65.9446615 736.815755,66 736.998047,66 L736.998047,66 L738.53125,66 C738.791667,66 738.986979,65.9414062 739.117188,65.8242188 C739.247396,65.7070312 739.3125,65.53125 739.3125,65.296875 C739.3125,65.0429688 739.234375,64.8671875 739.078125,64.7695312 C738.921875,64.671875 738.61263,64.6230469 738.150391,64.6230469 L738.150391,64.6230469 L737.671875,64.6230469 L737.671875,60.1992188 C737.671875,59.0598958 737.378906,58.1988932 736.792969,57.6162109 C736.207031,57.0335286 735.341146,56.7421875 734.195312,56.7421875 C733.075521,56.7421875 732.155924,56.875651 731.436523,57.1425781 C730.717122,57.4095052 730.357422,57.735026 730.357422,58.1191406 C730.357422,58.360026 730.419271,58.5569661 730.542969,58.7099609 C730.666667,58.8629557 730.822917,58.9394531 731.011719,58.9394531 C731.213542,58.9394531 731.626953,58.8027344 732.251953,58.5292969 C732.876953,58.2558594 733.443359,58.1191406 733.951172,58.1191406 C734.70638,58.1191406 735.263021,58.2981771 735.621094,58.65625 C735.979167,59.0143229 736.158203,59.5677083 736.158203,60.3164062 L736.158203,60.3164062 L736.158203,60.3847656 C735.754557,60.280599 735.360677,60.2041016 734.976562,60.1552734 C734.592448,60.1064453 734.211589,60.0820312 733.833984,60.0820312 C732.401693,60.0820312 731.290039,60.3652344 730.499023,60.9316406 C729.708008,61.4980469 729.3125,62.2955729 729.3125,63.3242188 C729.3125,64.1901042 729.610352,64.8932292 730.206055,65.4335938 C730.801758,65.9739583 731.584635,66.2441406 732.554688,66.2441406 Z M732.798828,64.7402344 C732.238932,64.7402344 731.77832,64.5970052 731.416992,64.3105469 C731.055664,64.0240885 730.875,63.6595052 730.875,63.2167969 C730.875,62.6438802 731.164714,62.188151 731.744141,61.8496094 C732.323568,61.5110677 733.114583,61.3417969 734.117188,61.3417969 C734.449219,61.3417969 734.782878,61.3694661 735.118164,61.4248047 C735.453451,61.4801432 735.80013,61.5664062 736.158203,61.6835938 L736.158203,61.6835938 L736.158203,62.7382812 C736.158203,63.2070312 735.805013,63.6578776 735.098633,64.0908203 C734.392253,64.523763 733.625651,64.7402344 732.798828,64.7402344 Z M746.392578,66.2246094 C747.564453,66.2246094 748.495443,65.9609375 749.185547,65.4335938 C749.875651,64.90625 750.220703,64.203125 750.220703,63.3242188 C750.220703,62.40625 749.908203,61.7275391 749.283203,61.2880859 C748.658203,60.8486328 747.66862,60.6126302 746.314453,60.5800781 C745.044922,60.5540365 744.218099,60.453125 743.833984,60.2773438 C743.44987,60.1015625 743.257812,59.8085938 743.257812,59.3984375 C743.257812,58.9817708 743.444987,58.6383464 743.819336,58.3681641 C744.193685,58.0979818 744.686849,57.9628906 745.298828,57.9628906 C745.826172,57.9628906 746.285156,58.0328776 746.675781,58.1728516 C747.066406,58.3128255 747.434245,58.5423177 747.779297,58.8613281 C747.909505,58.9785156 748.075521,59.1510417 748.277344,59.3789062 C748.563802,59.7109375 748.804688,59.8769531 749,59.8769531 C749.227865,59.8769531 749.39388,59.8004557 749.498047,59.6474609 C749.602214,59.4944661 749.654297,59.2454427 749.654297,58.9003906 L749.654297,58.9003906 L749.654297,57.7578125 C749.654297,57.4322917 749.600586,57.188151 749.493164,57.0253906 C749.385742,56.8626302 749.221354,56.78125 749,56.78125 C748.804688,56.78125 748.60612,56.8447266 748.404297,56.9716797 C748.202474,57.0986328 748.065755,57.1621094 747.994141,57.1621094 C747.968099,57.1621094 747.694661,57.0921224 747.173828,56.9521484 C746.652995,56.8121745 746.141927,56.7421875 745.640625,56.7421875 C744.410156,56.7421875 743.454753,56.9798177 742.774414,57.4550781 C742.094076,57.9303385 741.753906,58.5976562 741.753906,59.4570312 C741.753906,60.3359375 742.102214,61.0065104 742.798828,61.46875 C743.495443,61.9309896 744.507812,62.1621094 745.835938,62.1621094 L745.835938,62.1621094 L746.373047,62.1621094 C747.186849,62.1621094 747.761393,62.2597656 748.09668,62.4550781 C748.431966,62.6503906 748.599609,62.9791667 748.599609,63.4414062 C748.599609,63.8971354 748.391276,64.264974 747.974609,64.5449219 C747.557943,64.8248698 747.004557,64.9648438 746.314453,64.9648438 C745.669922,64.9648438 745.080729,64.8590495 744.546875,64.6474609 C744.013021,64.4358724 743.609375,64.1542969 743.335938,63.8027344 C743.251302,63.6920573 743.156901,63.5260417 743.052734,63.3046875 C742.896484,62.9401042 742.684896,62.7578125 742.417969,62.7578125 C742.177083,62.7578125 742.00293,62.8196615 741.895508,62.9433594 C741.788086,63.0670573 741.734375,63.2721354 741.734375,63.5585938 L741.734375,63.5585938 L741.734375,65.296875 C741.734375,65.5963542 741.794596,65.8258464 741.915039,65.9853516 C742.035482,66.1448568 742.209635,66.2246094 742.4375,66.2246094 C742.548177,66.2246094 742.684896,66.1871745 742.847656,66.1123047 C743.010417,66.0374349 743.205729,65.9251302 743.433594,65.7753906 C744.123698,65.938151 744.696615,66.0537109 745.152344,66.1220703 C745.608073,66.1904297 746.021484,66.2246094 746.392578,66.2246094 Z M757.896484,66.2441406 C758.580078,66.2441406 759.268555,66.1595052 759.961914,65.9902344 C760.655273,65.8209635 761.327474,65.5768229 761.978516,65.2578125 C762.277995,65.1080729 762.496094,64.9550781 762.632812,64.7988281 C762.769531,64.6425781 762.837891,64.4700521 762.837891,64.28125 C762.837891,64.0989583 762.772786,63.9459635 762.642578,63.8222656 C762.51237,63.6985677 762.349609,63.6367188 762.154297,63.6367188 C761.965495,63.6367188 761.421875,63.8401693 760.523438,64.2470703 C759.625,64.6539714 758.794922,64.8574219 758.033203,64.8574219 C757.024089,64.8574219 756.22819,64.601888 755.645508,64.0908203 C755.062826,63.5797526 754.745443,62.8554688 754.693359,61.9179688 L754.693359,61.9179688 L761.402344,61.9179688 C762.079427,61.9179688 762.494466,61.8561198 762.647461,61.7324219 C762.800456,61.608724 762.876953,61.3645833 762.876953,61 C762.876953,59.8151042 762.424479,58.8059896 761.519531,57.9726562 C760.614583,57.1393229 759.47526,56.7226562 758.101562,56.7226562 C756.584635,56.7226562 755.354167,57.1686198 754.410156,58.0605469 C753.466146,58.952474 752.994141,60.1178385 752.994141,61.5566406 C752.994141,62.969401 753.440104,64.1038411 754.332031,64.9599609 C755.223958,65.8160807 756.412109,66.2441406 757.896484,66.2441406 Z M761.099609,60.6386719 L754.742188,60.6386719 C754.93099,59.8313802 755.321615,59.1998698 755.914062,58.7441406 C756.50651,58.2884115 757.235677,58.0605469 758.101562,58.0605469 C758.902344,58.0605469 759.577799,58.2965495 760.12793,58.7685547 C760.67806,59.2405599 761.001953,59.8639323 761.099609,60.6386719 L761.099609,60.6386719 Z M773.804688,66 C774.110677,66 774.31901,65.9495443 774.429688,65.8486328 C774.540365,65.7477214 774.595703,65.5638021 774.595703,65.296875 C774.595703,65.0625 774.538737,64.8916016 774.424805,64.7841797 C774.310872,64.6767578 774.130208,64.6230469 773.882812,64.6230469 L773.882812,64.6230469 L770.816406,64.6230469 L770.816406,53.6171875 C770.816406,53.4934896 770.767578,53.3958333 770.669922,53.3242188 C770.572266,53.2526042 770.435547,53.2167969 770.259766,53.2167969 L770.259766,53.2167969 L767.037109,53.2167969 C766.783203,53.2167969 766.589518,53.2753906 766.456055,53.3925781 C766.322591,53.5097656 766.255859,53.6855469 766.255859,53.9199219 C766.255859,54.186849 766.335612,54.3707682 766.495117,54.4716797 C766.654622,54.5725911 767.05013,54.6230469 767.681641,54.6230469 L767.681641,54.6230469 L769.341797,54.6230469 L769.341797,64.6230469 L766.636719,64.6230469 C766.363281,64.6230469 766.158203,64.6783854 766.021484,64.7890625 C765.884766,64.8997396 765.816406,65.0690104 765.816406,65.296875 C765.816406,65.53125 765.883138,65.7070312 766.016602,65.8242188 C766.150065,65.9414062 766.34375,66 766.597656,66 L766.597656,66 L773.804688,66 Z M782.105469,55.1210938 C782.528646,55.1210938 782.800456,55.054362 782.920898,54.9208984 C783.041341,54.7874349 783.101562,54.4407552 783.101562,53.8808594 C783.101562,53.3079427 783.036458,52.944987 782.90625,52.7919922 C782.776042,52.6389974 782.509115,52.5625 782.105469,52.5625 C781.688802,52.5625 781.416992,52.6536458 781.290039,52.8359375 C781.163086,53.0182292 781.099609,53.4609375 781.099609,54.1640625 C781.099609,54.5546875 781.163086,54.811849 781.290039,54.9355469 C781.416992,55.0592448 781.688802,55.1210938 782.105469,55.1210938 Z M785.982422,66 C786.288411,66 786.498372,65.9495443 786.612305,65.8486328 C786.726237,65.7477214 786.783203,65.5638021 786.783203,65.296875 C786.783203,65.0625 786.722982,64.8916016 786.602539,64.7841797 C786.482096,64.6767578 786.294922,64.6230469 786.041016,64.6230469 L786.041016,64.6230469 L782.90625,64.6230469 L782.90625,57.3769531 C782.90625,57.2532552 782.855794,57.155599 782.754883,57.0839844 C782.653971,57.0123698 782.515625,56.9765625 782.339844,56.9765625 L782.339844,56.9765625 L779.478516,56.9765625 C779.218099,56.9765625 779.022786,57.0335286 778.892578,57.1474609 C778.76237,57.2613932 778.697266,57.4322917 778.697266,57.6601562 C778.697266,57.8880208 778.767253,58.0621745 778.907227,58.1826172 C779.047201,58.3030599 779.250651,58.3632812 779.517578,58.3632812 L779.517578,58.3632812 L781.421875,58.3632812 L781.421875,64.6230469 L778.443359,64.6230469 C778.169922,64.6230469 777.964844,64.6783854 777.828125,64.7890625 C777.691406,64.8997396 777.623047,65.0690104 777.623047,65.296875 C777.623047,65.53125 777.688151,65.7070312 777.818359,65.8242188 C777.948568,65.9414062 778.14388,66 778.404297,66 L778.404297,66 L785.982422,66 Z M792.144531,66 C792.60026,66 792.886719,65.9511719 793.003906,65.8535156 C793.121094,65.7558594 793.179688,65.5703125 793.179688,65.296875 C793.179688,65.0429688 793.111328,64.8671875 792.974609,64.7695312 C792.837891,64.671875 792.574219,64.6230469 792.183594,64.6230469 L792.183594,64.6230469 L791.841797,64.6230469 L791.841797,60.5605469 C791.841797,59.8964844 792.095703,59.3398438 792.603516,58.890625 C793.111328,58.4414062 793.697266,58.2167969 794.361328,58.2167969 C795.01888,58.2167969 795.520182,58.4169922 795.865234,58.8173828 C796.210286,59.2177734 796.382812,59.7988281 796.382812,60.5605469 L796.382812,60.5605469 L796.382812,64.6230469 L796.041016,64.6230469 C795.663411,64.6230469 795.40625,64.671875 795.269531,64.7695312 C795.132812,64.8671875 795.064453,65.0429688 795.064453,65.296875 C795.064453,65.5703125 795.123047,65.7558594 795.240234,65.8535156 C795.357422,65.9511719 795.624349,66 796.041016,66 L796.041016,66 L798.199219,66 C798.589844,66 798.861654,65.9462891 799.014648,65.8388672 C799.167643,65.7314453 799.244141,65.5507812 799.244141,65.296875 C799.244141,65.0625 799.172526,64.8916016 799.029297,64.7841797 C798.886068,64.6767578 798.651693,64.6230469 798.326172,64.6230469 L798.326172,64.6230469 L797.867188,64.6230469 L797.867188,60.1992188 C797.867188,59.1184896 797.585612,58.2721354 797.022461,57.6601562 C796.45931,57.0481771 795.686198,56.7421875 794.703125,56.7421875 C794.201823,56.7421875 793.718424,56.8479818 793.25293,57.0595703 C792.787435,57.2711589 792.317057,57.5983073 791.841797,58.0410156 L791.841797,58.0410156 L791.841797,57.3769531 C791.841797,57.2532552 791.792969,57.155599 791.695312,57.0839844 C791.597656,57.0123698 791.460938,56.9765625 791.285156,56.9765625 L791.285156,56.9765625 L789.888672,56.9765625 C789.582682,56.9765625 789.361328,57.0302734 789.224609,57.1376953 C789.087891,57.2451172 789.019531,57.4192708 789.019531,57.6601562 C789.019531,57.9205729 789.102539,58.1028646 789.268555,58.2070312 C789.43457,58.3111979 789.738932,58.3632812 790.181641,58.3632812 L790.181641,58.3632812 L790.367188,58.3632812 L790.367188,64.6230469 L790.162109,64.6230469 C789.719401,64.6230469 789.421549,64.6702474 789.268555,64.7646484 C789.11556,64.8590495 789.039062,65.0364583 789.039062,65.296875 C789.039062,65.5377604 789.105794,65.7151693 789.239258,65.8291016 C789.372721,65.9430339 789.572917,66 789.839844,66 L789.839844,66 L792.144531,66 Z M805.904297,66.2441406 C806.587891,66.2441406 807.276367,66.1595052 807.969727,65.9902344 C808.663086,65.8209635 809.335286,65.5768229 809.986328,65.2578125 C810.285807,65.1080729 810.503906,64.9550781 810.640625,64.7988281 C810.777344,64.6425781 810.845703,64.4700521 810.845703,64.28125 C810.845703,64.0989583 810.780599,63.9459635 810.650391,63.8222656 C810.520182,63.6985677 810.357422,63.6367188 810.162109,63.6367188 C809.973307,63.6367188 809.429688,63.8401693 808.53125,64.2470703 C807.632812,64.6539714 806.802734,64.8574219 806.041016,64.8574219 C805.031901,64.8574219 804.236003,64.601888 803.65332,64.0908203 C803.070638,63.5797526 802.753255,62.8554688 802.701172,61.9179688 L802.701172,61.9179688 L809.410156,61.9179688 C810.08724,61.9179688 810.502279,61.8561198 810.655273,61.7324219 C810.808268,61.608724 810.884766,61.3645833 810.884766,61 C810.884766,59.8151042 810.432292,58.8059896 809.527344,57.9726562 C808.622396,57.1393229 807.483073,56.7226562 806.109375,56.7226562 C804.592448,56.7226562 803.361979,57.1686198 802.417969,58.0605469 C801.473958,58.952474 801.001953,60.1178385 801.001953,61.5566406 C801.001953,62.969401 801.447917,64.1038411 802.339844,64.9599609 C803.231771,65.8160807 804.419922,66.2441406 805.904297,66.2441406 Z M809.107422,60.6386719 L802.75,60.6386719 C802.938802,59.8313802 803.329427,59.1998698 803.921875,58.7441406 C804.514323,58.2884115 805.24349,58.0605469 806.109375,58.0605469 C806.910156,58.0605469 807.585612,58.2965495 808.135742,58.7685547 C808.685872,59.2405599 809.009766,59.8639323 809.107422,60.6386719 L809.107422,60.6386719 Z" id="baseline" stroke="#666666" fill="#666666" fill-rule="nonzero"></path>
            <g id="right" transform="translate(871.741036, 82.500000) scale(-1, 1) translate(-871.741036, -82.500000) translate(644.000000, 0.000000)" stroke="#979797">
                <rect id="14" x="226.982072" y="127.5" width="175" height="34" rx="13"></rect>
                <path d="M146.292359,127.605193 L195.888825,127.605193 C198.948063,127.529631 201.64508,128.712734 203.979877,131.154502 C206.314673,133.596269 207.482072,135.916169 207.482072,138.1142 L207.482072,153.646221 C206.637173,156.802423 205.254693,159.232912 203.334634,160.937689 C201.414574,162.642465 198.932638,163.834154 195.888825,164.512754 L146.292359,164.512754 C149.62578,163.946474 151.971869,163.028769 153.330625,161.759641 C154.140018,161.003637 155.493594,159.879669 156.42586,158.105021 C156.8477,157.302013 157.347847,155.815746 157.926301,153.646221 L157.926301,138.1142 C157.381175,136.219056 156.916432,134.90202 156.532072,134.163092 C155.547037,132.269377 154.41845,131.271712 153.149937,130.157236 C151.696016,128.879866 149.410157,128.029185 146.292359,127.605193 Z" id="13"></path>
                <rect id="12" x="31.9820715" y="127.5" width="126" height="37" rx="13"></rect>
                <rect id="11" x="226.982072" y="77.5" width="175" height="34" rx="13"></rect>
                <rect id="10" x="23.9820715" y="77.5" width="183" height="34" rx="13"></rect>
                <rect id="9" x="221.982072" y="0.5" width="233" height="43"></rect>
                <path d="M221.250225,0.540115293 L221.250225,67.2583401 L8.8842639,67.2583401 C6.12752771,67.4235034 4.18284722,67.6637733 3.05022244,67.9791499 C1.91759765,68.2945264 0.900856843,68.8788568 0,69.7321411 C0,35.6715321 0,16.7662292 0,13.0162326 C0,10.6991525 0.382479155,9.55994569 0.937991574,8.26366231 C1.65412895,6.59256201 2.495426,5.36316314 3.42383756,4.39441465 C4.23732904,3.54557921 6.14691293,2.13763797 7.5631436,1.50085698 C8.5323708,1.06506253 10.0388928,0.744815307 12.0827095,0.540115293 L221.250225,0.540115293 Z" id="8"></path>
            </g>
            <g id="middle" transform="translate(423.000000, 0.000000)" stroke="#979797">
                <rect id="17" x="0.5" y="130.5" width="253" height="35" rx="13"></rect>
                <rect id="16" x="40.5" y="75.5" width="173" height="35" rx="13"></rect>
                <rect id="15" x="32.5" y="0.5" width="189" height="47"></rect>
            </g>
            <g id="left" transform="translate(0.517928, 0.000000)" stroke="#979797">
                <rect id="7" x="226.982072" y="127.5" width="175" height="34" rx="13"></rect>
                <path d="M146.292359,127.605193 L195.888825,127.605193 C198.948063,127.529631 201.64508,128.712734 203.979877,131.154502 C206.314673,133.596269 207.482072,135.916169 207.482072,138.1142 L207.482072,153.646221 C206.637173,156.802423 205.254693,159.232912 203.334634,160.937689 C201.414574,162.642465 198.932638,163.834154 195.888825,164.512754 L146.292359,164.512754 C149.62578,163.946474 151.971869,163.028769 153.330625,161.759641 C154.140018,161.003637 155.493594,159.879669 156.42586,158.105021 C156.8477,157.302013 157.347847,155.815746 157.926301,153.646221 L157.926301,138.1142 C157.381175,136.219056 156.916432,134.90202 156.532072,134.163092 C155.547037,132.269377 154.41845,131.271712 153.149937,130.157236 C151.696016,128.879866 149.410157,128.029185 146.292359,127.605193 Z" id="6"></path>
                <rect id="5" x="31.9820715" y="127.5" width="126" height="37" rx="13"></rect>
                <rect id="4" x="226.982072" y="77.5" width="175" height="34" rx="13"></rect>
                <rect id="3" x="23.9820715" y="77.5" width="183" height="34" rx="13"></rect>
                <rect id="2" x="221.982072" y="0.5" width="233" height="43"></rect>
                <path d="M221.250225,0.540115293 L221.250225,67.2583401 L8.8842639,67.2583401 C6.12752771,67.4235034 4.18284722,67.6637733 3.05022244,67.9791499 C1.91759765,68.2945264 0.900856843,68.8788568 0,69.7321411 C0,35.6715321 0,16.7662292 0,13.0162326 C0,10.6991525 0.382479155,9.55994569 0.937991574,8.26366231 C1.65412895,6.59256201 2.495426,5.36316314 3.42383756,4.39441465 C4.23732904,3.54557921 6.14691293,2.13763797 7.5631436,1.50085698 C8.5323708,1.06506253 10.0388928,0.744815307 12.0827095,0.540115293 L221.250225,0.540115293 Z" id="1"></path>
            </g>
        </g>
    </g>
</svg>