<?xml version="1.0" encoding="UTF-8"?>
<svg width="3710px" height="882px" viewBox="0 0 3710 882" version="1.1" xmlns="http://www.w3.org/2000/svg" xmlns:xlink="http://www.w3.org/1999/xlink">
    <title>board</title>
    <g id="Page-1" stroke="none" stroke-width="1" fill="none" fill-rule="evenodd">
        <g id="board" transform="translate(2.447569, 2.000000)">
            <g id="left" transform="translate(143.552431, 2.000000)" fill="#979797">
                <path d="M983.5,622.5 L498.655154,622.5 L498.655154,622.5 C509.888679,625.103353 517.758063,627.880641 522.263308,630.831864 C539.909295,642.391113 549.591302,661.751901 549.591302,683.5 C549.591302,705.820142 541.806936,724.57046 521.933613,736.158706 C519.024201,737.8552 514.281337,740.550267 508.111032,742.323127 C505.714653,743.011658 501.634418,743.737282 495.870329,744.5 L742.493172,744.5 L983.5,744.5 C1015.25637,744.5 1041,718.756373 1041,687 L1041,680 C1041,648.243627 1015.25637,622.5 983.5,622.5 Z" id="10" stroke="#979797"></path>
            </g>
        </g>
    </g>
</svg>
