<?xml version="1.0" encoding="UTF-8"?>
<svg width="655px" height="173px" viewBox="0 0 655 173" version="1.1" xmlns="http://www.w3.org/2000/svg" xmlns:xlink="http://www.w3.org/1999/xlink">
    <title>metolius_wood_grips_2_compact</title>
    <g id="Page-1" stroke="none" stroke-width="1" fill="none" fill-rule="evenodd">
        <g id="board" transform="translate(1.250000, 0.046330)">
            <g id="left" stroke="#979797" fill="#979797" >
                <path d="M120.802981,28.2326314 C112.822005,28.2326314 72.9056702,28.2326314 1.05397727,28.2326314 C0.771624019,25.8351163 0.771624019,22.9593604 1.05397727,19.6053637 C2.14731498,14.6812151 3.92595058,12.0113893 7.56274481,8.25031216 C8.88392599,7.12923889 12.9782739,2.47839285 23.2630657,1.37924297 C30.0877558,1.10406601 57.7980926,0.966477527 106.394076,0.966477527 C109.593177,2.79802401 111.531663,4.22977125 112.209533,5.26171925 C112.871892,6.12056206 113.312898,8.09254884 113.661689,9.61856817 C113.938738,11.2683836 114.750574,22.323065 115.649185,24.0180279 C117.026913,26.2967923 118.461932,27.6543383 120.802981,28.2326314 Z" id="1"></path>
            </g>
        </g>
    </g>
</svg>
