<?xml version="1.0" encoding="UTF-8"?>
<svg width="655px" height="173px" viewBox="0 0 655 173" version="1.1" xmlns="http://www.w3.org/2000/svg" xmlns:xlink="http://www.w3.org/1999/xlink">
    <title>metolius_wood_grips_2_compact</title>
    <g id="Page-1" stroke="none" stroke-width="1" fill="none" fill-rule="evenodd">
        <g id="board" transform="translate(1.250000, 0.046330)">
            <g id="middle" transform="translate(207.706799, 1.000000)" stroke="#979797" fill="#979797" >
                <path d="M0.110575677,27.2190259 C2.37439499,25.6372413 3.77473773,24.3254948 4.31160389,23.2837865 C6.13411837,19.7474702 7.36508844,16.6652226 7.36508844,13.636713 C7.36508844,11.6579696 7.35028712,9.28946717 7.34732686,7.05711923 L7.34739995,5.59482964 C7.349008,4.64111238 7.3541245,3.7373752 7.36508844,2.92978882 C7.37868071,1.92860408 8.11694707,0.97014116 9.57988752,0.0544000662 L227.736324,0.0544000662 C229.199264,0.97014116 229.937531,1.92860408 229.951123,2.92978882 C229.962087,3.7373752 229.967203,4.64111238 229.968811,5.59482964 L229.968885,7.05711923 C229.965924,9.28946717 229.951123,11.6579696 229.951123,13.636713 C229.951123,16.6652226 231.182093,19.7474702 233.004607,23.2837865 C233.541474,24.3254948 234.941816,25.6372413 237.205636,27.2190259 L237.205636,27.2190259 L0.110575677,27.2190259 Z" id="9"></path>
            </g>
        </g>
    </g>
</svg>
