<?xml version="1.0" encoding="UTF-8"?>
<svg width="958px" height="409px" viewBox="0 0 958 409" version="1.1" xmlns="http://www.w3.org/2000/svg" xmlns:xlink="http://www.w3.org/1999/xlink">
    <title>board</title>
    <g id="Page-1" stroke="none" stroke-width="1" fill="none" fill-rule="evenodd">
        <g id="board" transform="translate(1.992188, 1.000000)">
            <path d="M477.007812,68.1593698 L524.039062,68.4673699 C531.169749,68.7939952 535.925927,68.6913285 538.307595,68.1593698 C542.436758,67.2370989 544.875242,65.2766145 547.623047,64.2779168 C558.794015,60.2177961 571.183351,52.5222378 578.841797,50.5650262 C591.770717,47.2608789 604.00379,45.8520248 615.541016,46.3384637 L615.541016,46.3384637 L685.246094,46.3384637 C701.080478,45.6152195 713.952222,43.2604018 723.861328,39.2740105 C733.770434,35.2876193 744.133715,29.6207616 754.951172,22.2734375 C764.52174,15.5653069 771.271089,11.3875725 775.199219,9.74023438 C793.253324,2.16889125 804.194,2.04775758 808.898438,1.32479178 C822.708435,-0.797492735 835.490741,0.247863915 842.642578,0.324791784 C869.636326,0.615146764 889.056386,9.40224392 900.826172,15.5806512 C912.676151,21.8011547 929.724757,34.0968214 940.195312,53.6626824 C942.897872,58.7128346 947.4923,66.5038984 950.214844,76.6763543 C951.472721,81.3762609 952.737044,89.596313 954.007812,101.336511 L954.007812,101.336511 L950.214844,184.457604 C947.865841,197.604344 945.421831,207.901219 942.882812,215.348229 C940.343794,222.795239 935.419315,234.110343 928.109375,249.293542 C919.404005,259.78809 913.377312,268.020512 910.029297,273.990807 C906.681282,279.961103 903.613573,287.946129 900.826172,297.945886 L900.826172,297.945886 L891.345703,313.59237 C880.989819,328.599741 872.94685,339.602346 867.216797,346.600182 C861.486744,353.598019 853.295337,362.421672 842.642578,373.071141 C830.435249,385.730578 820.243843,393.976586 812.068359,397.809167 C803.892876,401.641747 789.936496,404.715966 770.199219,407.031823 C750.6177,406.212216 735.171736,404.033831 723.861328,400.496667 C702.277187,393.746543 680.81137,380.861163 660.639725,374.071141 C638.995039,366.785275 621.685463,364.412178 607.782778,361.683505 C570.739444,354.413026 527.145184,350.812914 477,350.883168 L477.007812,350.883168 L477,350.883168 C426.862628,350.812914 383.268369,354.413026 346.225034,361.683505 C332.32235,364.412178 315.012773,366.785275 293.368087,374.071141 C273.196442,380.861163 251.730626,393.746543 230.146484,400.496667 C218.836076,404.033831 203.390113,406.212216 183.808594,407.031823 C164.071317,404.715966 150.114937,401.641747 141.939453,397.809167 C133.76397,393.976586 123.572563,385.730578 111.365234,373.071141 C100.712475,362.421672 92.5210689,353.598019 86.7910156,346.600182 C81.0609623,339.602346 73.0179936,328.599741 62.6621094,313.59237 L53.1816406,297.945886 C50.3942392,287.946129 47.3265309,279.961103 43.9785156,273.990807 C40.6305004,268.020512 34.6038077,259.78809 25.8984375,249.293542 C18.5884977,234.110343 13.6640185,222.795239 11.125,215.348229 C8.58598148,207.901219 6.14197106,197.604344 3.79296875,184.457604 L0,101.336511 C1.27076854,89.596313 2.53509145,81.3762609 3.79296875,76.6763543 C6.51551247,66.5038984 11.1099407,58.7128346 13.8125,53.6626824 C24.2830556,34.0968214 41.3316619,21.8011547 53.1816406,15.5806512 C64.9514265,9.40224392 84.3714863,0.615146764 111.365234,0.324791784 C118.517071,0.247863915 131.299377,-0.797492735 145.109375,1.32479178 C149.813813,2.04775758 160.754488,2.16889125 178.808594,9.74023438 C182.736723,11.3875725 189.486072,15.5653069 199.056641,22.2734375 C209.874097,29.6207616 220.237379,35.2876193 230.146484,39.2740105 C240.05559,43.2604018 252.927335,45.6152195 268.761719,46.3384637 L338.466797,46.3384637 C350.004023,45.8520248 362.237096,47.2608789 375.166016,50.5650262 C382.824461,52.5222378 395.213798,60.2177961 406.384766,64.2779168 C409.132571,65.2766145 411.571054,67.2370989 415.700217,68.1593698 C418.081886,68.6913285 422.838063,68.7939952 429.96875,68.4673699 L477,68.1593698 L477.007812,68.1593698 Z" id="background" stroke="#DFDFDF" fill="#DFDFDF"></path>
            <g id="holds" transform="translate(0.007812, 0.000000)">
                <g id="center" transform="translate(400.500000, 68.000000)">
                    <ellipse id="10" stroke="#979797" cx="75.5" cy="136" rx="75" ry="23.5"></ellipse>
                    <ellipse id="9" stroke="#979797" cx="75.5" cy="62.5" rx="75" ry="12"></ellipse>
                    <polygon id="8" points="16 -3.5249581e-15 16 16 135.615081 16 135.615081 0"></polygon>
                </g>
                <g id="right" transform="translate(536.640625, -0.000000)">
                    <polygon id="19" stroke="#979797" transform="translate(74.500000, 305.330078) scale(-1, 1) translate(-74.500000, -305.330078) " points="0 290.660156 0 320 149 320 149 305.330078"></polygon>
                    <ellipse id="17" stroke="#979797" cx="226.359375" cy="345.5" rx="34.5" ry="25"></ellipse>
                    <polygon id="16" stroke="#979797" transform="translate(260.425781, 270.160156) scale(-1, 1) translate(-260.425781, -270.160156) " points="360 290.660156 188.355469 290.660156 160.851562 249.660156 360 249.660156"></polygon>
                    <ellipse id="15" stroke="#979797" cx="104.359375" cy="187.5" rx="41.5" ry="20"></ellipse>
                    <ellipse id="14" stroke="#979797" cx="118.859375" cy="117.5" rx="41" ry="14"></ellipse>
                    <path d="M315.416016,160.421875 C333.554132,172.657229 324.182489,183.272331 315.416016,190.585938 C309.5717,195.461675 297.104903,197.795008 278.015625,197.585938 C231.986979,197.585938 207.369792,196.585938 204.164063,194.585938 C199.355469,191.585938 196.927968,177.208329 197.701172,170.344616 C198.775675,160.806287 207.789843,153.273793 211.910156,149.677734 C218.995417,143.493978 233.074193,141.6639 254.146484,144.1875 C282.900761,146.853514 303.323938,152.264973 315.416016,160.421875 Z" id="13" stroke="#979797" transform="translate(261.677233, 170.344616) scale(-1, 1) translate(-261.677233, -170.344616) "></path>
                    <path d="M2.11328125,46.3384637 L71.8183594,46.3384637 C83.3555852,45.8520248 95.5886582,47.2608789 108.517578,50.5650262 C116.176024,52.5222378 128.56536,60.2177961 139.736328,64.2779168 C142.484133,65.2766145 144.922617,67.2370989 149.05178,68.1593698 C150.432137,68.4676801 104.811687,67.9853576 12.1904297,66.7124023 L2.11328125,46.3384637 Z" id="12" transform="translate(75.597733, 57.247184) scale(-1, 1) translate(-75.597733, -57.247184) "></path>
                    <path d="M218.359375,101.336511 C219.630144,89.596313 220.894466,81.3762609 222.152344,76.6763543 C224.874887,66.5038984 229.469316,58.7128346 232.171875,53.6626824 C242.642431,34.0968214 259.691037,21.8011547 271.541016,15.5806512 C283.310802,9.40224392 302.730861,0.615146764 329.724609,0.324791784 C336.876446,0.247863915 349.658752,-0.797492735 363.46875,1.32479178 C368.173188,2.04775758 379.113863,2.16889125 397.167969,9.74023438 C401.096098,11.3875725 407.845447,15.5653069 417.416016,22.2734375 L218.359375,101.336511 Z" id="11" transform="translate(317.887695, 50.668255) scale(-1, 1) translate(-317.887695, -50.668255) "></path>
                </g>
                <g id="left">
                    <polygon id="18" stroke="#979797" points="269 290.660156 269 320 416 320 416 305.330078"></polygon>
                    <ellipse id="7" stroke="#979797" cx="188" cy="345.5" rx="34.5" ry="25"></ellipse>
                    <polygon id="6" stroke="#979797" points="255.640625 290.660156 83.9960938 290.660156 56.4921875 249.660156 255.640625 249.660156"></polygon>
                    <ellipse id="5" stroke="#979797" cx="311" cy="187.5" rx="41.5" ry="20"></ellipse>
                    <ellipse id="4" stroke="#979797" cx="297.5" cy="117.5" rx="41" ry="14"></ellipse>
                    <path d="M207.056641,160.421875 C225.194757,172.657229 215.823114,183.272331 207.056641,190.585938 C201.212325,195.461675 188.745528,197.795008 169.65625,197.585938 C123.627604,197.585938 99.0104167,196.585938 95.8046875,194.585938 C90.9960938,191.585938 88.5685925,177.208329 89.3417969,170.344616 C90.4162996,160.806287 99.4304677,153.273793 103.550781,149.677734 C110.636042,143.493978 124.714818,141.6639 145.787109,144.1875 C174.541386,146.853514 194.964563,152.264973 207.056641,160.421875 Z" id="3" stroke="#979797"></path>
                    <path d="M268.753906,46.3384637 L338.458984,46.3384637 C349.99621,45.8520248 362.229283,47.2608789 375.158203,50.5650262 C382.816649,52.5222378 395.205985,60.2177961 406.376953,64.2779168 C409.124758,65.2766145 411.563242,67.2370989 415.692405,68.1593698 C417.072762,68.4676801 371.452312,67.9853576 278.831055,66.7124023 L268.753906,46.3384637 Z" id="2"></path>
                    <path d="M0,101.336511 C1.27076854,89.596313 2.53509145,81.3762609 3.79296875,76.6763543 C6.51551247,66.5038984 11.1099407,58.7128346 13.8125,53.6626824 C24.2830556,34.0968214 41.3316619,21.8011547 53.1816406,15.5806512 C64.9514265,9.40224392 84.3714863,0.615146764 111.365234,0.324791784 C118.517071,0.247863915 131.299377,-0.797492735 145.109375,1.32479178 C149.813813,2.04775758 160.754488,2.16889125 178.808594,9.74023437 C182.736723,11.3875725 189.486072,15.5653069 199.056641,22.2734375 L0,101.336511 Z" id="1"></path>
                </g>
            </g>
        </g>
    </g>
</svg>