<?xml version="1.0" encoding="UTF-8"?>
<svg width="948px" height="243px" viewBox="0 0 948 243" version="1.1" xmlns="http://www.w3.org/2000/svg" xmlns:xlink="http://www.w3.org/1999/xlink">
    <title>board</title>
    <g id="Page-1" stroke="none" stroke-width="1" fill="none" fill-rule="evenodd">
        <g id="board" transform="translate(1.686389, 1.000000)">
            <g id="right" transform="translate(699.813611, 137.000000) scale(-1, 1) translate(-699.813611, -137.000000) translate(482.313611, 54.000000)" fill="#979797" stroke="#979797">
                <path d="M418.535558,1.5 C420.58056,1.50000066 422.536882,2.33505967 423.951529,3.81181593 C428.766503,8.83819086 431.199531,13.8952755 431.199531,19 C431.199531,24.1047231 428.766504,29.1618062 423.951532,34.1881804 C422.536888,35.6649404 420.580565,36.5 418.535561,36.5 L418.535561,36.5 L348.775191,36.5 C347.628711,36.5000031 346.497492,36.2371641 345.46846,35.7316841 C341.422377,33.7441707 338.381793,31.3540527 336.358057,28.5487521 C334.353801,25.7704546 333.354074,22.5870069 333.354074,19 C333.354074,15.4129933 334.353801,12.2295456 336.358057,9.45124813 C338.381793,6.64594766 341.422377,4.25582971 345.468459,2.26831673 C346.497491,1.76283897 347.628711,1.5 348.77519,1.5 L348.77519,1.5 Z" id="10"></path>
            </g>
        </g>
    </g>
</svg>
