<?xml version="1.0" encoding="UTF-8"?>
<svg width="948px" height="243px" viewBox="0 0 948 243" version="1.1" xmlns="http://www.w3.org/2000/svg" xmlns:xlink="http://www.w3.org/1999/xlink">
    <title>board</title>
    <g id="Page-1" stroke="none" stroke-width="1" fill="none" fill-rule="evenodd">
        <g id="board" transform="translate(1.686389, 1.000000)" fill="#979797" stroke="#979797" >
            <g id="top" transform="translate(42.528455, 0.000000)">
                <path d="M307.153121,1.2132872 L307.153121,55.6513218 C306.771611,57.6970501 306.224633,59.036567 305.512187,59.6698724 C304.799741,60.3031779 303.261048,60.8176495 300.896109,61.2132872 L151.728794,55.6513218 C149.511549,55.5842418 147.997139,55.3168912 147.185562,54.8492702 C146.373984,54.3816491 145.696504,53.3860581 145.153121,51.8624969 L145.153121,20.4925685 C151.782122,20.6330029 156.305896,20.5095368 158.724443,20.1221702 C161.14299,19.7348036 162.585904,19.3634051 163.053184,19.0079748 C178.068933,9.09975953 186.225668,3.76498366 187.52339,3.00364715 C189.469974,1.86164237 191.761629,1.2992429 193.238281,1.2992429 L307.153121,1.2132872 Z" id="19"></path>
            </g>
        </g>
    </g>
</svg>
