<?xml version="1.0" encoding="UTF-8"?>
<svg width="948px" height="243px" viewBox="0 0 948 243" version="1.1" xmlns="http://www.w3.org/2000/svg" xmlns:xlink="http://www.w3.org/1999/xlink">
    <title>board</title>
    <g id="Page-1" stroke="none" stroke-width="1" fill="none" fill-rule="evenodd">
        <g id="board" transform="translate(1.686389, 1.000000)">
            <g id="left" transform="translate(24.841018, 54.000000)" fill="#979797" stroke="#979797">
                <path d="M122.991905,59.5 C124.847293,59.5000015 126.636825,60.1877315 128.014687,61.4302925 C133.727291,66.5819379 136.6228,71.7627743 136.6228,77 C136.6228,82.2372265 133.72729,87.4180636 128.014685,92.5697096 C126.636822,93.81227 124.84729,94.5 122.991903,94.5 L122.991903,94.5 L13.1579406,94.5 C11.6128383,94.500005 10.105443,94.0227965 8.8418346,93.1336201 C3.28006841,89.2199149 0.5,83.8417585 0.5,77 C0.5,70.1582459 3.2800648,64.780092 8.84182406,60.8663873 C10.1054323,59.9772091 11.6128285,59.5 13.1579316,59.5 L13.1579316,59.5 Z" id="3"></path>
            </g>
        </g>
    </g>
</svg>
