<?xml version="1.0" encoding="UTF-8"?>
<svg width="948px" height="243px" viewBox="0 0 948 243" version="1.1" xmlns="http://www.w3.org/2000/svg" xmlns:xlink="http://www.w3.org/1999/xlink">
    <title>board</title>
    <g id="Page-1" stroke="none" stroke-width="1" fill="none" fill-rule="evenodd">
        <g id="board" transform="translate(1.686389, 1.000000)">
            <g id="left" transform="translate(24.841018, 54.000000)" fill="#979797" stroke="#979797">
                <path d="M208.639067,130.5 C210.35972,130.499997 212.02805,131.091637 213.364265,132.175693 C219.817219,137.410907 223.096217,142.673281 223.096217,148 C223.096217,153.326718 219.817221,158.589089 213.364271,163.824302 C212.028057,164.90836 210.359727,165.5 208.639074,165.5 L208.639074,165.5 L91.3230598,165.5 C90.2527044,165.499996 89.1947474,165.270894 88.2202833,164.828084 C83.8346751,162.835204 80.5390573,160.433019 78.3454776,157.607375 C76.1784341,154.815913 75.0962174,151.613153 75.0962174,148 C75.0962174,144.386845 76.1784352,141.184083 78.3454809,138.39262 C80.539063,135.566975 83.8346842,133.16479 88.2202963,131.17191 C89.1947604,130.729102 90.2527165,130.5 91.323071,130.5 L91.323071,130.5 Z" id="7"></path>
            </g>
        </g>
    </g>
</svg>
