<?xml version="1.0" encoding="UTF-8"?>
<svg width="948px" height="243px" viewBox="0 0 948 243" version="1.1" xmlns="http://www.w3.org/2000/svg" xmlns:xlink="http://www.w3.org/1999/xlink">
    <title>board</title>
    <g id="Page-1" stroke="none" stroke-width="1" fill="none" fill-rule="evenodd">
        <g id="board" transform="translate(1.686389, 1.000000)">
            <g id="left" transform="translate(24.841018, 54.000000)" fill="#979797" stroke="#979797">
                <path d="M422.698733,130.5 C425.100403,130.499998 427.356814,131.650171 428.767832,133.593634 C432.230659,138.36315 433.972593,143.163241 433.972593,148 C433.972593,152.836758 432.23066,157.636847 428.767834,162.406363 C427.356818,164.349827 425.100407,165.5 422.698737,165.5 L422.698737,165.5 L349.828936,165.5 C348.09532,165.499996 346.415239,164.899423 345.074474,163.800435 C340.333883,159.9147 337.972593,154.644904 337.972593,148 C337.972593,141.355093 340.333886,136.085295 345.074482,132.199559 C346.415246,131.100573 348.095327,130.5 349.828942,130.5 L349.828942,130.5 Z" id="9"></path>
            </g>
        </g>
    </g>
</svg>
