<?xml version="1.0" encoding="UTF-8"?>
<svg width="655px" height="173px" viewBox="0 0 655 173" version="1.1" xmlns="http://www.w3.org/2000/svg" xmlns:xlink="http://www.w3.org/1999/xlink">
    <title>metolius_wood_grips_2_compact</title>
    <g id="Page-1" stroke="none" stroke-width="1" fill="none" fill-rule="evenodd">
        <g id="board" transform="translate(1.250000, 0.046330)">
            <g id="left" stroke="#979797" fill="#979797" >
                <path d="M106.394076,1.06800551 C109.447694,2.62630905 111.350538,3.93048822 112.10261,4.98054299 C112.854681,6.03059777 113.374375,7.57660617 113.661689,9.61856817 L115.066059,22.5519004 C115.813024,24.2694405 116.507885,25.4644979 117.150643,26.1370725 C117.7934,26.8096471 119.010847,27.5081667 120.802981,28.2326314 L208.604096,28.2326314 C210.866942,26.6508467 212.266683,25.3391003 212.803319,24.2973919 C214.62505,20.7610756 215.855491,17.678828 215.855491,14.6503184 C215.855491,11.3524127 215.814394,6.9718432 215.855491,3.94339426 C215.869077,2.94220952 216.607027,1.9837466 218.069338,1.06800551 L106.394076,1.06800551 Z" id="2"></path>
            </g>
        </g>
    </g>
</svg>
