<?xml version="1.0" encoding="UTF-8"?>
<svg width="1534px" height="406px" viewBox="0 0 1534 406" version="1.1" xmlns="http://www.w3.org/2000/svg" xmlns:xlink="http://www.w3.org/1999/xlink">
    <title>board</title>
    <g id="Page-1" stroke="none" stroke-width="1" fill="none" fill-rule="evenodd">
        <g id="board" transform="translate(1.640985, 1.000000)" fill="#979797" stroke="#979797">
            <g id="center" transform="translate(522.359015, 155.847656)">
                <path d="M244.589846,111.652902 C292.664095,111.689715 366.657704,113.548781 466.570676,117.229866 C470.73702,117.383365 474.469351,119.171153 477.160096,121.962858 C479.850841,124.754563 481.5,128.550186 481.5,132.719357 L481.5,132.719357 L481.5,161.724448 C481.5,166.004655 479.765104,169.879655 476.960156,172.684604 C474.155207,175.489552 470.280207,177.224449 466,177.224449 C465.818323,177.224449 465.63666,177.221255 465.455095,177.214868 C365.363301,173.693946 291.258597,171.933594 243.140985,171.933594 C194.954175,171.933594 119.417729,173.699021 16.5316494,177.230089 C12.2539612,177.3769 8.32173442,175.775936 5.42222697,173.068848 C2.52271957,170.36176 0.655931459,166.548547 0.509120468,162.270859 C0.503040603,162.093708 0.5,161.916465 0.5,161.739209 L0.5,161.739209 L0.5,132.733731 C0.50000008,128.561859 2.15122318,124.764285 4.84474112,121.972216 C7.53825906,119.180147 11.2740718,117.393584 15.4432513,117.243733 C118.114086,113.55349 193.529732,111.689805 241.689999,111.652903 L241.689999,111.652903 Z" id="7"></path>
            </g>
        </g>
    </g>
</svg>
