<?xml version="1.0" encoding="UTF-8"?>
<svg width="3710px" height="882px" viewBox="0 0 3710 882" version="1.1" xmlns="http://www.w3.org/2000/svg" xmlns:xlink="http://www.w3.org/1999/xlink">
    <title>board</title>
    <g id="Page-1" stroke="none" stroke-width="1" fill="none" fill-rule="evenodd">
        <g id="board" transform="translate(2.447569, 2.000000)">
            <g id="background" stroke="#979797">
                <path d="M1820.94655,877.927749 C783.022814,871.194666 247.068525,867.828125 213.083681,867.828125 C161.591494,867.828125 161.01475,855.107867 136.568056,830.4375 C87.3559189,780.7751 45.6503866,696.518402 29.7946188,662.460937 C6.06231662,611.485037 -3.49237088,528.185558 1.13055632,412.5625 C15.3857893,328.538931 28.7321435,270.479036 41.1696188,238.382812 C73.5697351,154.770879 121.885313,101.048638 148.997744,71.0078125 C191.721702,23.6692708 254.372744,1.66666667 336.950869,5 L336.950869,5 L1852.55243,0 L3368.15399,5 C3450.73212,1.66666667 3513.38316,23.6692708 3556.10712,71.0078125 C3583.21955,101.048638 3631.53513,154.770879 3663.93524,238.382812 C3676.37272,270.479036 3689.71907,328.538931 3703.97431,412.5625 C3708.59723,528.185558 3699.04255,611.485037 3675.31024,662.460937 C3659.45448,696.518402 3617.74894,780.7751 3568.53681,830.4375 C3544.09011,855.107867 3543.51337,867.828125 3492.02118,867.828125 C3457.69306,867.828125 2911.20347,871.263021 1852.55243,878.132812 Z" id="Combined-Shape" stroke-width="3" fill="#D8D8D8"></path>
                <rect id="bottom-outline-a" x="199.052431" y="624.5" width="1463" height="122" rx="57.5"></rect>
            </g>
            <g id="right" transform="translate(2796.552431, 374.500000) scale(-1, 1) translate(-2796.552431, -374.500000) translate(2031.552431, 2.000000)">
                <path d="M1461.20432,623 L992.012223,623 L992.012223,623 C1004.80435,627.199084 1013.48741,630.94685 1018.06138,634.243298 C1033.88482,645.6472 1040.79258,662.691879 1040.79258,683.5 C1040.79258,704.027482 1033.46088,721.095358 1018.06138,732.47058 C1013.40874,735.907368 1004.72569,739.750508 992.012223,744 L1461.20432,744 C1492.96069,744 1518.70432,718.256373 1518.70432,686.5 L1518.70432,680.5 C1518.70432,648.743627 1492.96069,623 1461.20432,623 Z" id="22" stroke="#979797"></path>
                <path d="M983.5,622.5 L498.655154,622.5 L498.655154,622.5 C509.888679,625.103353 517.758063,627.880641 522.263308,630.831864 C539.909295,642.391113 549.591302,661.751901 549.591302,683.5 C549.591302,705.820142 541.806936,724.57046 521.933613,736.158706 C519.024201,737.8552 514.281337,740.550267 508.111032,742.323127 C505.714653,743.011658 501.634418,743.737282 495.870329,744.5 L742.493172,744.5 L983.5,744.5 C1015.25637,744.5 1041,718.756373 1041,687 L1041,680 C1041,648.243627 1015.25637,622.5 983.5,622.5 Z" id="21" stroke="#979797"></path>
                <rect id="20" stroke="#979797" x="55.5" y="622.5" width="494" height="122" rx="57.5"></rect>
                <rect id="19" stroke="#979797" x="1277.5" y="380.5" width="252" height="114" rx="57"></rect>
                <rect id="18" stroke="#979797" x="613.5" y="380.5" width="506" height="114" rx="57"></rect>
                <rect id="17" stroke="#979797" x="0.5" y="380.5" width="483" height="114" rx="57"></rect>
                <rect id="16" stroke="#979797" x="1150.5" y="129.5" width="379" height="114" rx="57"></rect>
                <rect id="15" stroke="#979797" x="550.5" y="129.5" width="506" height="114" rx="57"></rect>
                <rect id="14" stroke="#979797" x="60.5" y="129.5" width="379" height="114" rx="57"></rect>
                <polygon id="13" points="760.447569 1.34427547 1374.44757 0 1374.44757 55 795 56.9021264"></polygon>
                <path d="M181.508368,3.45167504 C156.929809,4.22281122 139.694504,5.34672343 129.80245,6.82341167 C105.890874,10.3929377 88.2882543,17.1967236 75.7513343,21.2700971 C55.4347586,27.8711604 35.8509805,39.7485035 17,56.9021264 L795,56.9021264 L760.931562,1.90212638 L181.508368,3.45167504 Z" id="12"></path>
            </g>
            <g id="left" transform="translate(143.552431, 2.000000)">
                <path d="M1461.20432,623 L992.012223,623 L992.012223,623 C1004.80435,627.199084 1013.48741,630.94685 1018.06138,634.243298 C1033.88482,645.6472 1040.79258,662.691879 1040.79258,683.5 C1040.79258,704.027482 1033.46088,721.095358 1018.06138,732.47058 C1013.40874,735.907368 1004.72569,739.750508 992.012223,744 L1461.20432,744 C1492.96069,744 1518.70432,718.256373 1518.70432,686.5 L1518.70432,680.5 C1518.70432,648.743627 1492.96069,623 1461.20432,623 Z" id="11" stroke="#979797"></path>
                <path d="M983.5,622.5 L498.655154,622.5 L498.655154,622.5 C509.888679,625.103353 517.758063,627.880641 522.263308,630.831864 C539.909295,642.391113 549.591302,661.751901 549.591302,683.5 C549.591302,705.820142 541.806936,724.57046 521.933613,736.158706 C519.024201,737.8552 514.281337,740.550267 508.111032,742.323127 C505.714653,743.011658 501.634418,743.737282 495.870329,744.5 L742.493172,744.5 L983.5,744.5 C1015.25637,744.5 1041,718.756373 1041,687 L1041,680 C1041,648.243627 1015.25637,622.5 983.5,622.5 Z" id="10" stroke="#979797"></path>
                <rect id="9" stroke="#979797" x="55.5" y="622.5" width="494" height="122" rx="57.5"></rect>
                <rect id="8" stroke="#979797" x="1277.5" y="380.5" width="252" height="114" rx="57"></rect>
                <rect id="7" stroke="#979797" x="613.5" y="380.5" width="506" height="114" rx="57"></rect>
                <rect id="6" stroke="#979797" x="0.5" y="380.5" width="483" height="114" rx="57"></rect>
                <rect id="5" stroke="#979797" x="1150.5" y="129.5" width="379" height="114" rx="57"></rect>
                <rect id="4" stroke="#979797" x="550.5" y="129.5" width="506" height="114" rx="57"></rect>
                <rect id="3" stroke="#979797" x="60.5" y="129.5" width="379" height="114" rx="57"></rect>
                <polygon id="2" points="760.447569 1.34427547 1374.44757 0 1374.44757 55 795 56.9021264"></polygon>
                <path d="M181.508368,3.45167504 C156.929809,4.22281122 139.694504,5.34672343 129.80245,6.82341167 C105.890874,10.3929377 88.2882543,17.1967236 75.7513343,21.2700971 C55.4347586,27.8711604 35.8509805,39.7485035 17,56.9021264 L795,56.9021264 L760.931562,1.90212638 L181.508368,3.45167504 Z" id="1"></path>
            </g>
            <g id="logo" transform="translate(1722.830763, 253.848622)">
                <g id="logo_text" transform="translate(12.199560, 0.000000)">
                    <polygon id="Path-2" fill="#979797" points="22.0940892 11.3853173 13.0984767 11.3853173 13.0984767 -1.0658141e-14 41.5796426 -1.0658141e-14 41.5796426 11.3853173 32.49859 11.3853173 32.49859 53.4845746 22.0940892 53.4845746"></polygon>
                    <rect id="Rectangle" stroke="#979797" fill="#979797" x="38.0221092" y="13.6513781" width="23" height="39" rx="11.5"></rect>
                    <rect id="Rectangle" stroke="#979797" fill="#979797" x="108.022109" y="0.65137808" width="26" height="52" rx="13"></rect>
                    <rect id="Rectangle" stroke="#979797" fill="#D8D8D8" x="47.5221092" y="24.6513781" width="4" height="18" rx="2"></rect>
                    <rect id="Rectangle" stroke="#979797" fill="#D8D8D8" x="118.522109" y="10.6513781" width="4.5" height="33" rx="2.25"></rect>
                    <path d="M65.8792596,66.5804358 C65.8792596,66.5804358 65.8792596,49.3491619 65.8792596,14.886614 L84.7320788,14.886614 C86.4165705,15.64343 87.5807633,16.3818758 88.2246572,17.1019515 C88.8685511,17.8220271 89.4212956,19.0036566 89.8828908,20.64684 L89.8828908,48.1829348 C89.1787107,49.6794071 88.6259661,50.7253207 88.2246572,51.3206756 C87.8233482,51.9160305 87.184873,52.6373302 86.3092316,53.4845746 L77.8811849,53.4845746 L77.8811849,66.5804358 C76.6265449,67.409515 75.605624,67.9000685 74.8184221,68.0520964 C72.785805,68.4446442 70.2654924,68.0520964 69.5281161,68.0520964 C65.8571056,68.0520964 65.8792596,66.5804358 65.8792596,66.5804358 Z" id="Path-3" stroke="#979797" fill="#979797"></path>
                    <rect id="Rectangle" stroke="#979797" fill="#D8D8D8" x="76.0221092" y="26.6513781" width="3" height="16" rx="1.5"></rect>
                    <path d="M150.018709,14.886614 L140.076281,14.886614 L140.076281,48.1219062 L142.028721,51.3068334 L145.047495,53.4845746 L160.629835,53.4845746 L163.000055,52.473732 L163.382224,49.4453545 L163.382224,14.886614 L154.731859,14.886614 L154.731859,41.5565881 C154.120604,42.6197814 153.503925,43.1513781 152.881821,43.1513781 C152.259717,43.1513781 151.305346,42.6197814 150.018709,41.5565881 L150.018709,14.886614 Z" id="Path-4" stroke="#979797" fill="#979797"></path>
                    <polygon id="Path-5" stroke="#979797" fill="#979797" points="179.499871 4.60155484 170.387433 4.60155484 170.387433 13.886614 166.718743 13.886614 166.718743 25.1513781 170.387433 25.1513781 170.387433 47.6833723 171.573834 51.1847802 175.166842 53.1513781 183.791924 53.4845746 186.055213 50.0207669 186.055213 44.1513781 184.019748 42.0900572 181.078768 41.5565881 181.078768 26.1513781 184.431917 25.6343946 186.055213 22.9432583 186.055213 17.996456 184.941542 15.1538791 183.685017 14.0749487 179.499871 14.0749487"></polygon>
                    <path d="M9.99037835,98.5097164 L9.99037835,124.686617 L16.0391823,124.686617 L16.0391823,120.32569 L25.8421158,120.32569 L26.3083566,130.377968 L18.7188751,138.33879 L6.44620504,138.33879 C4.85005246,137.2048 3.65073517,136.142287 2.84825318,135.151252 C2.0457712,134.160217 1.09635347,132.569122 4.61852778e-14,130.377968 L4.61852778e-14,95.3833095 C0.45206994,93.7276536 0.925495521,92.199114 1.42027674,90.7976906 C2.16244857,88.6955554 2.16244857,88.3257903 4.1440843,86.3048359 C6.12572003,84.2838815 6.90279444,83.1837401 9.99037835,82.759112 C13.0779623,82.3344839 14.0967079,82.3344839 17.6237936,83.6876319 C21.1508793,85.0407799 23.0913145,87.1484822 24.4718445,89.1131452 C25.8523745,91.0778082 25.6183085,92.9212843 25.8421158,95.3833095 C25.9913206,97.0246596 25.9913206,99.592219 25.8421158,103.085988 L16.0391823,103.085988 C15.9317131,100.32643 15.7240671,98.2069226 15.4162446,96.7274668 C14.9975507,94.7151419 12.9130297,95.0843533 11.8526218,95.3833095 C11.1456833,95.5826136 10.5249354,96.6247492 9.99037835,98.5097164 Z" id="Path-6" stroke="#979797" fill="#979797"></path>
                    <path d="M40.1001373,86.0509117 L30.8063484,86.0509117 L30.8063484,131.020342 C32.7825355,134.030595 34.5380872,135.903815 36.0730036,136.640003 C37.60792,137.37619 40.1301111,137.625327 43.6395769,137.387414 L43.6395769,127.172885 L40.1001373,125.158628 L40.1001373,86.0509117 Z" id="Path-7" stroke="#979797" fill="#979797"></path>
                </g>
                <g id="Group" transform="translate(58.721669, 84.151378)" fill="#979797" stroke="#979797">
                    <ellipse id="Oval" cx="5" cy="5.5" rx="4.5" ry="5"></ellipse>
                    <path d="M-5.68434189e-14,16.8808797 L-5.68434189e-14,53.3231973 C1.53585477,53.8993404 3.27204449,54.187412 5.20856916,54.187412 C7.14509383,54.187412 8.88128355,53.8993404 10.4171383,53.3231973 L10.4171383,16.8808797 C8.96500392,15.8006109 7.15929115,15.2604765 5,15.2604765 C2.84070885,15.2604765 1.17404218,15.8006109 -5.68434189e-14,16.8808797 Z" id="Path-8"></path>
                </g>
                <g id="Group" transform="translate(145.721669, 83.151378)" fill="#979797" stroke="#979797">
                    <ellipse id="Oval" cx="5" cy="5.5" rx="4.5" ry="5"></ellipse>
                    <path d="M0,16.8808797 L0,53.3231973 C1.53585477,53.8993404 3.27204449,54.187412 5.20856916,54.187412 C7.14509383,54.187412 8.88128355,53.8993404 10.4171383,53.3231973 L10.4171383,16.8808797 C8.96500392,15.8006109 7.15929115,15.2604765 5,15.2604765 C2.84070885,15.2604765 1.17404218,15.8006109 0,16.8808797 Z" id="Path-8"></path>
                </g>
                <g id="logo_symbol" transform="translate(0.000000, 85.090427)">
                    <path d="M72.8979436,14.8543855 C73.736006,13.8615171 75.0269556,13.3650829 76.7707927,13.3650829 C77.794637,13.3650829 79.1695199,13.5502678 80.8448466,13.8925212 C81.6302674,14.0529753 82.9610533,14.3735967 84.8372042,14.8543855 C86.9849843,13.8615171 88.6649117,13.3650829 89.8769864,13.3650829 C90.6439118,13.3650829 92.2296692,13.4950194 93.3987619,13.8925212 C93.8511491,14.0463368 94.3915595,14.3669583 95.0199931,14.8543855 C96.2518172,15.6356529 97.1649212,16.0262866 97.7593051,16.0262866 C98.3536891,16.0262866 99.1649487,15.6356529 100.193084,14.8543855 C100.894495,13.8615171 102.287565,13.3650829 104.372294,13.3650829 C106.457023,13.3650829 107.892506,13.8615171 108.678741,14.8543855 C109.606965,15.9591468 110.33754,16.8428107 110.870467,17.5053771 C111.403394,18.1679435 111.851343,19.0952156 112.214317,20.2871934 L112.214317,52.3841479 C110.13566,52.960291 108.4929,53.2483626 107.286039,53.2483626 C106.079178,53.2483626 104.471103,52.960291 102.461814,52.3841479 L102.461814,26.1638113 C102.163549,25.8837621 101.407305,25.7437374 100.193084,25.7437374 C98.9788625,25.7437374 98.1676029,25.8837621 97.7593051,26.1638113 L97.7593051,52.3841479 C95.4911272,52.960291 93.7567355,53.2483626 92.5561302,53.2483626 C91.3555249,53.2483626 89.6124853,52.960291 87.3270112,52.3841479 L87.3270112,26.1638113 C86.5155676,25.8837621 85.9005449,25.7437374 85.4819431,25.7437374 C85.0633412,25.7437374 84.5789591,25.8837621 84.0287966,26.1638113 L84.0287966,52.3841479 C81.8038588,52.960291 80.0415911,53.2483626 78.7419934,53.2483626 C77.4423956,53.2483626 75.494379,52.960291 72.8979436,52.3841479 L72.8979436,14.8543855 Z" id="Path-9" stroke="#979797" fill="#979797"></path>
                    <path d="M117.756697,2.1552935 L117.756697,52.1487738 C119.051695,52.881833 120.550474,53.2483626 122.253033,53.2483626 C123.955593,53.2483626 125.58354,52.881833 127.136875,52.1487738 L127.662381,51.7148999 L128.933919,52.1487738 C132.033449,52.5876761 135.105802,52.5876761 138.150979,52.1487738 C139.578296,51.9430542 140.32138,51.2114379 140.924083,50.4206277 C141.325885,49.8934209 141.591747,48.9077628 141.721669,47.4636531 L141.721669,17.0670872 C141.806978,16.3179937 141.358392,15.4447508 140.375909,14.4473585 C139.393427,13.4499663 138.41479,12.9660192 137.44,12.9955173 L130.123841,12.9043327 L127.136875,12.9043327 L127.136875,2.1552935 C126.614864,0.718431166 124.986917,0 122.253033,0 C119.519149,0 118.02037,0.718431166 117.756697,2.1552935 Z" id="Path-10" stroke="#979797" fill="#979797"></path>
                    <rect id="Rectangle" stroke="#979797" fill="#D8D8D8" x="128.721669" y="25.5609506" width="4" height="18" rx="2"></rect>
                    <path d="M160.818702,52.2483626 C160.818702,52.2483626 160.818702,39.6150085 160.818702,14.3483003 C161.297332,13.6637182 162.688611,13.3214271 164.99254,13.3214271 C167.296468,13.3214271 168.696924,13.6637182 169.193907,14.3483003 L169.193907,15.7721969 L171.775401,15.7721969 L171.775401,14.3483003 L172.822199,13.9288177 L177.874388,13.9288177 C180.220588,14.5717879 181.804118,15.3550582 182.62498,16.2786287 C183.445843,17.2021992 184.179415,19.0259535 184.825697,21.7498914 L184.825697,52.2483626 C184.294915,52.7900879 182.615168,53.0609506 179.786455,53.0609506 C176.957741,53.0609506 175.259005,52.7900879 174.690246,52.2483626 L174.690246,26.6241813 C174.398416,25.9153608 173.590069,25.5820275 172.265206,25.6241813 C170.940343,25.6663351 170.304713,25.9996685 170.358318,26.6241813 L170.358318,52.2483626 C168.574813,52.7900879 166.997733,53.0609506 165.627079,53.0609506 C162.58213,53.0609506 160.818702,52.2483626 160.818702,52.2483626 Z" id="Path-11" stroke="#979797" fill="#979797"></path>
                    <path d="M213.031878,16.2808093 L213.539673,62.915876 C212.994154,64.6885574 211.924506,65.9260173 210.330727,66.6282557 C208.736948,67.3304941 205.71035,67.8978904 201.250933,68.3304445 C197.479053,67.8130204 194.871211,67.1100669 193.427406,66.2215839 C191.983601,65.3331008 190.511914,63.5256098 189.012345,60.7991109 L189.012345,54.4180153 C189.371459,54.0409848 189.681369,53.7835895 189.942075,53.6458294 C190.202782,53.5080693 190.630714,53.3755804 191.225872,53.2483626 L191.225872,49.7579157 C190.636415,49.6577041 190.208483,49.486713 189.942075,49.2449423 C189.675668,49.0031715 189.365758,48.5045533 189.012345,47.7490876 L189.012345,20.8615915 C189.531291,18.6459638 189.990841,17.1190364 190.390995,16.2808093 C190.79115,15.4425822 191.531445,14.4561214 192.611882,13.3214271 L198.970627,13.3214271 L198.970627,14.319408 L203.841149,14.319408 L203.841149,13.3214271 L210.330727,13.3214271 C211.221028,13.6555744 211.817316,13.9882347 212.119592,14.319408 C212.421868,14.6505814 212.725963,15.3043818 213.031878,16.2808093 Z" id="Path-12" stroke="#979797" fill="#979797"></path>
                    <rect id="Rectangle" stroke="#979797" fill="#D8D8D8" x="198.721669" y="24.5609506" width="4" height="18" rx="2"></rect>
                    <ellipse id="Oval" stroke="#D8D8D8" fill="#D8D8D8" cx="201.621669" cy="55.0609506" rx="1" ry="1.5"></ellipse>
                    <rect id="Rectangle" stroke="#979797" fill="#979797" transform="translate(113.984054, 171.498996) rotate(45.000000) translate(-113.984054, -171.498996) " x="34.4840536" y="91.9989957" width="159" height="159"></rect>
                    <rect id="Rectangle" fill="#D8D8D8" transform="translate(78.000000, 168.290644) rotate(-44.000000) translate(-78.000000, -168.290644) " x="21" y="163.790644" width="114" height="9"></rect>
                    <rect id="Rectangle" fill="#D8D8D8" transform="translate(90.053588, 204.405178) rotate(-44.000000) translate(-90.053588, -204.405178) " x="50.0535883" y="199.905178" width="80" height="9"></rect>
                    <rect id="Rectangle" fill="#D8D8D8" transform="translate(143.721045, 137.206669) rotate(-44.000000) translate(-143.721045, -137.206669) " x="122.721045" y="132.706669" width="42" height="9"></rect>
                    <rect id="Rectangle" fill="#D8D8D8" transform="translate(151.686758, 169.023892) rotate(46.000000) translate(-151.686758, -169.023892) " x="96.1867583" y="164.523892" width="111" height="9"></rect>
                    <rect id="Rectangle" fill="#D8D8D8" transform="translate(183.350858, 154.391815) rotate(46.000000) translate(-183.350858, -154.391815) " x="139.850858" y="149.891815" width="87" height="9"></rect>
                    <rect id="Rectangle" fill="#D8D8D8" transform="translate(139.877566, 204.795116) rotate(46.000000) translate(-139.877566, -204.795116) " x="101.377566" y="200.295116" width="77" height="9"></rect>
                </g>
            </g>
        </g>
    </g>
</svg>
